<?xml version="1.0" encoding="UTF-8"?>
<svg id="Layer_1" data-name="Layer 1" xmlns="http://www.w3.org/2000/svg" viewBox="0 0 465.2 426.62">
  <path d="m194.81,321.99c-.19,2.12-.31,4.25-.6,6.35-.52,3.71-1.16,7.41-1.72,11.12-.58,3.86-1.12,7.73-1.7,11.75.36.04.72.1,1.08.1,41.52,0,83.04-.01,124.56-.01,3.61,0,7.22.07,10.82.11-.4-1.68-.71-3.39-1.2-5.05-3.26-11.04-6.55-22.06-9.83-33.09-.11-.37-.17-.75-.31-1.33,3.03.14,5.93.26,8.84.4,5.51.26,6.19-.27,7.46-5.66.65-2.75,1.38-5.48,2.09-8.22.88-3.37-.67-5.7-4.1-6.13-1.11-.14-2.22-.21-3.31-.31-.08-.11-.18-.19-.18-.26.36-4.23-3.29-6.01-7.07-5.69-1.49.13-2.97.45-4.46.68-.53-2.12-.35-2.48,1.57-3.32,10.49-4.59,20.99-9.15,31.47-13.78,4.52-1.99,8.58-4.61,11.38-8.85,4.96-7.52,3.19-16.63-4.47-21.43-7.51-4.71-15.15-9.23-22.82-13.69-8.56-4.97-17.21-9.75-25.82-14.63-5.61-3.18-11.58-4.56-18-3.57-.98.15-1.36-.16-1.73-1-1.17-2.62-2.38-5.24-3.67-7.8-.64-1.28-.83-2.43,0-3.68.4-.6.65-1.29.85-1.7,2.08.53,4.01,1.3,6,1.47,5.06.42,8.75-2.01,11.59-6.05.48-.68,1.28-1.33,2.06-1.59,18.5-6.29,29.73-19.33,33.17-38.21,4.37-23.96-4.56-43.12-23.85-57.54-8.31-6.21-17.84-9.81-28.05-11.3-13.9-2.04-26.87.68-38.6,8.57-8.36,5.62-14.32,13.28-18.51,22.36-.38.83-.84,1.26-1.71,1.56-5.53,1.91-9.93,5.4-13.3,10.11-8.65,12.1-9.47,25.12-4.27,38.76.49,1.28.63,2.35.2,3.72-3.34,10.68-1.64,20.63,4.76,29.74,7.21,10.26,17.26,15.61,29.66,16.71.26.02.52.12,1.07.24-4.56,1.4-8.83,2.68-13.07,4.03-11.92,3.8-23.84,7.61-35.74,11.48-1.32.43-1.99.33-2.71-.97-3.58-6.43-7.29-12.79-10.92-19.2-.2-.35-.17-1.04.05-1.38,6.33-9.97,1.21-23.3-10.24-26.15-5.09-1.26-10.3-2.03-15.47-2.95-5.55-.99-11.13-1.86-16.68-2.86-5.2-.94-9.38,1.38-10.5,5.94-.94,3.84,1.22,7.85,5.22,8.86,3.76.95,7.65,1.39,11.6,2.07-1.56,2.84-1.22,5.59,1,8.06-2.54,3.09-2.59,5.28-.24,8.74-2.79,3.92-1.76,8.6,2.61,10.65,3.94,1.85,8.22,2.19,12.75,2.11,1.26,2.67,2.6,5.58,3.98,8.47,2.73,5.71,5.49,11.4,8.21,17.12,2.03,4.27,4.96,7.45,9.83,8.34,2.89.53,5.74.06,8.55-.63,7.05-1.74,14.09-3.52,21.13-5.27.6-.15,1.22-.25,1.82-.37.92,2.62,1.4,1.92-1.47,3.58-11.98,6.95-20.3,16.92-24.63,30.06-1.18,3.58-1.57,7.42-2.32,11.14,0,.2-.02.39-.02.59l-.02.59c0,.94,0,1.88,0,2.82.02.92.05,1.83.07,2.75.15.95.28,1.9.44,2.84.33,1.98.66,3.96,1,5.94.21.53.45,1.05.62,1.6,1.33,4.35,3.49,8.31,5.83,12.17Zm100.2-162.36c-.48.1-.97.21-1.45.31-.38-.19-.76-.38-1.18-.59-.72,1.55-2.11.7-3.33,1.05-.06-1.13-.12-2.1-.17-3.07-.4-2.21-.8-4.41-1.23-6.75,1.01-.23,1.92-.43,2.84-.64.16.63.19,1.1.4,1.46.22.37.63.63.96.94.2-.39.52-.76.57-1.17.08-.61-.04-1.24-.07-1.87.81-.22,1.51-.41,2.32-.63.28.98.56,1.93.84,2.92.56-.04,1.05-.08,1.53-.12-.14-1.14-.28-2.28-.42-3.49.77-.19,1.49-.36,2.27-.55-.2-.8-.35-1.44-.51-2.09-.9.13-1.69.25-2.45.36-.43-1.46-.81-2.75-1.21-4.11-.65.22-1.1.37-1.61.54.17.76.31,1.41.47,2.06q.6,2.51-2.08,2.83c-.79-.62-.03-2.64-1.56-2.26-1.96.49.25,1.92-.35,3.02-.72.26-1.57.56-2.48.88-1.35-3.38-2.65-6.66-3.97-9.97.95-.58,1.95-1.18,2.82-1.71,1.1.47.4,3.03,2.67,1.95-.24-1.14-.95-2.45-.57-3.25.43-.93,1.82-1.42,2.85-2.14.95,1.61,1.83,3.12,2.9,4.94.05-.89.07-1.36.1-2.01h13.02c-1.07-4.7-2.1-9.2-3.16-13.83h17.08c-1.5-4.48-2.95-8.8-4.43-13.2h10.56c1.82,4.4,3.66,8.87,5.62,13.59h-5.17c.73,3.57,1.43,6.99,2.16,10.59h-10.81c.49,3.89.96,7.64,1.45,11.51h-11.17c.29,2.77.56,5.44.84,8.1.13.99.26,1.99.4,3.07h-11.2c-.1,1.12-.2,2.21-.3,3.31-.15.03-.3.06-.45.1-1.16-1.01-.28-2.64-.81-3.86h-1.67v3.26c-.28.18-.56.36-.84.54Zm-15.75,145.11c0,5.15,0,10.31-.01,15.46.05.43.14.86.15,1.29.08,7.07.15,14.14.23,21.2.01,1,0,1.99,0,2.92h-9.8c0-.49-.02-.83,0-1.16.5-8.07,1-16.15,1.49-24.22.01-.59.02-1.17.04-1.76-.01-1.66-.02-3.32-.04-4.98-.2.34-.44.66-.61,1.01-.31.66-.59,1.34-.88,2.01-.2.89-.38,1.79-.62,2.68-2.17,7.97-4.35,15.95-6.53,23.92-.07.39-.15.77-.22,1.16l-.24.36c-.3.36-.6.72-.9,1.08-.1,0-.19,0-.29.01-.2,0-.39,0-.59,0l-30.74-.02c-3.23,0-6.45.01-9.68.02-.54-.1-1.36-.02-1.58-.34-1.64-2.45-2.86-5.11-3.77-8.12,2.24.78,4.24,1.48,6.24,2.18,8.61,2.61,24.3.78,26.6-3.24-.61-.08-1.16-.16-1.72-.24-.58,0-1.17,0-1.75,0-.88.01-1.76.03-2.64.04-1.38-.06-2.75-.12-4.13-.18-3.33-.57-6.65-1.14-9.98-1.72-4.22-.97-8.17-2.63-11.84-4.87-10.28-6.26-17.88-14.56-19.92-26.92-.8-4.8-.76-9.6.54-14.33,1.11-3.31,1.91-6.75,3.38-9.89,3.65-7.83,9.49-13.88,16.55-18.7,2.78-1.9,5.97-3.17,8.98-4.73,2.27-.71,4.53-1.48,6.82-2.1.48-.13,1.22.11,1.65.43,2.69,2.02,5.23,4.24,7.99,6.15,8.02,5.54,16.81,7.84,26.49,5.69,9.61-2.14,16.61-10.43,16.19-19.67-.1-2.11-.61-4.2-.94-6.31-1.08,2.08-1.71,4.12-2.51,6.08-4.24,10.45-15.24,16.07-26.25,13.51-4.95-1.15-9.23-3.62-13.28-6.56-.73-.53-1.37-1.17-2.24-1.92,1.8-.23,3.27-.42,4.94-.63-.29-.32-.34-.42-.42-.46-.27-.12-.54-.22-.82-.32-6.74-2.46-13.59-2.91-20.52-.93-1.11.32-1.53.06-1.92-.98-1.05-2.79-1.11-5.63-.58-8.5.2-1.1.74-2.14,1.12-3.21.65-1.4,1.1-2.94,1.98-4.17,4.2-5.87,10.4-8.77,16.95-11.09,2.23-.9,4.46-1.8,6.83-2.75,1.37,3.56,3.71,5.93,6.76,7.66.23.08.47.14.69.23,7.25,2.91,14.27,2.22,21.13-1.33,3.35-1.73,5.98-4.3,8.52-6.99l.3-.05-.05.03c.3-.52.65-1.02.9-1.57.7-1.51,1.94-1.72,3.45-1.72,4.71,0,9.18,1.01,13.4,3.04,5.07,2.44,10.09,5,15.17,7.54-.67,1.04-1.22,1.88-1.76,2.73-.27,1.08-.67,1.71-2.02,1.23-1.56-.56-1.9-.18-1.73,1.61.66.2,1.34.39,2.05.61-.77,2.16-1.49,4.17-2.22,6.18-.21.72-.42,1.44-.68,2.33-8.79-3.07-17.41-6.08-26.02-9.09.32.55.6,1.11.95,1.64,3.88,5.73,7.79,11.45,11.65,17.21.33.5.53,1.25.46,1.84-.78,6.28-1.64,12.55-2.44,18.83-.26,2.05-.86,3.85-2.05,5.64-1.21,1.82-2.31,4.03-2.48,6.15-.41,4.99-.27,10.03-.3,15.05,0,.87.14,1.76.38,2.6,1.76,6.3,5.62,10.6,12.01,12.4,1.01.28,1.41.75,1.61,1.74,1.51,7.59,3.08,15.17,4.6,22.76.7,3.46,1.34,6.94,2.03,10.5h-24.02c-.58-3.53-1.15-6.98-1.7-10.44-1.06-6.68-2.12-13.35-3.16-20.03-.53-3.41-1.03-6.82-1.55-10.23-.36-.08-.72-.17-1.08-.25Zm35.5-69.34s.03-.05.03-.05c.44-1.47.88-2.94,1.32-4.44.98.3,1.8.55,2.62.8.59-1.11.4-1.94-.8-2.49-.21-.1-.3-.46-.45-.7.13-.11.26-.21.4-.32l-.05.02c.6-1,1.2-2.01,1.81-3.04,2.89,1.67,5.64,3.26,8.4,4.86-.52.92-.98,1.72-1.43,2.52-.07.3-.15.59-.22.89.85.09,1.53,1.49,2.53.32.53-.78,1.06-1.55,1.62-2.37,5.09,3.07,9.99,6.03,14.98,9.04-.5.77-.94,1.45-1.38,2.14-.33.73-.66,1.45-1.01,2.21.66.39,1.23.72,1.76,1.03.52-.46.95-.84,1.38-1.21.46-.82.91-1.63,1.51-2.71,1.81,1.61,3.41,3.03,5.01,4.46,2.9,2.91,2.84,7.52-.14,10.8-2.56,2.82-5.98,4.34-9.31,5.92-10.04,4.76-20.13,9.4-30.19,14.11-1.78.83-3.52,1.77-5.09,2.57.29.87.68,1.49.67,2.1-.07,2.88-.24,5.75-.4,8.62-.2,3.45-.42,6.91-.63,10.36,1.44.22,2.88.45,4.33.67,1.87.17,3.73.33,5.6.5,1.65.14,3.3.28,4.95.41.29-.41.67-.79.84-1.25.48-1.33.84-2.7,1.32-4.02.13-.35.52-.88.77-.87,1.28.05,2.56.25,4.05.43-1.05,3.67-2.04,7.15-3.06,10.73-2.27-.16-4.4-.31-6.53-.47-.4-.03-.8-.06-1.2-.09h-.14s-.13-.04-.13-.04c-.86-.04-1.72-.09-2.59-.13-1.39-.08-2.78-.17-4.16-.25-.3-.01-.59-.02-.89-.03-.48-.02-.96-.03-1.44-.05-1.11-.08-2.24-.06-3.32-.26-3.33-.61-6.3-1.84-8.15-4.93-.48-1.05-1.35-2.09-1.39-3.15-.19-5.65-.24-11.31-.15-16.96.02-1.13.57-2.49,1.34-3.32,1.66-1.8,3.46-3.57,5.49-4.93,10.13-6.79,20.36-13.43,30.54-20.15,1.42-.94,2.72-2.04,4.08-3.07-2.16-.89-4.33-1.78-6.52-2.69.3-.73.5-1.24.67-1.67.95-.05,1.46,2.03,2.42.25-.05-.38.02-1.01-.16-1.09-1.63-.76-1.29-1.78-.53-2.94.26-.39.39-.87.61-1.38-.67-.26-1.25-.48-1.95-.75-.52,1.03-1,1.99-1.51,3.01-.54-.36-.94-.62-1.62-1.07-.36.79-.68,1.48-1,2.18.54.18,1.07.36,1.77.59-.29.65-.54,1.23-.84,1.91-3.73-1.58-7.29-3.08-11.02-4.66.3-.63.57-1.18.65-1.36,1.04.2,1.76.33,2.48.47.13-.46.26-.91.38-1.34q-1.94-1.46-.58-3.23c.2-.64,1.16-1.31,0-1.93-1.08-.57-1.6.08-1.99.98-.21.49-.46.96-.73,1.5-.57-.38-1.04-.82-1.61-1.04-.45-.17-1.01-.07-1.51-.09-.09.11-.17.22-.26.33.23.51.32,1.27.7,1.47,1.32.7,1.46,1.5.57,2.61-.12.14-.19.32-.31.52-.54-.19-1.11-.26-1.5-.57-.33-.26-.68-.83-.61-1.19.2-1.04.6-2.03.92-3.05Zm-104.7,110.3h-2.51v-4.8l.42-.1c.69,1.64,1.38,3.28,2.08,4.92.03.03.06.06.1.1-.03-.04-.05-.07-.08-.11Zm-40.43-123.33c-.08-.56-.04-1.17-.27-1.66-.54-1.14-1.23-2.22-1.83-3.33-.41-.75-.77-1.53-1.15-2.29l-.13-.03-.13.02c-.2.08-.4.16-.6.24-.19.02-.38.05-.57.07-.63.11-1.27.21-1.84.31.25-1.55.48-2.95.73-4.47,2.13.17,3.12-1.65,4.24-3.28h0c.01-1.4,0-2.79.05-4.18.02-.61.05-1.28.31-1.8,1.65-3.19,3.37-6.34,5.08-9.54-1.34-.54-2.41-.97-3.57-1.44-1.06,2.01-2.03,4.03-3.16,5.95-.93,1.57-3.16,1.83-4.95.75-1.62-.98-2.17-2.75-1.22-4.4,1.14-1.98,2.44-3.88,3.59-5.85,1.18-2,2.94-2.88,5.15-2.55,1.46.22,2.99.62,4.25,1.35,4.14,2.41,6.34,7.79,5.57,12.79-.52,3.34-1.96,6.2-4.17,8.8,1.5,2.53,3,5.01,4.46,7.52.99,1.69,1.93,3.41,2.89,5.12,0,0,0,.05,0,.05,2.12,3.53,4.24,7.05,6.36,10.58.16.23.31.46.47.68.62,1.06,1.25,2.12,1.87,3.18.61.52.89,1.05.09,1.64-2.46,1.81-4.92,3.63-7.37,5.45-1.25,1-2.5,2-3.88,3.11-1.33-2.84-2.63-5.61-3.93-8.38l-3.22-7.03c-.35-.8-.7-1.6-1.06-2.4-.69-1.66-1.38-3.32-2.07-4.97Zm54.01-89.26c-.08.85.32,1.26,1.17,1.25.52-.06,1.05-.16,1.57-.16,2.48-.02,4.97,0,7.45,0,.31-3.49.63-6.97.94-10.46.12,0,.23,0,.35.01.09,3.2.19,6.4.28,9.59.04.3.08.6.12.89.31,0,.61.02.92.03.09-.04.17-.04.26,0,4.69.04,9.38.07,14.08.11.18-.01.37-.02.55-.04.51-.03,1.02-.07,1.53-.1.05-.1.1-.21.16-.31.19-3.15.38-6.31.57-9.46.15,0,.3,0,.45.01.17,3.04.34,6.08.51,9.12.02.18.04.37.06.55h8.21v-5.22c5.22,4.77,9.29,10.16,12.2,16.81-2.39-.17-4.45-.31-6.74-.47.13-1.33.25-2.47.37-3.61-.63.02-1.68-.16-1.8.1-.43.92-.54,1.98-.81,3.14-2.24-.18-4.54-.36-6.89-.55v-3.04c-2.88-.77-1.52,1.78-2.39,2.84-2.07-.11-4.27-.23-6.55-.35,0-1.18,0-2.2,0-3.22-2.81-.68-1.77,1.7-2.2,2.97-1.81-.13-3.54-.25-5.42-.38,0-.77.11-1.47-.04-2.11-.09-.39-.56-.7-.85-1.05-.19,0-.39,0-.58,0-.3.95-.6,1.9-.98,3.11-2.28-.15-4.75-.31-7.23-.47-.04-.19-.08-.38-.11-.58-.03-.6-.06-1.19-.09-1.79h-1.78c-.11.85-.2,1.58-.3,2.31-1.57,0-3.07.04-4.55-.04-.27-.01-.52-.53-.78-.81-.96,1.23-2.21.55-3.46.63,0-.74.07-1.37-.03-1.97-.06-.37-.38-.71-.59-1.06-1.25-.12-1.6.52-1.53,1.67.03.41-.16,1.04-.46,1.21-.97.54-2.73-.03-3.39-1-.84.06-.92,2-2.38.8,2.23-6.51,5.65-12.35,10.45-17.37.08,2.18-.02,4.27-.13,6.36-.02.29-.11.57-.16.85,0,.28,0,.55,0,.83,0,.13,0,.26,0,.39Zm-9.21,52.39c-.88-1.94-1.46-3.93-1.4-6.36,1.02,1.32,1.81,2.35,2.61,3.37,5.21,5.04,10.88,5.24,17.01,1.38.08,1.39.14,2.58.21,3.89,3.1,0,6.07-.02,9.03.01.97.01,1.94-.15,2.01-1.2.06-.81-.23-1.88-.77-2.43-.58-.6-1.62-.91-2.49-1.03-1.29-.17-2.62-.04-3.93-.04-.32.06-.63.12-1.2.23.86-5.7-.87-11.42,1.47-16.85.19-.43.23-.94.25-1.42,0-.12-.33-.25-.51-.38-1.07,1.83-1.41,1.98-3.39,1.48-.66-.17-1.32-.35-1.96-.56-5.25-1.7-9.73-4.69-13.78-8.34-1.01-.91-1.86-1.15-3.06-.5-.65.35-1.42.49-2.62.89.23-3.92.37-7.46.69-10.98.19-2.06.32-2.04,2.14-1.82.6.61,1.04,1.06,1.7,1.73.18-.92.26-1.34.34-1.75h2.84c.05.86-.1,1.73.21,2.37.23.47,1.06.65,1.85,1.08.1-1.47.16-2.47.23-3.51,1.35.05,2.66-.34,3.27.67,1.82-.97,3.67-.13,5.47-.45.12.95.22,1.75.32,2.61h1.73c.1-.83.2-1.63.33-2.7,1.49.25,2.86.49,4.36.74.76-.76,1.9-.21,3.05-.21.06.9.12,1.7.18,2.5h1.78c.12-.81.22-1.55.35-2.41,1.82.13,3.54.26,5.23.38.06.97.1,1.73.15,2.53h1.65c.17-.8.33-1.51.52-2.4,2.1.17,4.16.34,6.21.51q.4,2.8,2.09,2.39c.12-.7.24-1.4.35-2.06,3-.2,3.65,0,3.88.78,1.09-.15,2.12-.29,3.3-.44v3.03h1.95c.13-.92.25-1.77.38-2.73,1.98.15,3.85.29,5.49.42.34,1.07.6,1.89.85,2.71,1.72.35,1.33-1.18,1.64-2.06.2.12.32.15.35.22.18.4.35.81.5,1.22,2.25,6.16,3.7,12.51,4.53,19,.51,3.96,1.03,7.94-.28,11.87-1.23,3.69-2.43,7.4-4.94,10.49-.06.18-.07.39-.18.53-5.94,7.7-13.76,12.21-23.35,13.66-11.01,1.66-21.02-.54-29.68-7.81-3.98-3.34-7.15-7.29-8.95-12.24Zm67.56-48.57c-.65-.92-1.28-1.77-1.88-2.65-3.09-4.52-6.9-8.32-11.38-11.44-6.89-4.8-14.78-7.05-22.83-8.85-2.98-.66-6.02-1.07-8.66-1.52.42-1.03.83-2.03,1.3-3.19,2.45-.16,5.05-.34,7.76-.52-.08.79-.14,1.35-.2,1.92-.12-.08-.23-.16-.35-.24-.4.47-.81.94-1.39,1.62,1.61.4,2.82.74,4.05.99.25.05.66-.14.83-.35.13-.16.07-.74-.05-.78-1.84-.74-.65-1.97-.63-3.2,3.42.54,6.71,1.06,10.11,1.59-.34,1.18-.6,2.1-.86,3.01-.21.03-.37.02-.49.08-.44.24-.86.5-1.28.76.31.33.56.78.95.97.87.42,1.82.69,2.72,1.06,1.09.45,1.53.03,1.58-1.04-1.76-1.05-1.81-1.5-.39-4.2,3.04,1.11,6.12,2.23,9.38,3.42-1.4,1.49-2.61,2.77-3.89,4.12.57.43.97.74,1.48,1.12,1.16-1.76,2.36-1.67,3.64-.24.14.16.83.12.93-.03.18-.3.3-.9.13-1.1-.43-.49-1.04-.83-1.6-1.24.66-.71,1.02-1.09,1.39-1.49,3.33,1.8,6.49,3.74,9.22,6.44-.5.44-.88.78-1.27,1.13-.47-.56-.77-1.14-1.24-1.4-.38-.21-.97-.02-1.46-.02.07.4.05.86.24,1.19.27.44.7.79,1.13,1.24-1.04.87-1.99,1.68-2.91,2.45.46.5.87.94,1.34,1.46.88-.68,1.79-1.39,2.73-2.13.45.56.78,1.11,1.25,1.51.24.21.86.3,1.06.14.23-.19.33-.77.22-1.08-.21-.56-.63-1.04-.97-1.57.7-.46,1.25-.82,1.96-1.29,2.06,2.67,4.06,5.26,6.16,7.98-1.31.9-2.34,1.6-3.44,2.35-.45-.67-.74-1.42-1.28-1.84-.93-.73-1.16.19-1.49.75,1.53,2.24,1.73,1.69-.5,3.31-.35.25-.69.51-1.11.82Zm45.42,115.95c-6.91,4.35-13.57,8.53-20.56,12.93,1.04-7.13,2-13.73,2.97-20.45,5.95,2.54,11.66,4.98,17.59,7.51Zm-50.96-53.08c1.14,2.51,2.13,4.72,3.14,6.92q1.71,3.75-1.18,6.67c-6.11,6.19-15.09,8.29-22.87,5.21,9.73-3.15,15.83-10.18,20.91-18.8Zm-54.63-31.12c-1.95,2.85-2.11,5.29-.56,7.39,1.22,1.65,3.96,2.59,5.9,2.03,2.65-.77,4.2-2.99,4.42-6.36.66.13,1.31.26,1.91.38,0,1.3-.1,2.52.02,3.72.31,3.08-1.34,4.88-3.82,6.24-2.14,1.17-4.41,1.54-6.78,1.02-3.71-.82-6.34-3.03-7.5-6.64-1.21-3.77-.51-7.27,2.18-10.37,1.44.88,2.8,1.72,4.23,2.59Zm-64.22,19.11c-.16-.01-.41,0-.65-.05-5.13-.87-10.26-1.74-15.39-2.62-1.91-.33-3.83-.68-5.72-1.1-1.18-.26-1.77-1.13-1.96-2.29-.19-1.19.39-2.08,1.38-2.49.85-.34,1.89-.52,2.79-.38,4.43.67,8.84,1.45,13.25,2.21,2.93.5,5.86,1,8.76,1.6.52.11,1.3.69,1.35,1.12.25,2.1-1.63,4.01-3.82,3.99Zm132.97,1.82c-2.46-.02-4.5-.97-5.97-3.02-.26-.36-.51-.93-.4-1.3.76-2.71,1.27-5.56,2.51-8.04,2.17-4.37,8.04-4.6,10.68-.58,1.81,2.75,1.85,5.67.29,8.57-1.5,2.81-3.85,4.29-7.11,4.36Zm-126.54,15.45c-.02,1.66-.71,2.37-2.3,2.1-3.21-.53-6.4-1.17-9.6-1.76-1.87-.34-2.89-1.43-2.62-2.83.3-1.52,1.52-2.18,3.4-1.82,3.01.58,6.02,1.15,9.03,1.73,1.68.32,2.11.86,2.09,2.57Zm148.86,86.82c.82.12,1.48.31,2.14.29.44,0,1.1-.18,1.27-.48.97-1.85,2.58-1.9,4.27-1.6.33.06.83.85.76,1.19-.46,2.13-1.05,4.24-1.65,6.33-.08.27-.5.66-.74.64-2.11-.14-4.22-.35-6.47-.56.15-2.06.28-3.87.43-5.82Zm-19.32-129.84h2.22v2.89c.53.06,1.03.11,1.52.16q.62-3,1.5-3.15c-.1,1.53-.2,3.01-.28,4.25-3.26.86-6.33,1.67-9.3,2.45v-6.24c.91-.1,1.72-.2,2.56-.29.18.46.36.89.67,1.67.45-.7.74-1.17,1.11-1.74Zm-141.39,47.28c1.76.37,3.53.68,5.26,1.12,1.32.34,1.64,1.48,1.56,2.64-.08,1.16-.85,2.25-1.99,2.13-2.05-.2-4.11-.66-6.06-1.33-1.14-.39-1.46-1.69-1.1-2.86.32-1.04,1.07-1.74,2.33-1.7Zm3.48-12.01c-1.6-.41-3.37-.64-4.89-1.36-.68-.32-1.26-1.7-1.17-2.52.09-.74,1.12-1.9,1.79-1.93,1.68-.09,3.38.34,4.8.53-.19,1.92-.35,3.48-.53,5.29Zm57.23-28.96v-6.23c.53.44.8.7,1.11.91,1.09.75,1.18,1.53.36,2.62-.67.9-1.09,1.98-1.47,2.7Zm17.62-56.48c-.04-.14-.09-.28-.13-.42,1.82-.61,3.63-1.21,5.7-1.9-.69,1.86-2.39,2.47-5.57,2.32Z" style="fill: #04100e; stroke-width: 0px;"/>
  <path d="m259.76,354.65c-.5-.03-1-.06-1.51-.08-.03.2-.05.39-.08.59.51.06,1.02.11,1.52.17.02-.23.04-.45.06-.68Z" style="fill: #e9eae6; stroke-width: 0px;"/>
  <path d="m356.93,355.19h1.26l.03-.45c-.42-.04-.84-.08-1.26-.11,0,.19-.02.38-.03.57Z" style="fill: #e9eae6; stroke-width: 0px;"/>
  <path d="m290.24,352.89h1.32c0-.1.01-.21.02-.31-.44-.02-.88-.04-1.32-.06,0,.12-.01.25-.02.37Z" style="fill: #e9eae6; stroke-width: 0px;"/>
  <path d="m274.79,150.63c-.26-.82-.51-1.63-.85-2.71-1.64-.12-3.51-.27-5.49-.42-.13.96-.25,1.81-.38,2.73h-1.95v-3.03c-1.18.16-2.21.3-3.3.44-.23-.78-.88-.98-3.88-.78-.11.66-.23,1.36-.35,2.06q-1.69.41-2.09-2.39c-2.04-.17-4.1-.34-6.21-.51-.19.89-.34,1.59-.52,2.4h-1.65c-.05-.8-.09-1.56-.15-2.53-1.69-.12-3.41-.25-5.23-.38-.12.85-.23,1.6-.35,2.41h-1.78c-.06-.8-.12-1.6-.18-2.5-1.15,0-2.29-.55-3.05.21-1.5-.25-2.87-.49-4.36-.74-.13,1.07-.23,1.87-.33,2.7h-1.73c-.11-.86-.2-1.66-.32-2.61-1.8.32-3.65-.52-5.47.45-.61-1.01-1.93-.62-3.27-.67-.07,1.04-.13,2.04-.23,3.51-.79-.43-1.63-.61-1.85-1.08-.31-.64-.16-1.51-.21-2.37h-2.84c-.08.42-.16.84-.34,1.75-.66-.67-1.1-1.12-1.7-1.73-1.82-.22-1.96-.23-2.14,1.82-.32,3.52-.45,7.06-.69,10.98,1.2-.4,1.97-.54,2.62-.89,1.2-.65,2.05-.41,3.06.5,4.05,3.65,8.53,6.64,13.78,8.34.65.21,1.3.4,1.96.56,1.97.5,2.31.35,3.39-1.48.14-.34.28-.68.43-1.03l1.24,1.17c.17.25.34.51.5.76.74.19,1.49.37,2.23.56,1.86-.56,3.77-.99,5.56-1.71,6.2-2.49,11.64-6.29,17.01-10.2.41-.3,1.18-.66,1.49-.48,2.21,1.26,4.35,2.64,6.69,4.1-1.6,1.48-2.95,2.73-4.32,4,.86,1.17,1.81,2.24,2.48,3.46.69,1.27,1.05,2.71,1.65,4.03.14.32.62.57.99.69,1.66.53,3.35.99,5.18,1.53-.29,1.17-.57,2.32-.87,3.51-1.74-.31-3.34-.59-4.77-.85-.67,1.85-1.11,3.51-1.86,5.02-4.28,8.7-16.39,10.5-22.84,3.43-2.01-2.21-2.91-4.91-3.47-7.77-.69-.16-1.39-.28-2.06-.48-1.67-.52-2.35-2-3.19-3.33-.75.12-1.5.24-2.5.41-.02.17-.13.73-.13,1.3-.02,2.61-.05,5.23.02,7.84.02.82.36,1.64.56,2.45,1.31,0,2.64-.12,3.93.04.88.11,1.91.43,2.49,1.03.54.56.82,1.62.77,2.43-.07,1.05-1.04,1.21-2.01,1.2-2.97-.03-5.94-.01-9.03-.01-.07-1.31-.14-2.49-.21-3.89-6.13,3.86-11.8,3.66-17.01-1.38-1.31.62-.97,1.92-1.21,2.98,1.79,4.95,4.97,8.9,8.95,12.24,8.66,7.27,18.67,9.46,29.68,7.81,9.59-1.44,17.41-5.95,23.35-13.66.11-.14.12-.35.18-.53-.21-.6-.42-1.21-.63-1.81-.64-.52-1.27-1.04-1.92-1.58q-2.06,1.21-2.71-.33c.58-.52,1.17-1.06,1.77-1.6-.57-.7-1.37-1.26-1.42-1.88-.04-.48.87-1.03,1.36-1.55.63.79,1.07,1.34,1.54,1.94.71-.67,1.33-1.27,1.96-1.86.21-.54.4-1.09.62-1.63,1.27-3.07,2.46-6.22,1.98-9.57-.62-4.35-1.56-8.66-2.46-12.96-.55-2.65-1.26-5.26-1.9-7.9Zm-26.06,51.12c-3.43-5.83-12.3-7.62-17.42-1.37-.15.19-.3.42-.51.52-.35.16-.86.43-1.08.3-.29-.17-.54-.73-.49-1.07.11-.76.35-1.52.66-2.23,3.07-7.02,11.74-7.54,16.64-3.32,2.07,1.78,3.56,3.95,3.7,6.88-.58.12-1.04.21-1.49.3Z" style="fill: #7cb5aa; stroke-width: 0px;"/>
  <path d="m305.26,345.7h5.51c-.69-3.56-1.33-7.04-2.03-10.5-1.53-7.59-3.1-15.17-4.6-22.76-.2-.99-.6-1.45-1.61-1.74-6.39-1.79-10.25-6.1-12.01-12.4-.23-.84-.38-1.73-.38-2.6.03-5.02-.11-10.06.3-15.05.18-2.12,1.27-4.33,2.48-6.15,1.19-1.79,1.79-3.59,2.05-5.64.8-6.28,1.66-12.55,2.44-18.83.07-.59-.13-1.34-.46-1.84-3.85-5.75-7.76-11.47-11.65-17.21-.35-.52-.64-1.09-.95-1.63-.58-.1-1.16-.19-1.74-.29-.35.4-.75.77-1.05,1.21-1.66,2.45-3.2,5-4.97,7.37-3.66,4.92-8.31,8.4-14.48,9.65-4.86.98-9.74.82-14.49-.15-5.99-1.23-11.91-2.88-17.78-4.6-2.98-.87-5.9-2.15-7.69-4.99-.53-.84-.97-1.74-1.46-2.62-.38,1.07-.91,2.11-1.12,3.21-.53,2.86-.47,5.71.58,8.5.39,1.04.81,1.3,1.92.98,6.93-1.98,13.78-1.53,20.52.93.28.1.55.2.82.32.08.03.13.13.42.46-1.66.21-3.14.4-4.94.63.87.76,1.52,1.4,2.24,1.92,4.05,2.94,8.33,5.41,13.28,6.56,11.01,2.56,22.01-3.07,26.25-13.51.8-1.97,1.43-4,2.51-6.08.32,2.1.84,4.19.94,6.31.42,9.24-6.59,17.53-16.19,19.67-9.68,2.15-18.47-.14-26.49-5.69-2.76-1.91-5.3-4.13-7.99-6.15-.43-.32-1.17-.56-1.65-.43-2.3.62-4.55,1.39-6.82,2.1.7.74,1.4,1.47,2.1,2.21.48.32.96.63,1.44.95.36.12.76.17,1.08.36,3.95,2.37,7.89,4.75,11.81,7.15.43.26.74.73,1.18.97,1.35.73,2.74,1.38,4.11,2.07.19.02.38.04.56.06,1.27.58,2.54,1.17,3.81,1.75,1.07.39,2.15.79,3.22,1.18,10.85,3.7,21.56,3.56,32.34-1.76-.16,1.91-.34,3.3-.37,4.69-.13,5.16-.36,10.33-.27,15.49.09,5.07.83,10.05,3.02,14.76,2.25,4.85,5.29,8.93,10.09,11.48,1.49.79,2.46,1.63,2.48,3.64.02,2.6.65,5.19,1.03,7.78.5,3.36,1.02,6.72,1.51,10.08.4,2.74.77,5.48,1.15,8.21Z" style="fill: #5c887b; stroke-width: 0px;"/>
  <path d="m220.71,234.94c.48.87.92,1.77,1.46,2.62,1.79,2.83,4.71,4.12,7.69,4.99,5.87,1.72,11.79,3.37,17.78,4.6,4.76.98,9.64,1.14,14.49.15,6.17-1.25,10.82-4.74,14.48-9.65,1.77-2.37,3.31-4.92,4.97-7.37.3-.44.69-.81,1.05-1.21.2-.89.56-1.65,1.66-1.33,4.04,1.2,8.08,2.42,12.1,3.68,4.9,1.54,9.79,3.12,14.68,4.69.72-2.01,1.44-4.02,2.22-6.18-.72-.21-1.39-.41-2.05-.61-.17-1.79.17-2.17,1.73-1.61,1.35.49,1.76-.15,2.02-1.23-1.09-.69-2.18-1.38-3.27-2.07.03.65.07,1.3.13,2.36-1.09-.66-1.88-1.2-2.73-1.64-.57-.3-1.21-.49-1.81-.72-.62.19-1.5.74-1.81.51-.53-.4-.72-1.28-1.04-1.95-.35.3-.71.6-.88.75-.6-.4-1.11-.75-1.62-1.09-.74.64-1.21.2-1.65-.4-.52-.72-.45-1.34.29-1.85,0-.12,0-.24-.01-.36h0c-.56-.13-1.12-.25-1.68-.38.2-.38.4-.76.6-1.14-3.06-1.49-6.29-2.34-9.7-2.31-1.99.02-3.98.18-5.97.27,0,0,.05-.03.05-.03-.1.02-.2.03-.3.05-2.54,2.7-5.17,5.26-8.52,6.99-6.86,3.54-13.87,4.24-21.13,1.33-.23-.09-.46-.16-.69-.23-.52.51-1.05.99-1.54,1.53-1.47,1.59-2.92,3.2-4.38,4.8-.63.63-1.22,1.3-1.91,1.83-.12.1-1-.4-.99-.58.08-1.12.32-2.23.5-3.35.09-1.13.06-2.19-1.43-2.36-.38.65-.81,1.4-1.67.88-.38-.23-.53-.92-.66-1.43-.06-.23.17-.54.27-.81-.01-.3.04-.62-.05-.89-.55-1.52-1.13-3.02-1.71-4.53-6.55,2.32-12.75,5.22-16.95,11.09-.88,1.23-1.33,2.77-1.98,4.17Z" style="fill: #7cb6aa; stroke-width: 0px;"/>
  <path d="m305.26,345.7c-.38-2.74-.75-5.48-1.15-8.21-.49-3.36-1.01-6.72-1.51-10.08-.38-2.59-1.02-5.18-1.03-7.78-.01-2.01-.98-2.84-2.48-3.64-4.8-2.55-7.84-6.63-10.09-11.48-2.19-4.71-2.93-9.68-3.02-14.76-.09-5.16.14-10.33.27-15.49.04-1.39.22-2.78.37-4.69-10.78,5.32-21.49,5.46-32.34,1.76-.25.22-.47.55-.76.62-.88.24-1.78.38-2.67.56.01.21.03.42.04.63.56.05,1.12.14,1.68.13.53-.01,1.05-.17,1.58-.21,1.47-.14,1.85.21,1.89,1.71,0,.34-.06.7.02,1.02.13.56.33,1.55.54,1.56,1.07.06,2.74.24,3.12-.33.73-1.09,1.51-.93,2.45-1.05.99-.12,1.96-.53,2.95-.62,1.38-.12,3.15-.6,4.08.05,1.17.82,1.91.89,3.11.47.47-.17,1.55.18,1.69.54.43,1.14,1.24,1.1,2.13,1.04,1.32-.08,2.55,0,3.1,1.44h4.03c-.22.67-.46,1.07-.46,1.48,0,2.28.03,2.36-2.15,2.6-1.02.11-1.19.53-1.16,1.39.07,2.13.3,2.37,2.3,3.09.5.18.81.89,1.21,1.35-.39.32-.78.65-1.18.97-.12.1-.27.17-.68.43.69.07,1.08.05,1.42.17.32.11.6.36.9.54-.28.2-.54.47-.86.58-.36.13-.78.11-1.17.16,1.57.3,1.7,1.33,1.58,2.54-.05.48.1,1.01-.04,1.45-.16.53-.57.98-.82,1.48-.24.48-.56.99-.56,1.49,0,.29.55.59.88.87.38.32.78.61,1.17.92-1.41.6-2.62.97-3.85,1.02-1.59.06-3.2-.21-4.79-.23-2.98-.04-5.95-.04-8.93.02-.4,0-.78.48-1.17.74.32.23.63.63.97.65,3.28.24,6.57.43,9.85.61.9.05,1.8,0,2.92,0-.56,1.11-1.12,1.48-2.09,1.34-.86-.12-1.74-.16-2.61-.1-1.98.13-3.96.44-5.94.5-3.34.1-3.72.5-3.11,3.84.03.19.13.37.17.56.19.96-.12,1.51-1.19,1.48-.88-.02-1.77-.1-2.63.04-.45.08-1.02.48-1.22.89-.54,1.14-1.08,2.35.2,3.6-1.13.03-2.02-.14-2.91-.12-2.72.05-5.44.24-8.16.26-5.07.05-10.15.01-15.22.01-1.98,0-2.46-.63-2.05-2.64.3-1.44-.11-1.97-1.61-2.04-.97-.04-1.95,0-2.93,0-.1.49-.2.98-.29,1.46.5,1.61.36,1.75-1.76,1.76-.61.3-1.23.61-1.99.98.63.18,1.17.33,1.7.48.76.03,1.52.07,2.28.1,0,.19,0,.39.01.58l-1.7.19c-.03.42-.06.85-.1,1.52-1.08-1.43-2.27-.88-3.42-.64,0,.12-.02.23-.03.35.3.28.59.57.89.85,1.23-.41,2.32-.5,2.66,1.15.87.3,1.75.59,2.62.89,1.18,0,2.38-.07,3.54.06.57.06,1.1.52,1.64.8.67-1.18,2.15-1.54,3-.42,1.04,1.36,2.12.97,3.34.85.77-.08,1.63-.14,1.67,1.04,5.66.18,11.23-.32,16.74-1.76,2-.52,3.3-1.47,4.26-3.25,2.11-3.92,4.35-7.78,6.53-11.66.1-.15.25-.44.29-.43,1.3.46,2.58.96,3.81,1.42,1.91-1.1,3.87-1.11,5.88-.44,0-.68,0-1.36,0-2.04.13-.25.33-.74.38-.73.68.18,1.33.44,1.99.68-.04.14-.09.27-.13.41-.27-.02-.54-.05-.81-.07.52,3.41,1.02,6.82,1.55,10.23,1.04,6.68,2.1,13.36,3.16,20.03.55,3.46,1.12,6.91,1.7,10.44h18.51Zm-59.42-27.36s0,.08-.01.12c-1.22,0-2.44.03-3.66-.03-.25-.01-.58-.3-.68-.55-.06-.14.21-.53.42-.65.28-.16.65-.22.98-.23,3.65-.11,7.3-.21,10.95-.3.81-.02,1.6-.06,1.63,1.13.02,1.28-.82,1.28-1.68,1.21-2.65-.22-5.3-.47-7.94-.71Zm-17.31,1.48c-.64-.6-1.37-1.16-1.32-1.24.34-.56.85-1.01,1.3-1.5.38.41.98.79,1.07,1.26.06.34-.54.81-1.05,1.49Z" style="fill: #7cb7ab; stroke-width: 0px;"/>
  <path d="m222.93,318.5c-.3-.28-.59-.57-.89-.85-1.46-.59-2.92-1.19-4.38-1.78-1.28-.79-2.55-1.57-3.83-2.36-.39-.48-.77-.95-1.16-1.43-.67-.34-1.43-.57-1.98-1.05-1.07-.95-2.02-2.05-3.02-3.09-.19-.19-.37-.38-.56-.58-.3-.39-.59-.78-.89-1.18h-.03c-.42-.3-.94-.53-1.25-.92-3.6-4.43-6.28-9.33-7.79-14.86-.23-.85-.71-1.62-1.08-2.43-1.29,4.73-1.33,9.53-.54,14.33,2.05,12.36,9.64,20.67,19.92,26.92,3.67,2.23,7.62,3.9,11.84,4.87.52-.62,1.04-1.24,1.69-2.02.38.6.67,1.06.96,1.51q2.17-.75,2.03-3.52c.39-.52.75-.83.9-1.22.16-.43.12-.93.17-1.4.08.02.16.03.23.05.24,1.03.47,2.06.77,3.33-.81,1.22-.13,2.66,2.22,3.25.59-1.83,2.17-3.19,3.48-3.02-.33.35-.67.72-.84.89,1.64.86,3.09,1.61,4.54,2.37.05-.12.1-.24.15-.36-.24-.37-.48-.74-.84-1.31,1.16.23,2.07.41,2.97.6,2.36.49,2.71.25,2.97-2.26.64.15,1.27.29,1.89.44-.16.63-.32,1.27-.48,1.93.97.35,1.97.89,3.01,1.04,1.64.23,3.28,1.47,5.02.14.2-.15.83.25,1.26.39.57-.24,1.32-.46,1.69-.18.39.31.43,1.08.49,1.29-1.07.51-2.01.68-2.48,1.24-.53.63-.68,1.6-.91,2.44-.05.18.26.47.44.68.5.61,1.01,1.21,1.29,1.55,1.04.43,1.91.79,2.78,1.15,2.18-7.97,4.36-15.94,6.53-23.92.24-.88.41-1.78.62-2.68-.01-1.1-.03-2.2-.04-3.3-.09-.4-.17-.79-.26-1.19-.2-1.94-.4-3.89-.6-5.83-2.18,3.88-4.42,7.74-6.53,11.66-.96,1.78-2.25,2.73-4.26,3.25-5.51,1.43-11.08,1.93-16.74,1.76-4.51-.16-8.97-.54-13.2-2.32-.87-.3-1.75-.59-2.62-.89-.89-.38-1.77-.77-2.66-1.15Z" style="fill: #5b877b; stroke-width: 0px;"/>
  <path d="m196.07,287.97c.37.81.85,1.59,1.08,2.43,1.5,5.53,4.19,10.44,7.79,14.86.32.39.83.63,1.25.93.41-.7.81-1.39,1.22-2.09.8-.29,1.58-.79,2.39-.84,3.78-.27,7.56-.41,11.34-.65.42-.03.83-.37,1.24-.57l-.18-.58c-.86,0-1.73.05-2.58-.02-.45-.04-1.13-.14-1.3-.44-.78-1.38-2.02-1.33-3.31-1.31-1.81.03-3.61.03-5.42-.03-.29,0-.58-.36-.87-.56.29-.19.56-.45.89-.55.31-.1.68-.03,1.02-.03,1.81,0,3.61.04,5.42-.02,1.16-.04,2.05-.41,1.94-1.93-.1-1.38-.96-1.53-2-1.56-.44-.01-.9.08-1.31-.02-.45-.11-.86-.4-1.29-.61.5-.21,1.02-.63,1.5-.6,1.32.08,2.49.09,3.36-1.17.24-.34.93-.5,1.42-.51,2.1-.05,4.2-.02,6.29-.03.4,0,.81-.08,1.21-.12.04-.16.07-.31.11-.47-.52-.19-1.03-.49-1.56-.55-.96-.11-1.94-.09-2.92-.12-2.5-.08-5.01-.19-7.51-.24-.9-.02-1.74,0-1.99-1.23.3-.08.52-.18.75-.19,3.88-.21,7.76-.43,11.64-.58,1.18-.05,1.77-.55,1.61-1.71-.18-1.27-1.29-1.2-2.16-1.21-3.42-.05-6.83-.02-10.25-.03-.5,0-1.01-.07-1.51-.1-.04-.19-.09-.38-.13-.57.53-.17,1.06-.47,1.6-.48,3.37-.04,6.73,0,10.1-.03,2.09-.01,2.38-.33,2.38-2.35,0-1.22,0-2.44,0-3.66,0-1.87-.31-2.17-2.23-2.18-1.95-.01-3.91.03-5.85-.03-.42-.01-.82-.39-1.23-.61.39-.18.78-.5,1.18-.51,1.9-.05,3.81-.02,5.71-.03,1.04,0,1.98-.15,2.67-1.15.26-.37,1-.56,1.53-.57,2.1-.06,4.2-.02,6.29-.03.39,0,.79-.09,1.18-.14.02-.14.05-.28.07-.42-.44-.2-.87-.55-1.32-.58-3.68-.24-7.36-.4-11.04-.64-.44-.03-.86-.36-1.29-.55.42-.2.83-.55,1.26-.58,3.68-.24,7.37-.42,11.05-.61,1.15-.06,1.52-.72,1.33-1.78-.06-.33-.25-.68-.2-.99.08-.5.19-1.1.51-1.43.16-.16.94.09,1.26.36.68.58,1.11,1.62,1.86,1.9,1.68.64,2.07,1.78,1.89,3.33-.14,1.22.34,1.72,1.55,1.55.34-.05.69-.04,1.02,0,1.11.12,1.18-.46,1.25-1.4.08-1.03.57-2.02.89-3.03-1.37-.68-2.76-1.34-4.11-2.07-.44-.24-.75-.7-1.18-.97-3.93-2.4-7.87-4.78-11.81-7.15-.32-.19-.72-.24-1.08-.36-.1.57-.14,1.15-.33,1.69-.37,1.08-1.44,1.56-2.43,1.17-1.08-.42-1.45-1.51-1.04-2.61.44-1.19,1.4-1.16,2.36-1.2-.7-.74-1.4-1.47-2.1-2.21-3.01,1.56-6.21,2.83-8.98,4.73-7.06,4.82-12.9,10.88-16.55,18.7-1.46,3.14-2.27,6.58-3.38,9.89Zm20.13-18.43c.2-.1.41-.21.61-.31-.31-.24-.63-.46-.92-.71-.94-.83-1.21-2.35-.61-3.46.65-1.21,2.07-1.86,3.32-1.51,1.4.39,2.04,1.29,2.01,2.82-.04,2.09-1.18,2.96-3.8,2.86-.2.1-.41.21-1.1,2.15-.55-.44-.89-.72-1.24-1.01.3-.35.72-1.04.88-.99.49.17.89.63,1.32.97-.26.28-.53.56-.47-.81Zm-7.35,18.5c.47-.25.95-.49,1.36-.71.49.85.89,1.44,1.18,2.09.44.99-1.16,2.66-2.37,2.47.98-1.03,1.1-2.13.28-3.3.26,2.39-.69,3.17-2.97,2.45-.16-.05-.36.05-.54.07.53,1,1.37,1.96,1.52,3.01.19,1.3-1.54,2.76-2.94,2.88-1.34.11-2.89-1.01-3.3-2.39-.39-1.31.31-2.86,1.79-3.41.81-.3,1.79-.14,2.69-.19.03-.24.09-.47.09-.71.06-2.37.93-3,3.19-2.27Zm4.43-11.78c.02,1.91-1.27,3.25-3.14,3.25-1.85,0-3.35-1.39-3.36-3.14-.01-1.9,1.29-3.27,3.14-3.3,1.99-.04,3.33,1.23,3.36,3.19Zm6.9,4.99c-.49,0-1.01.1-1.45-.03-.39-.12-.69-.51-1.02-.78.35-.31.67-.84,1.05-.89.96-.13,1.96-.12,2.92,0,.34.04.63.55.95.84-.32.29-.6.7-.98.82-.44.14-.97.03-1.45.04Zm-5.47-8.5c-.11.24-.21.47-.32.71-.45-.19-.91-.38-1.36-.58.13-.22.31-.64.39-.63.44.11.86.32,1.29.49Zm2.93-2.43c.06-.06.1-.12.15-.15.03-.02.12,0,.12.01,0,.06,0,.13-.01.19-.08-.01-.16-.03-.26-.05Z" style="fill: #7db6ab; stroke-width: 0px;"/>
  <path d="m309.87,153.23c-.28-2.66-.55-5.33-.84-8.1h11.17c-.49-3.87-.96-7.62-1.45-11.51h10.81c-.73-3.59-1.43-7.01-2.16-10.59h5.17c-1.95-4.72-3.8-9.19-5.62-13.59h-10.56c1.48,4.41,2.93,8.72,4.43,13.2h-17.08c1.06,4.64,2.09,9.13,3.16,13.83h-13.02c-.03.64-.06,1.12-.1,2.01-1.07-1.82-1.95-3.33-2.9-4.94-1.03.72-2.42,1.21-2.85,2.14-.37.8.33,2.11.57,3.25-2.28,1.08-1.57-1.49-2.67-1.95-.87.53-1.86,1.13-2.82,1.71,1.32,3.31,2.63,6.59,3.97,9.97.91-.32,1.76-.63,2.48-.88.6-1.1-1.61-2.53.35-3.02,1.54-.39.77,1.64,1.56,2.26q2.68-.32,2.08-2.83c-.15-.65-.3-1.3-.47-2.06.52-.17.96-.32,1.61-.54.4,1.36.78,2.65,1.21,4.11.76-.11,1.55-.23,2.45-.36.16.65.32,1.29.51,2.09-.78.19-1.5.37-2.27.55.15,1.2.28,2.35.42,3.49.5.44,1.02.85,1.49,1.32.83.85,1.62,1.73,2.42,2.6-.26-1.17.34-1.56,1.12-1.85h0q1.3-1.53,2.47.05c.14.18.38.31.59.41,1.16.51,1.64.05,2.11-2.24.07.72.11,1.1.16,1.55.54-.45.95-.8,1.47-1.23.28.32.65.74,1.02,1.15Zm-4.31-.58c-.18-.19-.35-.38-.53-.57l.35-.18c.06.25.12.5.18.75.15.09.3.19.45.28-.06.06-.11.11-.17.17-.09-.15-.19-.3-.28-.45Zm-6.39-.62c.13-.04.26-.07.38-.11.23.59.47,1.19.7,1.78-.11.04-.23.09-.34.13-.25-.6-.5-1.21-.75-1.81Zm1.7.39c.14-.08.24-.14.35-.2.06.11.18.23.16.33-.01.09-.17.15-.27.23-.07-.1-.14-.21-.24-.36Zm5.64-.82c.03.07.11.16.09.22-.02.05-.15.11-.21.09-.05-.02-.11-.15-.09-.2.02-.05.14-.07.21-.1Z" style="fill: #e8e9e4; stroke-width: 0px;"/>
  <path d="m346.27,244.61c-.43.38-.86.75-1.38,1.21-.53-.31-1.1-.64-1.76-1.03.35-.76.68-1.48,1.01-2.21-2.95-1.77-5.89-3.56-8.87-5.29-2.09-1.21-4.23-2.34-6.35-3.51-1.01,1.16-1.69-.23-2.53-.32-.31.86-.39,2.15-.99,2.47-.57.3-1.68-.4-2.55-.67-.59.19-1.18.39-1.77.58q-1.36,1.77.58,3.23c-.12.43-.25.88-.38,1.34.35.3.65.67,1.04.87,1.25.62,2.52,1.21,3.82,1.72.66.26,1.39.31,2.09.45.32-.7.64-1.39,1-2.18.68.45,1.07.71,1.62,1.07.51-1.02,1-1.98,1.51-3.01.7.27,1.28.49,1.95.75-.22.52-.36.99-.61,1.38-.76,1.16-1.1,2.18.53,2.94.18.09.11.71.16,1.09,1.6,1.02,3.2,2.04,5.09,3.25-.71.37-1.18.62-1.66.87-1.36,1.03-2.66,2.13-4.08,3.07-10.18,6.72-20.41,13.36-30.54,20.15-2.03,1.36-3.83,3.13-5.49,4.93-.77.83-1.32,2.19-1.34,3.32-.09,5.65-.04,11.31.15,16.96.04,1.06.9,2.1,1.39,3.15.14-.23.27-.46.31-.53.52-.02,1-.05,1.47-.07,0,0,0,0,0,0-.04-.44-.08-.88-.12-1.34,1.01.02,1.85,1.38,2.79.1-.44-1.77-.19-2.07,1.63-1.87.13-.41.35-.82.37-1.23.22-4.08.46-8.15.6-12.23.16-4.76.08-4.84,4.26-7.22,3.76-2.14,7.63-4.09,11.45-6.11,3.48-1.84,7-3.61,10.43-5.52,5-2.79,10.07-5.49,14.87-8.6,3-1.94,5.05-4.91,5.88-8.54-.6-.49-1.15-1.06-1.8-1.44-1.23-.71-2.53-1.32-3.8-1.97Z" style="fill: #7db6ab; stroke-width: 0px;"/>
  <path d="m281.99,136.93c.42-.31.77-.57,1.11-.82,2.23-1.62,2.03-1.08.5-3.31.33-.56.56-1.48,1.49-.75.54.42.83,1.17,1.28,1.84,1.09-.75,2.12-1.45,3.44-2.35-2.1-2.72-4.1-5.31-6.16-7.98-.7.46-1.25.82-1.96,1.29.34.53.76,1.01.97,1.57.12.31.01.89-.22,1.08-.19.16-.81.06-1.06-.14-.47-.4-.8-.95-1.25-1.51-.94.73-1.85,1.44-2.73,2.13-.47-.52-.88-.96-1.34-1.46.91-.77,1.87-1.58,2.91-2.45-.43-.46-.87-.8-1.13-1.24-.2-.33-.17-.79-.24-1.19.5,0,1.09-.19,1.46.02.47.26.77.84,1.24,1.4.39-.34.77-.68,1.27-1.13-2.73-2.69-5.89-4.64-9.22-6.44-.38.4-.73.79-1.39,1.49.56.41,1.17.75,1.6,1.24.17.2.06.81-.13,1.1-.1.16-.79.19-.93.03-1.28-1.43-2.47-1.52-3.64.24-.51-.38-.91-.69-1.48-1.12,1.27-1.35,2.48-2.64,3.89-4.12-3.27-1.19-6.34-2.31-9.38-3.42-1.42,2.7-1.37,3.15.39,4.2-.05,1.06-.5,1.48-1.58,1.04-.9-.37-1.84-.64-2.72-1.06-.38-.18-.63-.64-.95-.97.43-.25.85-.52,1.28-.76.12-.06.28-.05.49-.08.26-.91.52-1.83.86-3.01-3.4-.54-6.69-1.05-10.11-1.59-.02,1.23-1.21,2.46.63,3.2.12.05.18.62.05.78-.17.21-.58.41-.83.35-1.23-.25-2.44-.58-4.05-.99.59-.68.99-1.15,1.39-1.62.12.08.23.16.35.24.06-.56.12-1.13.2-1.92-2.7.18-5.3.36-7.76.52-.47,1.16-.88,2.16-1.3,3.19,2.65.46,5.68.86,8.66,1.52,8.05,1.79,15.94,4.05,22.83,8.85,4.49,3.12,8.3,6.92,11.38,11.44.6.88,1.23,1.74,1.88,2.65Z" style="fill: #e7e7e3; stroke-width: 0px;"/>
  <path d="m269.79,313.21c.01,1.1.03,2.2.04,3.3.29-.67.57-1.35.88-2.01.17-.35.4-.68.61-1.01.18.68.37,1.37.55,2.05.34-.77.67-1.53,1.08-2.47.14.33.25.46.24.57-.24,1.94-.45,3.89-.79,5.81-.05.31-.7.51-1.08.77-.5,8.07-1,16.15-1.49,24.22-.02.34,0,.68,0,1.16h9.8c0-.92,0-1.92,0-2.92-.07-7.07-.14-14.14-.23-21.2,0-.43-.1-.86-.15-1.29-.11-.5-.32-.99-.32-1.49-.03-3.99-.02-7.97-.02-11.96-2.01-.67-3.97-.67-5.88.44-1.23-.47-2.52-.96-3.81-1.42-.04-.01-.19.28-.29.43.2,1.94.4,3.89.6,5.83.18-.14.44-.23.53-.41.67-1.37.73-1.38,1.79.07-.68.51-1.37,1.02-2.05,1.53Z" style="fill: #7eb5aa; stroke-width: 0px;"/>
  <path d="m262.69,343.1c-.87-.36-1.74-.72-2.78-1.15-.28-.34-.79-.94-1.29-1.55-.17-.22-.49-.51-.44-.68.23-.85.38-1.82.91-2.44.47-.56,1.41-.73,2.48-1.24-.07-.21-.1-.98-.49-1.29-.36-.28-1.12-.06-1.69.18-.43-.14-1.06-.55-1.26-.39-1.73,1.33-3.37.09-5.02-.14-1.05-.15-2.04-.69-3.01-1.04.17-.66.32-1.29.48-1.93-.62-.14-1.24-.29-1.89-.44-.27,2.51-.61,2.75-2.97,2.26-.9-.19-1.81-.36-2.97-.6.36.57.6.94.84,1.31-.05.12-.1.24-.15.36-1.45-.76-2.9-1.51-4.54-2.37.16-.17.5-.53.84-.89-1.32-.17-2.89,1.19-3.48,3.02-2.35-.6-3.03-2.04-2.22-3.25-.29-1.27-.53-2.3-.77-3.33-.08-.02-.16-.03-.23-.05-.05.47,0,.97-.17,1.4-.14.39-.5.7-.9,1.22q.14,2.77-2.03,3.52c-.28-.45-.58-.91-.96-1.51-.65.78-1.17,1.4-1.69,2.02,3.33.57,6.65,1.14,9.98,1.72,1.24-1.35,3.5-1.25,4.13.18.88-.01,1.76-.03,2.64-.04.31-.26.57-.61.93-.76.51-.22,1.09-.31,1.89-.52-.43.51-.75.9-1.07,1.29.55.08,1.11.15,1.72.24-2.3,4.02-17.98,5.85-26.6,3.24.4.82,1.43,1.6.22,2.34.63.39,1.21.76,1.86,1.17.13-.16.31-.37.42-.5.67.37,1.31.72,1.87,1.03.05.62.09,1.19.13,1.67h-4.31c.03-.05.17-.35.32-.64l-.4-.24c-.34.48-.67.97-1.01,1.45,3.23,0,6.45-.01,9.68-.02,1.29-.09,2.59-.24,3.88-.25,5.22-.03,10.44,0,15.67-.03.56,0,1.12-.23,1.69-.28,1.48-.11,2.96-.27,4.44-.22,1.28.04,2.56.32,3.83.52.42.06.83.18,1.24.28.2,0,.39,0,.59,0-.24-.58-.47-1.15-.8-1.95.75.15,1.05.21,1.32.26-.07.56-.15,1.12-.22,1.68.3-.36.6-.72.9-1.08.08-.12.16-.24.24-.36.07-.39.15-.77.22-1.16Zm-35.79,1.67c-.16-.01-.32-.02-.48-.03v-2.17c.2.01.4.02.61.03l-.13,2.18Zm11.44-11.88c-.07.03-.16.1-.21.08-.05-.02-.07-.13-.1-.21.07-.03.16-.11.21-.08.05.02.07.13.1.21Zm20.47,12.01c.03-.07.04-.19.09-.21.05-.02.14.05.22.07-.03.07-.04.19-.09.21-.05.02-.14-.05-.22-.07Z" style="fill: #588477; stroke-width: 0px;"/>
  <path d="m182.37,220.47c-.96-1.71-1.9-3.43-2.89-5.12-1.46-2.51-2.96-4.99-4.46-7.52,2.21-2.6,3.66-5.46,4.17-8.8.77-5-1.42-10.37-5.57-12.79-1.26-.73-2.79-1.13-4.25-1.35-2.21-.33-3.98.55-5.15,2.55-1.16,1.98-2.45,3.87-3.59,5.85-.95,1.64-.4,3.42,1.22,4.4,1.79,1.08,4.02.82,4.95-.75,1.14-1.92,2.1-3.94,3.16-5.95,1.16.47,2.22.9,3.57,1.44-1.71,3.19-3.43,6.35-5.08,9.54-.27.52-.29,1.19-.31,1.8-.05,1.39-.04,2.78-.05,4.17.41-.32,1.13-.6,1.18-.97.1-.78-.22-1.59-.25-2.4-.02-.52.02-1.32.33-1.52,1.1-.72,1.5-1.46.56-2.58.42-.34.76-.62,1.48-1.2-.33,1.56-.8,2.72-.75,3.86.05,1.08-1.36,2.25.15,3.07.67-.06,1.72-.1,1.83.2.4,1.08.48,2.28.68,3.44-.41.2-.83.41-1.24.61.3,1.46.58,2.8.81,3.91.54.47,1.02.8,1.37,1.24.35.43.58.97.87,1.46.28-.48.55-.97.84-1.44.03-.05.17-.03.27-.04.51,1.38,1.16,2.74,1.49,4.16.26,1.12.17,2.04,1.82,2.17,1.44.11,2.15-.47,2.86-1.44Zm-1.54-.89l.09.22c-.07.03-.16.1-.21.08-.05-.02-.11-.15-.09-.2.02-.05.13-.07.21-.1Z" style="fill: #7fb5aa; stroke-width: 0px;"/>
  <path d="m351.86,248.02c-.83,3.63-2.88,6.6-5.88,8.54-4.8,3.11-9.87,5.81-14.87,8.6-3.44,1.91-6.95,3.68-10.43,5.52-3.82,2.02-7.69,3.97-11.45,6.11-4.18,2.38-4.09,2.46-4.26,7.22-.14,4.08-.38,8.15-.6,12.23-.02.42-.24.82-.37,1.23-.02.7-.04,1.39-.07,2.09.73,1.94,2.36,1.24,3.74,1.28.21-3.45.44-6.9.63-10.36.16-2.87.33-5.75.4-8.62.02-.61-.38-1.23-.67-2.1,1.58-.8,3.31-1.74,5.09-2.57,10.06-4.71,20.15-9.36,30.19-14.11,3.33-1.58,6.75-3.1,9.31-5.92,2.98-3.28,3.04-7.88.14-10.8-.31.55-.61,1.11-.92,1.66Z" style="fill: #5e897c; stroke-width: 0px;"/>
  <path d="m182.37,220.47c-.7.97-1.42,1.55-2.86,1.44-1.65-.13-1.56-1.05-1.82-2.17-.33-1.42-.98-2.78-1.49-4.16-.1.01-.24,0-.27.04-.29.47-.56.96-.84,1.44-.28-.49-.51-1.03-.87-1.46-.36-.43-.84-.77-1.37-1.24-.23-1.12-.51-2.46-.81-3.91.41-.2.83-.41,1.24-.61-.2-1.15-.28-2.35-.68-3.44-.11-.3-1.16-.25-1.83-.2-1.51-.83-.1-2-.15-3.07-.05-1.14.42-2.3.75-3.86-.72.59-1.06.86-1.48,1.2.94,1.12.54,1.86-.56,2.58-.31.21-.35,1-.33,1.52.02.8.34,1.62.25,2.4-.05.37-.76.65-1.18.97,0,0,0,0,0,0-.43,1.42-.86,2.84-1.3,4.32,1.18-.24,2.62-.54,4.06-.84.04.17.08.34.11.5-.84.81-1.56,1.59-3.07,1.17-1.95-.55-3.2.56-2.94,2.29.19-.02.38-.05.57-.07.2-.08.4-.16.6-.24l.13-.02.13.03c.51-.41.76-.44,1.14.25.87,1.59,1.64,3.24,2.4,4.88.27.58.4,1.23.59,1.85.09,1.92.99-.31,1.43.42-.15.27-.34.61-.4.71.29,1.43,2.84.54,2.33,2.71,0,.03.16.15.22.14,1.14-.23.84.77,1.12,1.29,1.65,2.35,3.31,4.7,4.96,7.05.18.47.37.95.6,1.55.36-.27.62-.46.87-.65.38-.44.75-.88,1.16-1.36-.11-.16-.3-.41-.28-.39.33-.69.75-1.17.74-1.63-.03-.92-.3-1.84-.47-2.76.15.03.3.05.45.08.25-.61.79-1.29.67-1.83-.14-.61-.86-1.08-1.54-1.86v-5.06Zm-11.91-13.19c.54.74.96,1.1,1.05,1.53.05.22-.48.57-.74.86-.28-.32-.69-.61-.81-.99-.08-.28.22-.67.5-1.41Zm.47,7.11c.07-.03.15-.06.22-.09.03.07.1.16.08.21-.02.05-.13.07-.21.1-.03-.07-.06-.15-.09-.22Z" style="fill: #7ab6a8; stroke-width: 0px;"/>
  <path d="m276.45,199.8c-5.08,8.62-11.18,15.65-20.91,18.8,7.78,3.09,16.76.99,22.87-5.21q2.89-2.93,1.18-6.67c-1-2.2-2-4.41-3.14-6.92Z" style="fill: #587f74; stroke-width: 0px;"/>
  <path d="m221.82,168.68c-1.42-.87-2.79-1.71-4.23-2.59-2.68,3.09-3.39,6.6-2.18,10.37,1.16,3.61,3.79,5.83,7.5,6.64,2.37.52,4.63.15,6.78-1.02,2.48-1.35,4.13-3.15,3.82-6.24-.12-1.2-.02-2.42-.02-3.72-.6-.12-1.25-.25-1.91-.38-.23,3.37-1.77,5.59-4.42,6.36-1.94.56-4.69-.38-5.9-2.03-1.55-2.1-1.38-4.54.56-7.39Z" style="fill: #f7b0c3; stroke-width: 0px;"/>
  <path d="m157.6,187.79c2.19.02,4.07-1.89,3.82-3.99-.05-.43-.82-1.01-1.35-1.12-2.91-.6-5.84-1.09-8.76-1.6-4.41-.76-8.82-1.55-13.25-2.21-.9-.14-1.94.04-2.79.38-.99.4-1.58,1.29-1.38,2.49.19,1.16.78,2.03,1.96,2.29,1.9.42,3.81.76,5.72,1.1,5.13.89,10.26,1.75,15.39,2.62.24.04.49.04.65.05Z" style="fill: #7fb5aa; stroke-width: 0px;"/>
  <path d="m268.64,141.69c-.12,1.14-.23,2.28-.37,3.61,2.29.16,4.35.3,6.74.47-2.91-6.65-6.98-12.05-12.2-16.81v5.22c-2.89,0-5.55,0-8.21,0,.09,1.64.13,3.29.33,4.91.04.35.62.88.99.92,1.82.19,3.66.24,5.49.34,1.88.1,3.77.14,5.64.36.56.07,1.06.65,1.59,1Z" style="fill: #5c887b; stroke-width: 0px;"/>
  <path d="m290.57,189.62c3.26-.07,5.6-1.56,7.11-4.36,1.56-2.9,1.52-5.82-.29-8.57-2.64-4.02-8.52-3.79-10.68.58-1.23,2.49-1.75,5.33-2.51,8.04-.1.37.15.94.4,1.3,1.47,2.05,3.51,3,5.97,3.02Zm4.54-7.83c-.15.78-.15,1.64-.47,2.34-.97,2.16-2.6,2.59-4.61,1.34-.64-.2-1.33-.32-1.9-.63-.3-.17-.66-.77-.57-1.03.5-1.41.97-2.87,1.76-4.11.46-.72,1.44-1.38,2.29-1.53,2.26-.41,3.32.79,3.49,3.63Z" style="fill: #7eafa5; stroke-width: 0px;"/>
  <path d="m274.79,150.63c.64,2.63,1.35,5.25,1.9,7.9.89,4.31,1.84,8.61,2.46,12.96.47,3.34-.71,6.5-1.98,9.57-.22.54-.41,1.09-.62,1.63.42.51.83,1.02,1.24,1.51q-2.26,2.23-.8,4.19c-.33.38-.68.77-1.02,1.16.21.6.42,1.21.63,1.81,2.51-3.09,3.7-6.8,4.94-10.49,1.31-3.93.79-7.91.28-11.87-.83-6.49-2.28-12.84-4.53-19-.15-.41-.32-.82-.5-1.22-.03-.07-.15-.1-.35-.22-.31.88.08,2.41-1.64,2.06Z" style="fill: #61897f; stroke-width: 0px;"/>
  <path d="m302.05,153.53c-.77.29-1.37.68-1.12,1.85-.8-.87-1.59-1.75-2.42-2.6-.46-.47-.99-.88-1.49-1.32-.48.04-.97.08-1.53.12-.28-.98-.56-1.94-.84-2.92-.81.22-1.5.41-2.32.63.03.64.15,1.27.07,1.87-.05.41-.37.78-.57,1.17-.33-.31-.73-.57-.96-.94-.21-.36-.24-.83-.4-1.46-.92.21-1.83.41-2.84.64.43,2.34.83,4.55,1.23,6.75,1.88,0,.86-1.75,1.45-2.6.71.36.34,3.01,1.87,1.03.23.26.42.69.69.74,1.26.24,2.12,1.22,2.13,2.59h0c.28,0,.56,0,.83,0v-3.26h1.67c.53,1.22-.35,2.86.81,3.86.15-.03.3-.06.45-.1.1-1.09.2-2.19.3-3.31h11.2c-.14-1.08-.27-2.07-.4-3.07-.37-.42-.74-.83-1.02-1.15-.52.43-.93.78-1.47,1.23-.05-.46-.09-.84-.16-1.55-.47,2.29-.96,2.74-2.11,2.24-.22-.1-.46-.23-.59-.41q-1.18-1.58-2.47-.05s.04.07.06.11c-.02-.04-.04-.07-.06-.11Zm-10.26,1.17c.03-.11.07-.22,0,0,.14-.19.07-.1,0,0-.09.07-.19.14,0,0-.23.07-.12.04,0,0Zm3.41,1.31c-.04.1-.09.21-.13.31-.13-.1-.26-.21-.39-.31h.52Zm13.72-2.87c0,.06.01.12.02.18-.02-.03-.06-.05-.07-.08,0-.03.03-.06.05-.1Z" style="fill: #d8dcd4; stroke-width: 0px;"/>
  <path d="m283.82,216.48c1.99-.1,3.98-.25,5.97-.27,3.41-.04,6.64.82,9.7,2.31,4.07,1.97,8.15,3.94,12.22,5.92,1.09.69,2.18,1.38,3.27,2.07.54-.84,1.09-1.69,1.76-2.73-5.08-2.53-10.1-5.09-15.17-7.54-4.22-2.03-8.69-3.03-13.4-3.04-1.51,0-2.75.2-3.45,1.72-.25.54-.6,1.05-.9,1.57Z" style="fill: #e6eae3; stroke-width: 0px;"/>
  <path d="m239.64,219.68c.57,1.51,1.16,3.01,1.71,4.53.1.27.04.59.05.89,1.13-.22,1.95.04,2.07,1.36,1.49.17,1.52,1.23,1.43,2.36.41.26.85.49,1.21.8.44.39.8.86,1.19,1.29,1.46-1.6,2.91-3.21,4.38-4.8.49-.53,1.03-1.02,1.54-1.53-3.04-1.73-5.39-4.1-6.76-7.66-2.36.95-4.59,1.85-6.83,2.75Z" style="fill: #5c887b; stroke-width: 0px;"/>
  <path d="m223.62,131.9c.06-.28.15-.57.16-.85.11-2.09.21-4.18.13-6.36-4.8,5.02-8.22,10.86-10.45,17.37,1.46,1.2,1.55-.74,2.38-.8.65.96,2.42,1.54,3.39,1,.3-.17.48-.8.46-1.21-.07-1.15.28-1.79,1.53-1.67.19-.7.36-1.4.59-2.08.59-1.8,1.21-3.59,1.82-5.39Z" style="fill: #5c887b; stroke-width: 0px;"/>
  <path d="m268.64,141.69c-.53-.35-1.03-.93-1.59-1-1.87-.22-3.76-.26-5.64-.36-1.83-.1-3.67-.15-5.49-.34-.37-.04-.95-.56-.99-.92-.19-1.63-.23-3.27-.33-4.91-.02-.18-.04-.37-.06-.55-.51.11-1.02.22-1.53.33-.05.1-.1.21-.16.31,0,1.2,0,2.4,0,3.54-.88.2-1.49.33-2.1.47-.18.79-.37,1.57-.55,2.36v3.22c2.28.12,4.48.24,6.55.35.87-1.06-.49-3.61,2.39-2.84v3.04c2.35.19,4.64.37,6.89.55.27-1.16.38-2.23.81-3.14.12-.26,1.18-.08,1.8-.1Z" style="fill: #7eafa5; stroke-width: 0px;"/>
  <path d="m250.76,138.26c.61-.14,1.22-.27,2.1-.47,0-1.14,0-2.34,0-3.54-.51.03-1.02.07-1.53.1-.08.18-.16.36-.25.53-.1-.17-.21-.33-.31-.5-4.69-.04-9.38-.07-14.08-.11-.09,0-.17,0-.26,0-.31,0-.61-.02-.92-.03,0,1.36.05,2.71.01,4.07-.03.88.32,1.14,1.19,1.19,1.47.09,2.93.36,4.39.55.19,0,.39,0,.58,0,.1-.47.11-.98.33-1.39.2-.38.62-.92.93-.91,2.6.11,5.2.32,7.81.51Z" style="fill: #5e897c; stroke-width: 0px;"/>
  <path d="m225.29,141.78c.26.28.51.8.78.81,1.49.08,2.98.04,4.55.04.09-.72.19-1.46.3-2.31.64,0,1.21,0,1.78,0,.18-.32.45-.63.52-.97.33-1.71.6-3.43.9-5.15h-.14s-.14,0-.14,0c-2.48,0-4.97-.01-7.45,0-.52,0-1.05.1-1.57.16.16,2.47.32,4.94.48,7.41Z" style="fill: #5c887b; stroke-width: 0px;"/>
  <path d="m307.67,300.85c-1.38-.04-3.01.66-3.74-1.28-.52-.07-1.04-.14-1.56-.21-.93,1.28-1.78-.08-2.79-.1.04.46.08.9.12,1.34.07.09.14.19,0,0,.07.23.04.12,0,.01-.48.02-.95.05-1.47.07-.04.06-.17.3-.31.53,1.84,3.08,4.82,4.32,8.15,4.93,1.09.2,2.22.18,3.32.26.48.02.96.03,1.44.05.3.01.59.02.89.03.26-.98.52-1.95.84-3.16-.72.18-1.01.25-1.75.44.52-.97.86-1.6,1.19-2.23-1.44-.22-2.88-.45-4.33-.67Z" style="fill: #7eafa5; stroke-width: 0px;"/>
  <path d="m164.03,205.07c.02-1.72-.41-2.25-2.09-2.57-3.01-.58-6.02-1.15-9.03-1.73-1.87-.36-3.1.29-3.4,1.82-.27,1.4.75,2.49,2.62,2.83,3.2.59,6.39,1.23,9.6,1.76,1.59.26,2.28-.45,2.3-2.1Z" style="fill: #7eafa5; stroke-width: 0px;"/>
  <path d="m311.06,236.12c-4.89-1.57-9.78-3.15-14.68-4.69-4.02-1.26-8.06-2.48-12.1-3.68-1.1-.33-1.46.44-1.66,1.33.58.1,1.16.19,1.74.29,8.61,3.01,17.23,6.02,26.02,9.09.26-.89.47-1.61.68-2.33Z" style="fill: #5e897c; stroke-width: 0px;"/>
  <path d="m319.93,306.98c2.13.15,4.26.3,6.53.47,1.02-3.57,2.01-7.05,3.06-10.73-1.49-.17-2.77-.38-4.05-.43-.25-.01-.64.52-.77.87-.48,1.33-.84,2.7-1.32,4.02-.17.46-.55.83-.84,1.25-.18.45-.33.91-.54,1.35-.28.59-.86,1.16-.86,1.74,0,.97-.52,1.23-1.22,1.46Z" style="fill: #61897f; stroke-width: 0px;"/>
  <path d="m312.89,291.89c-.14,1.95-.28,3.76-.43,5.82,2.25.21,4.36.42,6.47.56.24.02.66-.37.74-.64.6-2.1,1.19-4.2,1.65-6.33.07-.34-.43-1.13-.76-1.19-1.69-.3-3.3-.25-4.27,1.6-.16.31-.83.47-1.27.48-.66.01-1.32-.17-2.14-.29Z" style="fill: #61897f; stroke-width: 0px;"/>
  <path d="m328.91,233.79c2.12,1.17,4.26,2.3,6.35,3.51,2.98,1.73,5.92,3.52,8.87,5.29.44-.68.89-1.37,1.38-2.14-4.99-3.01-9.89-5.97-14.98-9.04-.56.82-1.09,1.6-1.62,2.37Z" style="fill: #e5e8e2; stroke-width: 0px;"/>
  <path d="m293.57,162.05c-.36.57-.66,1.04-1.11,1.74-.31-.78-.48-1.21-.67-1.67-.84.1-1.65.19-2.56.29v6.24c2.97-.78,6.04-1.59,9.3-2.45.08-1.25.18-2.73.28-4.25q-.88.15-1.5,3.15c-.49-.05-.99-.11-1.52-.16v-2.89h-2.22Z" style="fill: #a9b8b1; stroke-width: 0px;"/>
  <path d="m181.63,235.29c-.25.19-.51.38-.87.65-.23-.6-.42-1.07-.6-1.55-1.46-.86-2.91-1.72-4.36-2.6-.08-.05-.09-.2-.12-.27-.28.24-.52.44-.87.73-.35-.74-.59-1.43-.99-2-.2-.28-.7-.35-1.06-.51,1.07,2.34,2.15,4.69,3.22,7.03,1.37-.75.88.85,1.11.96.76-.26,1.28-.46,1.81-.59.12-.03.3.17.45.27-.32.37-.59.68-.8.92.57.67,1.06,1.26,1.62,1.92.27-.19.58-.41.88-.63-.23-.3-.47-.61-.63-.81,2.96-2.37,5.86-4.7,8.77-7.03-.16-.23-.31-.46-.47-.68-.74.5-1.44,1.04-2.21,1.48-1.61.93-3.25,1.81-4.88,2.71Z" style="fill: #5e897c; stroke-width: 0px;"/>
  <path d="m220.02,345.7c.34-.48.67-.97,1.01-1.45l.4.24c-.15.29-.29.59-.32.64h4.31c-.04-.48-.08-1.05-.13-1.67-.56-.31-1.2-.66-1.87-1.03-.11.13-.29.34-.42.5-.65-.41-1.23-.77-1.86-1.17,1.21-.75.18-1.52-.22-2.34-2-.7-4.01-1.4-6.24-2.18.91,3,2.13,5.67,3.77,8.12.22.32,1.04.24,1.58.34Z" style="fill: #587f74; stroke-width: 0px;"/>
  <path d="m152.18,209.33c-1.25-.03-2,.66-2.33,1.7-.37,1.17-.04,2.47,1.1,2.86,1.95.67,4.01,1.13,6.06,1.33,1.15.11,1.91-.97,1.99-2.13.08-1.16-.24-2.31-1.56-2.64-1.74-.44-3.51-.75-5.26-1.12Z" style="fill: #7eafa5; stroke-width: 0px;"/>
  <path d="m250.76,138.26c-2.6-.18-5.2-.4-7.81-.51-.31-.01-.73.53-.93.91-.21.41-.23.92-.33,1.39.3.35.77.66.85,1.05.14.64.04,1.33.04,2.11,1.88.13,3.61.25,5.42.38.43-1.27-.62-3.65,2.2-2.97.18-.79.37-1.57.55-2.36Z" style="fill: #71a799; stroke-width: 0px;"/>
  <path d="m181.63,235.29c1.63-.9,3.27-1.78,4.88-2.71.77-.44,1.48-.98,2.21-1.48-2.12-3.53-4.24-7.05-6.36-10.58,0,1.81,0,3.62,0,5.01.68.78,1.4,1.25,1.54,1.86.12.53-.42,1.21-.67,1.83-.15-.03-.3-.05-.45-.08.17.92.44,1.84.47,2.76.01.46-.41.94-.74,1.63-.02-.02.17.23.28.39-.41.48-.79.92-1.16,1.36Zm3.83-6.5l.36-.17c.14.29.27.57.41.86l-.38.17c-.13-.29-.26-.58-.4-.86Z" style="fill: #7fb5aa; stroke-width: 0px;"/>
  <path d="m234.11,134.2c-.29,1.72-.57,3.44-.9,5.15-.07.34-.34.65-.52.97.03.6.06,1.19.09,1.79.04.19.08.38.11.58,2.47.16,4.95.32,7.23.47.38-1.21.68-2.16.98-3.11-1.46-.19-2.92-.47-4.39-.55-.87-.05-1.21-.31-1.19-1.19.04-1.35,0-2.71-.01-4.07-.04-.3-.08-.6-.12-.89-.43.28-.86.57-1.29.85Z" style="fill: #7eafa5; stroke-width: 0px;"/>
  <path d="m322.84,235.27c.87.26,1.98.97,2.55.67.6-.32.68-1.6.99-2.47.07-.3.15-.59.22-.89-2.33-1.35-4.64-2.73-7-4.02-.5-.28-1.18-.23-1.78-.34,0,0,.05-.02.05-.02-.13.11-.26.21-.4.32.15.24.24.6.45.7,1.21.55,1.39,1.38.8,2.49.39.49.79.99,1.3,1.63.43-.72.68-1.15.78-1.3.39.47.71,1.22,1.22,1.39,1.1.36,1.15.96.81,1.84Z" style="fill: #7ab6a8; stroke-width: 0px;"/>
  <path d="m155.66,197.31c.18-1.8.34-3.37.53-5.29-1.41-.19-3.12-.62-4.8-.53-.67.04-1.71,1.19-1.79,1.93-.09.81.49,2.19,1.17,2.52,1.52.73,3.28.95,4.89,1.36Z" style="fill: #7eafa5; stroke-width: 0px;"/>
  <path d="m189.2,231.78c-2.9,2.33-5.81,4.66-8.77,7.03.16.21.39.51.63.81.2,0,.39,0,.59-.01,3.14-1.55,6.29-3.1,9.43-4.65-.62-1.06-1.25-2.12-1.87-3.18Z" style="fill: #7eb5aa; stroke-width: 0px;"/>
  <path d="m317.82,228.23c.6.1,1.28.06,1.78.34,2.36,1.29,4.67,2.67,7,4.02.45-.8.91-1.6,1.43-2.52-2.77-1.6-5.51-3.19-8.4-4.86-.61,1.03-1.21,2.03-1.81,3.04Z" style="fill: #e5e8e2; stroke-width: 0px;"/>
  <path d="m225.29,141.78c-.16-2.47-.32-4.94-.48-7.41-.84,0-1.24-.4-1.17-1.25,0-.13,0-.26,0-.39,0-.28,0-.55,0-.83-.61,1.8-1.23,3.59-1.82,5.39-.23.68-.39,1.39-.59,2.08.21.35.53.68.59,1.06.1.6.03,1.23.03,1.97,1.24-.08,2.49.61,3.46-.63Z" style="fill: #7fb5aa; stroke-width: 0px;"/>
  <path d="m312,301.52c-.34.63-.67,1.26-1.19,2.23.74-.18,1.03-.26,1.75-.44-.32,1.21-.58,2.18-.84,3.16,1.39.08,2.78.17,4.16.25.29-.37.52-.81.87-1.08.91-.71.66-1.29-.12-1.82-.31-.21-.71-.27-.93-.35.59-.45,1.24-.95,1.9-1.44-1.87-.17-3.73-.33-5.6-.5Z" style="fill: #71a799; stroke-width: 0px;"/>
  <path d="m181.64,239.61c-.2,0-.39,0-.59.01-.31.22-.61.44-.88.63-.56-.67-1.06-1.25-1.62-1.92.2-.23.48-.55.8-.92-.15-.1-.33-.3-.45-.27-.53.13-1.05.34-1.81.59-.23-.11.26-1.71-1.11-.96,1.3,2.77,2.59,5.54,3.93,8.38,1.38-1.11,2.63-2.11,3.88-3.11-.96-.6-2.31-.85-2.14-2.44Z" style="fill: #587f74; stroke-width: 0px;"/>
  <path d="m181.64,239.61c-.17,1.59,1.18,1.84,2.14,2.44,2.46-1.82,4.91-3.63,7.37-5.45.81-.59.52-1.12-.09-1.64-3.14,1.55-6.29,3.1-9.43,4.65Z" style="fill: #5e897c; stroke-width: 0px;"/>
  <path d="m317.6,302.02c-.65.5-1.3.99-1.9,1.44.22.08.62.15.93.35.78.53,1.03,1.11.12,1.82-.36.28-.59.72-.87,1.08.86.05,1.72.09,2.59.14.05-.07.1-.14.15-.21l.11.26c.4.03.8.06,1.2.09.7-.24,1.23-.49,1.22-1.46,0-.58.58-1.15.86-1.74.21-.44.36-.9.54-1.35-1.65-.14-3.3-.28-4.95-.41Z" style="fill: #66988d; stroke-width: 0px;"/>
  <path d="m172.75,229.75c.36.16.86.23,1.06.51.4.57.64,1.26.99,2,.35-.29.59-.5.87-.73.03.07.04.22.12.27,1.45.87,2.91,1.73,4.36,2.6-1.65-2.35-3.31-4.7-4.96-7.05-.46-.06-.98.01-1.35-.19-.8-.44-1.5-.59-2.15.2.35.8.7,1.6,1.06,2.4Z" style="fill: #66988d; stroke-width: 0px;"/>
  <path d="m322.84,235.27c.34-.88.29-1.48-.81-1.84-.51-.17-.84-.92-1.22-1.39-.09.16-.35.58-.78,1.3-.51-.64-.9-1.13-1.3-1.63-.82-.25-1.63-.5-2.62-.8-.45,1.5-.89,2.97-1.32,4.44.15-.03.3-.05.46-.07.51.02,1.06-.08,1.51.09.56.21,1.04.66,1.61,1.04.27-.55.52-1.02.73-1.5.39-.91.91-1.56,1.99-.98,1.16.62.19,1.28,0,1.93.59-.19,1.18-.39,1.77-.58Z" style="fill: #7fb5aa; stroke-width: 0px;"/>
  <path d="m328.23,243.46c-.7-.14-1.44-.2-2.09-.45-1.3-.51-2.57-1.1-3.82-1.72-.39-.19-.7-.57-1.04-.87-.72-.14-1.44-.27-2.48-.47-.08.17-.35.73-.65,1.36,3.73,1.57,7.29,3.08,11.02,4.66.3-.67.55-1.25.84-1.91-.7-.23-1.24-.41-1.77-.59Z" style="fill: #61897f; stroke-width: 0px;"/>
  <path d="m295.02,159.09c-.01-1.37-.87-2.34-2.13-2.59-.27-.05-.46-.49-.69-.74-1.53,1.98-1.16-.67-1.87-1.03-.59.85.43,2.6-1.45,2.6.05.97.11,1.93.17,3.07,1.23-.35,2.61.49,3.33-1.05.42.21.8.4,1.18.59.49-.28.97-.56,1.46-.84Z" style="fill: #cbd2cb; stroke-width: 0px;"/>
  <path d="m238.39,164.83l-1.24-1.17c-.14.34-.28.68-.43,1.03.18.13.51.26.51.38-.02.48-.07.98-.25,1.42-2.33,5.43-.61,11.15-1.47,16.85.57-.11.89-.17,1.2-.23-.2-.82-.54-1.63-.56-2.45-.07-2.61-.04-5.23-.02-7.84,0-.56.11-1.12.13-1.3,1-.16,1.75-.28,2.5-.4-.12-.5-.29-.99-.33-1.49-.02-.38.14-.77.21-1.16-.24-1.02-.5-2.04-.7-3.07-.03-.15.27-.37.42-.56Z" style="fill: #7fb5aa; stroke-width: 0px;"/>
  <path d="m164.96,215.4c-.25-1.73.99-2.84,2.94-2.29,1.51.42,2.23-.36,3.07-1.17-.04-.17-.08-.34-.11-.5-1.44.3-2.88.6-4.06.84.45-1.48.88-2.9,1.3-4.32-1.13,1.63-2.11,3.45-4.24,3.28-.25,1.52-.48,2.92-.73,4.47.57-.09,1.2-.2,1.84-.31Z" style="fill: #7fb5aa; stroke-width: 0px;"/>
  <path d="m351.86,248.02c.31-.55.61-1.11.92-1.66-1.6-1.42-3.2-2.85-5.01-4.46-.6,1.08-1.06,1.89-1.51,2.71,1.27.65,2.56,1.25,3.8,1.97.66.38,1.21.95,1.8,1.44Z" style="fill: #d8dcd4; stroke-width: 0px;"/>
  <path d="m337.82,249.62c.48-.25.95-.5,1.66-.87-1.89-1.21-3.49-2.23-5.09-3.25-.96,1.78-1.47-.3-2.42-.25-.17.43-.38.94-.67,1.67,2.2.91,4.36,1.8,6.52,2.69Z" style="fill: #61897f; stroke-width: 0px;"/>
  <path d="m171.7,227.35c.65-.79,1.34-.64,2.15-.2.37.21.9.14,1.35.19-.27-.51.02-1.51-1.12-1.29-.07.01-.23-.11-.22-.14.51-2.17-2.03-1.28-2.33-2.71.06-.1.25-.45.4-.71-.44-.73-1.34,1.5-1.43-.42-.29.1-.59.2-.88.3.69,1.66,1.38,3.32,2.07,4.97Z" style="fill: #71a799; stroke-width: 0px;"/>
  <path d="m260.44,345.7c-.41-.09-.82-.21-1.24-.28-1.27-.19-2.55-.48-3.83-.52-1.48-.05-2.96.11-4.44.22-.57.04-1.13.27-1.69.28-5.22.02-10.44,0-15.67.03-1.29,0-2.59.16-3.88.25,10.25,0,20.5.01,30.74.02Z" style="fill: #5b877b; stroke-width: 0px;"/>
  <path d="m234.11,134.2c.43-.28.86-.57,1.29-.85-.09-3.2-.19-6.4-.28-9.59-.12,0-.23,0-.35-.01-.31,3.49-.63,6.97-.94,10.46,0,0,.14,0,.14,0h.14Z" style="fill: #61897f; stroke-width: 0px;"/>
  <path d="m253.02,133.95c.51-.11,1.02-.22,1.53-.33-.17-3.04-.34-6.08-.51-9.12-.15,0-.3,0-.45-.01-.19,3.15-.38,6.31-.57,9.46Z" style="fill: #61897f; stroke-width: 0px;"/>
  <path d="m212.88,168.35c.38-.71.8-1.8,1.47-2.7.82-1.09.73-1.87-.36-2.62-.31-.21-.58-.48-1.11-.91v6.23Z" style="fill: #66988d; stroke-width: 0px;"/>
  <path d="m210.04,345.73c-.69-1.64-1.38-3.28-2.08-4.92l-.42.1v4.8h2.51s-.01.01-.01.01Z" style="fill: #587f74; stroke-width: 0px;"/>
  <path d="m314.76,235.41c-.32,1.01-.72,2.01-.92,3.05-.07.36.28.93.61,1.19.39.31.97.38,1.5.57.12-.2.19-.37.31-.52.89-1.11.75-1.91-.57-2.61-.39-.21-.48-.97-.7-1.47-.08-.07-.15-.14-.23-.2Z" style="fill: #61897f; stroke-width: 0px;"/>
  <path d="m169.63,222.38c.29-.1.59-.2.88-.3-.19-.62-.32-1.26-.59-1.85-.76-1.65-1.53-3.29-2.4-4.88-.38-.7-.63-.66-1.14-.25.38.76.74,1.54,1.15,2.29.6,1.12,1.29,2.19,1.83,3.33.23.49.19,1.1.27,1.66Z" style="fill: #7fb5aa; stroke-width: 0px;"/>
  <path d="m214.43,185.51c.24-1.06-.1-2.36,1.21-2.98-.8-1.03-1.59-2.06-2.61-3.37-.06,2.43.52,4.42,1.4,6.36Z" style="fill: #71a799; stroke-width: 0px;"/>
  <path d="m230.5,111.87c3.18.15,4.88-.46,5.57-2.32-2.07.69-3.88,1.3-5.7,1.9.04.14.09.28.13.42Z" style="fill: #d8dcd4; stroke-width: 0px;"/>
  <path d="m271.32,320.23c.37-.25,1.02-.46,1.08-.77.34-1.92.55-3.87.79-5.81.01-.11-.1-.24-.24-.57-.41.93-.74,1.7-1.08,2.47-.17.98-.34,1.95-.51,2.93l-.04,1.76Z" style="fill: #7bbaa8; stroke-width: 0px;"/>
  <path d="m278.9,306.75c0,3.99-.01,7.97.02,11.96,0,.5.21.99.32,1.49,0-5.15,0-10.31.02-15.46-.12-.01-.24-.02-.35-.03,0,.68,0,1.36,0,2.04Z" style="fill: #a9b8b1; stroke-width: 0px;"/>
  <path d="m241.4,335.99c-.63-1.43-2.88-1.53-4.13-.18,1.38.06,2.75.12,4.13.18Z" style="fill: #5c887b; stroke-width: 0px;"/>
  <path d="m271.36,318.47c.17-.98.34-1.95.51-2.93-.18-.68-.37-1.37-.55-2.05.01,1.66.02,3.32.04,4.98Z" style="fill: #7eafa5; stroke-width: 0px;"/>
  <path d="m245.8,335.95c.32-.39.64-.77,1.07-1.29-.8.21-1.38.3-1.89.52-.35.15-.62.5-.93.76.58,0,1.17,0,1.75,0Z" style="fill: #5e897c; stroke-width: 0px;"/>
  <path d="m278.91,304.71c.12.01.24.02.35.03.36.08.72.17,1.08.25.27.02.54.05.81.07.04-.14.09-.27.13-.41-.66-.24-1.32-.5-1.99-.68-.06-.02-.25.47-.38.73Z" style="fill: #7eb5aa; stroke-width: 0px;"/>
  <path d="m261.32,345.69c.07-.56.15-1.12.22-1.68-.27-.05-.57-.11-1.32-.26.33.8.57,1.38.8,1.95.1,0,.19,0,.29-.01Z" style="fill: #5b877b; stroke-width: 0px;"/>
  <path d="m295.02,159.09c-.49.28-.97.56-1.46.84.48-.1.97-.21,1.45-.31,0-.18,0-.36,0-.54h0Z" style="fill: #d8dcd4; stroke-width: 0px;"/>
  <path d="m295.01,159.09c0,.18,0,.36,0,.54.28-.18.56-.36.84-.54-.28,0-.56,0-.83,0Z" style="fill: #cbd2cb; stroke-width: 0px;"/>
  <path d="m310.83,306.43c-.48-.02-.96-.03-1.44-.05.48.02.96.03,1.44.05Z" style="fill: #71a799; stroke-width: 0px;"/>
  <path d="m250.77,134.39c.1.17.21.33.31.5.08-.18.16-.36.25-.53-.18.01-.37.02-.55.03Z" style="fill: #61897f; stroke-width: 0px;"/>
  <path d="m166.12,215.09c-.2.08-.4.16-.6.24.2-.08.4-.16.6-.24Z" style="fill: #7fb5aa; stroke-width: 0px;"/>
  <path d="m318.73,306.89l-.11-.26c-.05.07-.1.14-.15.21,0,0,.13.06.13.06h.14Z" style="fill: #71a799; stroke-width: 0px;"/>
  <path d="m232.91,142.69c-.04-.19-.08-.38-.11-.58.04.19.08.38.11.58Z" style="fill: #5c887b; stroke-width: 0px;"/>
  <path d="m262.47,344.26c-.08.12-.16.24-.24.36.08-.12.16-.24.24-.36Z" style="fill: #5b877b; stroke-width: 0px;"/>
  <path d="m283.57,216.5c.1-.02.2-.03.3-.05-.1.02-.2.03-.3.05Z" style="fill: #e6eae3; stroke-width: 0px;"/>
  <path d="m317.48,228.52c.13-.11.26-.21.4-.32-.13.11-.26.21-.4.32Z" style="fill: #e5e8e2; stroke-width: 0px;"/>
  <path d="m210.06,345.71s.05.07.08.11c-.03-.03-.06-.07-.1-.1,0,0,.01-.01.01-.01Z" style="fill: #587f74; stroke-width: 0px;"/>
  <path d="m315.25,235.28c-.15.02-.3.05-.46.07,0,0-.03.05-.03.05.08.07.15.13.23.2.09-.11.17-.22.26-.33Z" style="fill: #61897f; stroke-width: 0px;"/>
  <path d="m236.44,134.27c.09,0,.17,0,.26,0-.08-.05-.17-.05-.26,0Z" style="fill: #61897f; stroke-width: 0px;"/>
  <path d="m223.63,132.73c0,.13,0,.26,0,.39,0-.13,0-.26,0-.39Z" style="fill: #5c887b; stroke-width: 0px;"/>
  <path d="m192,353.03c-.1.13-.17.23-.23.33.1.07.21.19.3.19.09,0,.17-.16.25-.24-.09-.08-.19-.16-.32-.27Z" style="fill: #e9eae6; stroke-width: 0px;"/>
  <path d="m190.85,354.14c.03.07.05.19.1.21.05.02.14-.05.21-.08-.03-.07-.05-.19-.1-.21-.05-.02-.14.05-.21.08Z" style="fill: #e9eae6; stroke-width: 0px;"/>
  <path d="m238.39,164.83c-.15.19-.45.4-.42.56.19,1.03.46,2.05.7,3.07.92,2.28,1.84,4.55,5.04,3.86.06-.01.16.09.33.2v2.41c.56,2.86,1.46,5.57,3.47,7.77,6.45,7.07,18.55,5.27,22.84-3.43.74-1.51,1.19-3.18,1.86-5.02,1.44.26,3.04.54,4.77.85.29-1.19.58-2.34.87-3.51-1.83-.53-3.51-1-5.18-1.53-.37-.12-.85-.37-.99-.69-.6-1.32-.96-2.76-1.65-4.03-.66-1.22-1.62-2.29-2.48-3.46,1.37-1.27,2.72-2.52,4.32-4-2.34-1.45-4.47-2.84-6.69-4.1-.31-.18-1.08.18-1.49.48-5.37,3.91-10.81,7.7-17.01,10.2-1.79.72-3.7,1.15-5.56,1.71-.92.5-1.68.41-2.23-.56-.17-.25-.34-.51-.5-.76Zm26.71-.36c3.75,3.24,4.78,8.48,2.58,13.18-2.02,4.33-7.05,6.86-11.94,6.01-4.69-.82-8.17-4.63-8.7-9.55-.13-1.22-.18-2.35,1.56-2.45.7-.04,1.39-.36,2.11-.56.03,4.24,1.22,6.15,4.34,7.05,2.55.74,4.95-.08,6.29-2.16,1.58-2.45,1.12-4.99-1.45-7.92,1.71-1.18,3.42-2.36,5.22-3.6Z" style="fill: #06110f; stroke-width: 0px;"/>
  <path d="m248.73,201.75c.45-.09.91-.18,1.49-.3-.14-2.93-1.63-5.09-3.7-6.88-4.89-4.22-13.57-3.7-16.64,3.32-.31.71-.55,1.47-.66,2.23-.05.34.2.9.49,1.07.23.14.73-.13,1.08-.3.2-.1.35-.33.51-.52,5.12-6.25,14-4.46,17.42,1.37Z" style="fill: #081411; stroke-width: 0px;"/>
  <path d="m275.96,189.55c.35-.39.69-.79,1.02-1.16q-1.45-1.96.8-4.19c-.4-.49-.82-1-1.24-1.51-.62.59-1.25,1.19-1.96,1.86-.47-.59-.92-1.15-1.54-1.94-.49.52-1.4,1.07-1.36,1.55.05.62.85,1.18,1.42,1.88-.6.54-1.19,1.08-1.77,1.6q.65,1.53,2.71.33c.65.53,1.28,1.05,1.92,1.58Z" style="fill: #081411; stroke-width: 0px;"/>
  <path d="m244.02,174.92v-2.41c-.17-.11-.26-.21-.33-.2-3.2.7-4.12-1.58-5.04-3.86-.08.39-.24.78-.21,1.16.03.5.21.99.33,1.49.84,1.33,1.52,2.82,3.19,3.33.67.21,1.38.33,2.06.48Z" style="fill: #61897f; stroke-width: 0px;"/>
  <path d="m238.89,165.59c.55.97,1.31,1.06,2.23.56-.74-.19-1.49-.37-2.23-.56Z" style="fill: #7fb5aa; stroke-width: 0px;"/>
  <path d="m246.7,268.34c-.31,1.01-.81,2-.89,3.03-.07.94-.14,1.53-1.25,1.4-.34-.04-.69-.04-1.02,0-1.22.17-1.69-.33-1.55-1.55.18-1.55-.22-2.69-1.89-3.33-.75-.28-1.18-1.32-1.86-1.9-.32-.27-1.11-.52-1.26-.36-.33.33-.43.92-.51,1.43-.05.31.14.66.2.99.18,1.06-.18,1.72-1.33,1.78-3.68.2-7.37.38-11.05.61-.43.03-.84.38-1.26.58.43.19.85.52,1.29.55,3.68.24,7.36.4,11.04.64.45.03.88.38,1.32.58-.02.14-.05.28-.07.42-.39.05-.79.14-1.18.14-2.1.01-4.2-.03-6.29.03-.53.02-1.27.2-1.53.57-.69,1-1.63,1.15-2.67,1.15-1.9.01-3.81-.03-5.71.03-.4.01-.79.33-1.18.51.41.21.81.59,1.23.61,1.95.06,3.9.02,5.85.03,1.93.01,2.23.31,2.23,2.18,0,1.22,0,2.44,0,3.66,0,2.03-.29,2.34-2.38,2.35-3.37.02-6.73-.02-10.1.03-.54,0-1.07.31-1.6.48.04.19.09.38.13.57.5.03,1.01.1,1.51.1,3.42,0,6.83-.02,10.25.03.88.01,1.98-.06,2.16,1.21.16,1.16-.43,1.66-1.61,1.71-3.88.16-7.76.38-11.64.58-.22.01-.44.11-.75.19.25,1.23,1.08,1.21,1.99,1.23,2.5.04,5.01.15,7.51.24.97.03,1.95,0,2.92.12.53.06,1.04.36,1.56.55-.04.16-.07.31-.11.47-.4.04-.81.12-1.21.12-2.1.01-4.2-.02-6.29.03-.49.01-1.18.17-1.42.51-.88,1.26-2.05,1.25-3.36,1.17-.49-.03-1,.39-1.5.6.43.21.84.49,1.29.61.41.1.87.01,1.31.02,1.04.03,1.9.18,2,1.56.11,1.51-.78,1.88-1.94,1.93-1.8.07-3.61.02-5.42.02-.34,0-.71-.07-1.02.03-.32.1-.59.36-.89.55.29.2.57.55.87.56,1.8.05,3.61.05,5.42.03,1.29-.02,2.53-.07,3.31,1.31.17.3.84.4,1.3.44.86.07,1.72.02,2.58.02l.18.58c-.41.2-.82.54-1.24.57-3.78.24-7.57.37-11.34.65-.81.06-1.6.55-2.39.84-.07.9.54.9,1.17.88.03-.59.07-1.16.88-.59h.88c.08-.14.15-.29.23-.43.12.14.24.29.36.43,3.18.2,6.37.35,9.55.6,1.86.15,3.72.39,5.56.72.45.08.83.63,1.23.96-.48.22-.95.57-1.44.63-2.16.26-4.33.42-6.49.65-.24.03-.45.26-.89.53.51.26.82.52,1.15.56,2.11.24,4.22.46,6.33.61.83.06,1.47.16,1.41,1.19.98,0,1.95-.03,2.93,0,1.51.07,1.91.6,1.61,2.04-.41,2.01.07,2.64,2.05,2.64,5.07,0,10.15.03,15.22-.01,2.72-.02,5.44-.21,8.16-.26.89-.02,1.78.15,2.91.12-1.28-1.25-.74-2.46-.2-3.6.19-.41.76-.82,1.22-.89.85-.14,1.75-.06,2.63-.04,1.07.03,1.39-.52,1.19-1.48-.04-.19-.13-.37-.17-.56-.61-3.34-.23-3.74,3.11-3.84,1.98-.06,3.96-.36,5.94-.5.86-.06,1.75-.02,2.61.1.97.14,1.53-.23,2.09-1.34-1.12,0-2.02.04-2.92,0-3.29-.18-6.57-.37-9.85-.61-.34-.03-.65-.43-.97-.65.39-.26.78-.73,1.17-.74,2.97-.06,5.95-.07,8.93-.02,1.6.02,3.2.29,4.79.23,1.23-.04,2.45-.42,3.85-1.02-.39-.31-.79-.6-1.17-.92-.32-.27-.88-.58-.88-.87,0-.5.32-1.01.56-1.49.25-.51.65-.96.82-1.48.14-.44-.01-.97.04-1.45.12-1.22-.01-2.24-1.58-2.54.39-.05.81-.03,1.17-.16.32-.11.57-.38.86-.58-.3-.19-.57-.44-.9-.54-.34-.11-.73-.09-1.42-.17.41-.25.55-.33.68-.43.4-.32.79-.65,1.18-.97-.4-.46-.71-1.17-1.21-1.35-2-.72-2.23-.96-2.3-3.09-.03-.86.14-1.28,1.16-1.39,2.18-.24,2.15-.33,2.15-2.6,0-.4.25-.81.46-1.48h-4.03c-.55-1.45-1.78-1.52-3.1-1.44-.88.05-1.69.1-2.13-1.04-.14-.36-1.22-.71-1.69-.54-1.2.42-1.94.35-3.11-.47-.93-.65-2.7-.17-4.08-.05-.99.09-1.96.5-2.95.62-.93.12-1.72-.04-2.45,1.05-.38.57-2.05.39-3.12.33-.21-.01-.41-1-.54-1.56-.08-.32,0-.68-.02-1.02-.04-1.5-.42-1.85-1.89-1.71-.53.05-1.05.2-1.58.21-.56.01-1.12-.08-1.68-.13-.01-.21-.03-.42-.04-.63.89-.18,1.79-.32,2.67-.56.29-.08.51-.41.76-.62-1.07-.39-2.15-.79-3.22-1.18-.52,1.74-1.44,2.22-2.43,1.1-.67-.76-.93-1.89-1.38-2.86-.19-.02-.38-.04-.56-.06Zm20.25,9.12c.63,0,1.16-.11,1.59.03.37.13.64.56.95.85-.32.28-.61.7-.98.82-.44.15-.98.1-1.45.03-.77-.12-2.09.51-2.12-.81-.04-1.51,1.39-.69,2.01-.93Z" style="fill: #7bbaa8; stroke-width: 0px;"/>
  <path d="m227.08,256.86c-.97.04-1.92.01-2.36,1.2-.41,1.1-.03,2.19,1.04,2.61.99.39,2.06-.09,2.43-1.17.18-.54.22-1.13.33-1.69-.48-.32-.96-.63-1.44-.95Z" style="fill: #7bbaa8; stroke-width: 0px;"/>
  <path d="m247.26,268.4c.44.97.7,2.1,1.38,2.86.99,1.12,1.91.64,2.43-1.1-1.27-.58-2.54-1.17-3.81-1.75Z" style="fill: #7db6ab; stroke-width: 0px;"/>
  <path d="m311.71,224.43c-4.07-1.97-8.15-3.94-12.22-5.92-.2.38-.4.76-.6,1.14.56.13,1.12.25,1.68.38.03-.02.07-.04.1-.06l-.1.06c0,.12,0,.24.01.36,1.65.05,1.94.54,1.35,2.25.51.34,1.02.68,1.62,1.09.17-.15.53-.45.88-.75.7-1.25,1.65-.86,2.6-.38.96.48.4,1.18.25,1.83.61.24,1.24.42,1.81.72.84.45,1.64.98,2.73,1.64-.06-1.06-.09-1.71-.13-2.36Z" style="fill: #7ab6a8; stroke-width: 0px;"/>
  <path d="m307.3,224.42c.15-.64.71-1.35-.25-1.83-.95-.47-1.9-.87-2.6.38.33.68.51,1.55,1.04,1.95.3.23,1.18-.31,1.81-.51Z" style="fill: #7cb6aa; stroke-width: 0px;"/>
  <path d="m247.31,230.92c-.39-.43-.76-.91-1.19-1.29-.36-.32-.8-.54-1.21-.8-.18,1.12-.42,2.23-.5,3.35-.01.18.87.68.99.58.7-.54,1.28-1.21,1.91-1.83Zm-1.63-.12s.02.07.04.1c-.03.01-.08.04-.09.03-.02-.02-.03-.06-.04-.1.03-.01.06-.02.09-.03Z" style="fill: #66988d; stroke-width: 0px;"/>
  <path d="m243.47,226.46c-.12-1.32-.94-1.58-2.07-1.36-.1.27-.33.58-.27.81.14.51.29,1.2.66,1.43.86.53,1.29-.22,1.67-.88Z" style="fill: #7cb6aa; stroke-width: 0px;"/>
  <path d="m301.95,222.64c.59-1.71.3-2.2-1.35-2.25-.74.52-.82,1.13-.29,1.85.44.6.91,1.04,1.65.4Z" style="fill: #7cb6aa; stroke-width: 0px;"/>
  <path d="m227.34,310.85c.06-1.03-.58-1.13-1.41-1.19-2.11-.15-4.22-.37-6.33-.61-.33-.04-.64-.3-1.15-.56.44-.27.65-.5.89-.53,2.16-.23,4.33-.39,6.49-.65.5-.06.96-.41,1.44-.63-.41-.33-.78-.88-1.23-.96-1.84-.32-3.7-.57-5.56-.72-3.18-.25-6.36-.41-9.55-.6h-1.46c.26.67.41,1.43.82,2,.52.73,1.01,1.29.6,2.31-.36.9,0,1.59,1.16,1.57.38,0,.77.18,1.22.29-.25.63-.42,1.07-.6,1.5.39.48.77.95,1.16,1.43.43-.1.91-.38,1.26-.27,1.01.34,2.77-.73,2.87,1.42.39,0,.78.02,1.16-.02,2.07-.23,2.92.53,2.94,2.66,1.15-.24,2.33-.79,3.42.64.04-.67.07-1.09.1-1.52-.2-.29-.39-.59-.59-.88-.53-.15-1.07-.3-1.7-.48.77-.38,1.38-.68,1.99-.98-.48,0-1,.1-1.44-.03-.43-.13-.78-.51-1.16-.78.39-.31.75-.85,1.17-.9,1.05-.13,2.12-.04,3.19-.05.1-.49.2-.98.29-1.46Zm-9.67-.29c1.05-.85,4.25-.84,5.03-.03-1.56.4-3.15.8-4.74,1.21-.69.05-1.39.12-2.08.13-.06,0-.19-.59-.17-.6.64-.26,1.3-.47,1.96-.7Z" style="fill: #7cb6aa; stroke-width: 0px;"/>
  <path d="m245.84,318.34c2.65.24,5.29.49,7.94.71.86.07,1.71.07,1.68-1.21-.02-1.19-.82-1.15-1.63-1.13-3.65.09-7.3.19-10.95.3-.33.01-.7.07-.98.23-.21.12-.48.51-.42.65.1.24.43.53.68.55,1.22.06,2.44.03,3.66.03,0-.04,0-.08.01-.12Z" style="fill: #7bbaa8; stroke-width: 0px;"/>
  <path d="m228.21,320.54c4.22,1.78,8.69,2.16,13.2,2.32-.04-1.18-.9-1.12-1.67-1.04-1.22.13-2.3.52-3.34-.85-.85-1.12-2.32-.76-3,.42-.54-.28-1.07-.73-1.64-.8-1.17-.13-2.36-.05-3.54-.06Z" style="fill: #7db6ab; stroke-width: 0px;"/>
  <path d="m222.07,317.3c-.02-2.13-.87-2.89-2.94-2.66-.38.04-.78.01-1.16.02-.1.4-.21.8-.31,1.21,1.46.59,2.92,1.19,4.38,1.78,0-.12.02-.23.03-.35Z" style="fill: #7db6ab; stroke-width: 0px;"/>
  <path d="m227.05,312.32c-1.06,0-2.14-.09-3.19.05-.42.05-.78.59-1.17.9.38.27.73.65,1.16.78.44.14.96.03,1.44.03,2.12-.01,2.26-.15,1.76-1.76Z" style="fill: #7bbaa8; stroke-width: 0px;"/>
  <path d="m228.53,319.81c.5-.67,1.11-1.14,1.05-1.49-.09-.47-.69-.84-1.07-1.26-.45.49-.96.95-1.3,1.5-.05.09.67.64,1.32,1.24Z" style="fill: #7cb6aa; stroke-width: 0px;"/>
  <path d="m222.93,318.5c.89.38,1.77.77,2.66,1.15-.34-1.64-1.43-1.55-2.66-1.15Z" style="fill: #7db6ab; stroke-width: 0px;"/>
  <path d="m225,315.54c.2.29.39.59.59.88l1.7-.19c0-.19,0-.39-.01-.58-.76-.03-1.52-.07-2.28-.1Z" style="fill: #7db6ab; stroke-width: 0px;"/>
  <path d="m212.67,312.07c.17-.44.35-.87.6-1.5-.45-.11-.84-.29-1.22-.29-1.16.01-1.52-.67-1.16-1.57.42-1.02-.07-1.58-.6-2.31-.41-.57-.56-1.32-.82-2-.81-.58-.85,0-.88.59-.05,1.06.27,2.24-.91,2.95,1,1.04,1.95,2.13,3.02,3.09.54.48,1.31.71,1.98,1.05Z" style="fill: #7db6ab; stroke-width: 0px;"/>
  <path d="m217.66,315.87c.1-.4.21-.8.31-1.21-.11-2.15-1.86-1.08-2.87-1.42-.35-.12-.84.17-1.26.27,1.28.79,2.55,1.57,3.83,2.36Z" style="fill: #7bbaa8; stroke-width: 0px;"/>
  <path d="m207.67,307.94c1.18-.71.87-1.88.91-2.95-.63.02-1.24.02-1.17-.88-.41.7-.81,1.39-1.22,2.09,0,0,.03-.01.03-.01.96-.11.92.54.89,1.18.19.19.37.38.56.58Z" style="fill: #7ab6a8; stroke-width: 0px;"/>
  <path d="m269.79,313.21c.68-.51,1.37-1.02,2.05-1.53-1.06-1.45-1.12-1.44-1.79-.07-.09.18-.35.28-.53.41.09.4.17.79.26,1.19Z" style="fill: #7cb6aa; stroke-width: 0px;"/>
  <path d="m207.11,307.36c.03-.64.07-1.28-.89-1.18.3.39.59.78.89,1.18Z" style="fill: #7db6ab; stroke-width: 0px;"/>
  <path d="m213.28,276.26c-.03-1.96-1.36-3.23-3.36-3.19-1.86.03-3.16,1.4-3.14,3.3.01,1.74,1.51,3.14,3.36,3.14,1.87,0,3.17-1.34,3.14-3.25Z" style="fill: #081411; stroke-width: 0px;"/>
  <path d="m205.57,291.03c-.9.05-1.88-.11-2.69.19-1.48.54-2.17,2.09-1.79,3.41.41,1.38,1.96,2.51,3.3,2.39,1.39-.12,3.13-1.58,2.94-2.88-.15-1.06-.99-2.01-1.52-3.01-.09,0-.17-.02-.23-.09Z" style="fill: #081411; stroke-width: 0px;"/>
  <path d="m216.82,269.23c2.62.1,3.76-.76,3.8-2.86.03-1.53-.62-2.43-2.01-2.82-1.25-.35-2.68.3-3.32,1.51-.59,1.11-.33,2.63.61,3.46.29.26.61.47.92.71h0Z" style="fill: #7bbaa8; stroke-width: 0px;"/>
  <path d="m205.57,291.03c.06.07.14.1.23.09.18-.03.39-.12.54-.07,2.27.72,3.23-.06,2.97-2.45-.15-.18-.3-.37-.46-.55-2.26-.72-3.13-.09-3.19,2.27,0,.24-.06.47-.09.71Z" style="fill: #7bbaa8; stroke-width: 0px;"/>
  <path d="m220.18,281.25c.49,0,1.01.11,1.45-.03.38-.12.66-.54.98-.82-.31-.29-.6-.8-.95-.84-.96-.12-1.96-.13-2.92,0-.38.05-.7.58-1.05.89.34.27.64.66,1.02.78.45.14.97.03,1.45.03Z" style="fill: #7bbaa8; stroke-width: 0px;"/>
  <path d="m208.86,288.04c.15.18.31.37.46.55.82,1.16.69,2.26-.28,3.3,1.21.2,2.81-1.48,2.37-2.47-.29-.65-.7-1.24-1.18-2.09-.41.21-.89.46-1.36.71Z" style="fill: #7bbaa8; stroke-width: 0px;"/>
  <path d="m215.72,271.38c.43-.46.7-.74.96-1.02-.43-.35-.83-.8-1.32-.97-.16-.06-.58.64-.88.99.35.28.69.56,1.24,1.01Z" style="fill: #7bbaa8; stroke-width: 0px;"/>
  <path d="m214.72,272.75c-.43-.17-.85-.38-1.29-.49-.08-.02-.26.41-.39.63.45.19.91.38,1.36.58.11-.24.21-.47.32-.71Z" style="fill: #7ab6a8; stroke-width: 0px;"/>
  <path d="m217.64,270.32c.1.02.18.03.26.05,0-.06.02-.13.01-.19,0,0-.09-.03-.12-.01-.06.03-.1.09-.15.15Z" style="fill: #7bbaa8; stroke-width: 0px;"/>
  <path d="m216.82,269.23c-.2.1-.41.21-.61.31.2-.1.41-.21.61-.31,0,0,0,0,0,0Z" style="fill: #7bbaa8; stroke-width: 0px;"/>
  <path d="m299.17,152.03c.25.6.5,1.21.75,1.81.11-.04.23-.09.34-.13-.23-.59-.47-1.19-.7-1.78-.13.04-.26.07-.38.11Z" style="fill: #d8dcd4; stroke-width: 0px;"/>
  <path d="m300.87,152.42c.1.15.17.26.24.36.09-.08.25-.14.27-.23.01-.1-.1-.22-.16-.33-.1.06-.21.12-.35.2Z" style="fill: #d8dcd4; stroke-width: 0px;"/>
  <path d="m305.56,152.65c-.06-.25-.12-.5-.18-.75l-.35.18c.18.19.35.38.53.57h0Z" style="fill: #d8dcd4; stroke-width: 0px;"/>
  <path d="m306.51,151.6c-.07.03-.19.05-.21.1-.02.05.04.18.09.2.05.02.18-.04.21-.09.02-.05-.05-.14-.09-.22Z" style="fill: #d8dcd4; stroke-width: 0px;"/>
  <path d="m305.56,152.65c.09.15.19.3.28.45.06-.06.11-.11.17-.17-.15-.09-.3-.19-.45-.28h0Z" style="fill: #d8dcd4; stroke-width: 0px;"/>
  <path d="m302.37,299.35c.52.07,1.04.14,1.56.21.02-.7.04-1.39.07-2.09-1.81-.19-2.07.1-1.63,1.87Z" style="fill: #7bbaa8; stroke-width: 0px;"/>
  <path d="m226.9,344.77l.13-2.18c-.2-.01-.4-.02-.61-.03v2.17c.16.01.32.02.48.03Z" style="fill: #587f74; stroke-width: 0px;"/>
  <path d="m238.34,332.9c-.03-.07-.05-.19-.1-.21-.05-.02-.14.05-.21.08.03.07.05.19.1.21.05.02.14-.05.21-.08Z" style="fill: #5b877b; stroke-width: 0px;"/>
  <path d="m258.82,344.91c.07.03.17.1.22.07.05-.02.06-.14.09-.21-.07-.03-.17-.1-.22-.07-.05.02-.06.14-.09.21Z" style="fill: #5b877b; stroke-width: 0px;"/>
  <path d="m180.83,219.59c-.07.03-.19.05-.21.1-.02.05.04.18.09.2.05.02.14-.05.21-.08-.03-.07-.06-.15-.1-.22Z" style="fill: #7ab6a8; stroke-width: 0px;"/>
  <path d="m170.46,207.28c-.28.73-.58,1.13-.5,1.41.11.38.52.66.81.99.27-.29.79-.64.74-.86-.1-.43-.51-.79-1.05-1.53Z" style="fill: #7fb5aa; stroke-width: 0px;"/>
  <path d="m170.94,214.39c.03.07.06.15.09.22.07-.03.19-.05.21-.1.02-.05-.05-.14-.08-.21-.07.03-.15.06-.22.1Z" style="fill: #7fb5aa; stroke-width: 0px;"/>
  <path d="m295.11,181.79c-.18-2.84-1.23-4.05-3.49-3.63-.84.16-1.83.81-2.29,1.53-.79,1.25-1.27,2.7-1.76,4.11-.09.26.26.87.57,1.03.58.32,1.26.43,1.91.63.95-2.91,2.11-3.75,5.07-3.68Z" style="fill: #081411; stroke-width: 0px;"/>
  <path d="m295.11,181.79c-2.96-.07-4.12.77-5.07,3.68,2.01,1.25,3.63.82,4.61-1.34.32-.71.32-1.56.47-2.34Z" style="fill: #5e897c; stroke-width: 0px;"/>
  <path d="m295.2,156.01h-.52c.13.1.26.21.39.31.04-.1.09-.21.13-.31Z" style="fill: #cbd2cb; stroke-width: 0px;"/>
  <path d="m291.79,154.7c-.11.03-.22.07,0,0-.19.14-.1.07,0,0h0Z" style="fill: #cbd2cb; stroke-width: 0px;"/>
  <path d="m291.79,154.7c.07-.09.14-.19,0,0,.07-.23.04-.12,0,0,0,0,0,0,0,0Z" style="fill: #cbd2cb; stroke-width: 0px;"/>
  <path d="m308.92,153.14s-.05.07-.05.1c0,.03.04.06.07.08,0-.06-.01-.12-.02-.18Z" style="fill: #e8e9e4; stroke-width: 0px;"/>
  <path d="m302.05,153.53s.04.07.06.11c-.02-.04-.04-.07-.06-.11,0,0,0,0,0,0Z" style="fill: #e8e9e4; stroke-width: 0px;"/>
  <path d="m299.7,300.6c.03.11.07.22,0-.01.14.2.07.1,0,0,0,0,0,0,0,0Z" style="fill: #7db6ab; stroke-width: 0px;"/>
  <path d="m185.46,228.79c.13.29.26.58.4.86l.38-.17c-.14-.29-.27-.57-.41-.86l-.36.17Z" style="fill: #7ab6a8; stroke-width: 0px;"/>
  <path d="m265.09,164.47c-1.79,1.24-3.5,2.42-5.22,3.6,2.57,2.93,3.03,5.47,1.45,7.92-1.34,2.08-3.74,2.9-6.29,2.16-3.12-.91-4.31-2.82-4.34-7.05-.71.2-1.4.52-2.11.56-1.74.1-1.69,1.23-1.56,2.45.53,4.91,4.02,8.73,8.7,9.55,4.89.85,9.91-1.68,11.94-6.01,2.19-4.69,1.16-9.94-2.58-13.18Z" style="fill: #f7b0c3; stroke-width: 0px;"/>
  <path d="m266.95,277.46c-.63.23-2.05-.58-2.01.93.04,1.32,1.35.69,2.12.81.48.08,1.01.12,1.45-.03.38-.12.66-.54.98-.82-.31-.3-.58-.72-.95-.85-.44-.15-.96-.03-1.59-.03Z" style="fill: #7cb7ab; stroke-width: 0px;"/>
  <path d="m210.35,304.41h.59c-.12-.14-.24-.29-.36-.43-.08.14-.15.29-.23.43Z" style="fill: #7db6ab; stroke-width: 0px;"/>
  <path d="m300.58,220.03l.1-.06s-.07.04-.1.06h0Z" style="fill: #7cb6aa; stroke-width: 0px;"/>
  <path d="m245.68,230.8s-.06.02-.09.03c.01.03.02.07.04.1,0,0,.06-.02.09-.03l-.04-.1Z" style="fill: #5c887b; stroke-width: 0px;"/>
  <path d="m217.96,311.73c1.59-.4,3.18-.81,4.74-1.21-.78-.8-3.98-.81-5.03.03.1.39.2.78.29,1.17Z" style="fill: #7cb7ab; stroke-width: 0px;"/>
  <path d="m217.96,311.73c-.1-.39-.2-.78-.29-1.17-.66.22-1.32.44-1.96.7-.02,0,.11.6.17.6.7,0,1.39-.07,2.08-.13Z" style="fill: #7db6ab; stroke-width: 0px;"/>
</svg>