<?xml version="1.0" encoding="UTF-8"?>
<svg id="Layer_1" data-name="Layer 1" xmlns="http://www.w3.org/2000/svg" viewBox="0 0 190.16 176.9">
  <g>
    <path d="M0,76.67c4.56-6.81,11.22-6.63,18.03-4.91,3.95,1,7.81,2.57,11.48,4.35,6.12,2.98,12.05,6.33,18.07,9.53-.32,1.26-.65,2.52-.97,3.78-8.36-4.24-16.67-8.6-25.12-12.66-3.84-1.84-8.04-2.55-12.37-1.87-4.38.68-5.88,2.62-5.4,6.99.24.38.48.76.72,1.14,2.08,1,4.16,2,6.24,3,3.35.26,6.7.53,10.06.79,1.55-1.47,3.1-2.95,4.72-4.48,2.08.9,1.21,2.66.84,4.31-.81,1.02-1.62,2.04-2.54,3.2,1.6.65,2.91,1.51,4.3,1.69,2.67.34,5.39.28,8.1.39,1.31-1.06,2.61-2.12,3.92-3.18.22.17.45.33.67.5-.4,1.69-.81,3.37-1.36,5.67,1.45.15,3.03.32,4.61.48.19-.45.38-.9.57-1.35.31-1.07.63-2.14,1.14-3.87,1.11,1.79,2.03,3.29,2.9,4.69,1.63-.49,3.47-1.05,5.32-1.61.17.26.35.52.52.78-4.26,2.6-5.02,7.05-6.12,11.32-.71,0-1.42,0-2.13,0-.01-.21-.03-.42-.04-.63-.14-.84.02-1.97-.48-2.48-3.32-3.42-7.39-5.69-12.23-5.62-3.61.05-7,.22-9.3-3.02-4.21,3-4.77,5.15-3.77,10.34.35,1.81.15,4.21-.82,5.68-1.9,2.85-2.11,5.44-.95,8.52.78,2.06,1.6,4.34,1.44,6.45-.34,4.34,2.17,6.71,5.15,8.99,0,0,.15-.04.15-.04.21.21.42.42.63.63,0,0-.06-.04-.06-.04.22.32.44.63.67.95,1.14.58,2.22,1.35,3.42,1.71,4.76,1.44,9.28.62,13.6-1.67,1.06.22,2.12.44,3.18.67-1.31,1.92.11,1.7,1.32,1.64,4.56.64,8.04-1.29,10.98-4.49.53,1.37,1.05,2.74,1.58,4.11-2.86,2.07-5.71,4.13-8.57,6.2-.57.26-1.14.52-1.7.78-1.03.46-2.06.92-3.09,1.38-1.11.35-2.25.64-3.34,1.06-.97.38-1.88.9-2.99,1.44,4.1,1.28,7.76.57,11.34-.95-1.44,1.81-2.87,3.62-4.49,5.67,1.55-.08,2.9-.15,4.24-.22.03.2.07.41.1.61-.88.54-1.75,1.08-2.63,1.62.05.29.1.59.15.88,1.86-.21,3.72-.42,5.59-.63.5,1.98,1,3.96,1.51,5.93-1.13-.36-2.26-.73-3.39-1.09,1.12-2.28-.62-1.99-1.79-1.75-6.3,1.28-11.6-1.22-16.7-4.3-2.31-1.4-4.41-3.12-6.61-4.7-5.45-8.25-10.79-16.55-11.94-27.03-.84,1.28-1.64,2.43-2.37,3.63-.74,1.23-1.4,2.51-2.1,3.77-2.02.45-1.22-1.03-1.08-1.74.22-1.15.73-2.24,1.23-3.67-9.6,6.16-7.18,16.61.84,21.38-.39-1.16-.8-1.99-.95-2.87-.64-3.81-1.27-7.62-1.73-11.46-.1-.82-.22-2.47,1.69-1.58.17.86.36,1.71.52,2.57.56,3.07,1.11,6.14,1.67,9.21l.02-.12c.09.54.18,1.08.27,1.63.98,1.77,1.97,3.55,2.95,5.32.14-.07.28-.15.42-.22v-6.12c.93,3.31,2.24,6.42,5.19,9.61-.11-1.33-.15-1.84-.19-2.35.15-.1.3-.21.42-.34,1.79,1.76,3.57,3.51,5.36,5.27,5.35,5.59,12.04,8.07,19.71,8.25-1.26.6-2.51,1.2-3.77,1.8,0-.21,0-.42-.01-.63.04-.08.09-.16.13-.24-.04.08-.09.16-.13.23-.39.35-.79.7-1.18,1.05-4.96,1.15-8.87-1.6-13.02-3.43-.4-.17-.8-.35-1.2-.52-11.15-2.95-18.75-10.68-25.95-18.92-.51-.58-.66-1.59-.73-2.42-.92-10.83-.88-10.91,7-18.57.84-.82,1.65-1.69,2.53-2.47,1.36-1.2,2.31-2.45,2.09-4.47-.12-1.08.19-2.45.81-3.33,1.7-2.4,1.49-4.83.88-7.47-.85-3.69-.15-5.44,3.92-11.3-7.2-1.08-14.85-.93-19.58-7.76v-7.02ZM45.37,153.2c-.16-.07-.32-.14-.48-.21-.07.16-.23.35-.18.47.04.11.29.15.45.22.07-.16.14-.32.21-.48Z" style="fill: #070707; stroke-width: 0px;"/>
    <path d="M46.19,105.34c.71,0,1.42,0,2.13,0,.17,1.52.33,3.05.5,4.57.89,3.25,3.52,4.09,6.44,4.53.34-.25.69-.5,1.03-.75.32-.08.63-.16.95-.24.13.09.25.17.46.32-.17-.19-.27-.3-.37-.41.26-.34.51-.69.77-1.03l2.76-1.47c.28.57.56,1.13.84,1.7-1.73,2.69-3.45,5.38-5.37,8.37h3.49c1.38-.72,2.76-1.44,4.15-2.16,2.33.51,2.51-.58,1.78-2.34,2.2-4.62.68-9.33.36-14.01-.62-6.51-2.18-8.61-6.99-9.28-1.73-.24-3.47-.38-5.2-.56-2.44-1.05-4.88-2.1-7.32-3.15.32-1.26.65-2.52.97-3.78,3.29,1.3,6.57,2.59,9.86,3.89.27-.05.53-.11.8-.16-.2-.14-.4-.27-.59-.41-2.26-2.28-3.79-4.82-2.95-8.19.52,0,1.05,0,1.57,0,1.82.39,3.64.77,5.45,1.16.28-.17.57-.35.85-.52-.34-.21-.68-.41-1.01-.62-.9-3.38.2-5.5,3.64-7.01.06,1.08.12,2.17.19,3.25,1.1.38,2.19.75,3.29,1.13.03.83.05,1.65.08,2.48-.59.02-1.18.05-1.78.07-.21-.59-.41-1.18-.62-1.77-.59.38-1.19.76-1.78,1.14,1.24,3.57-.64,4.94-3.87,5.39-.11.02-.17.44-.25.67.36,2.14,1.73,3,3.21,1.86.87-.67,1.4-1.76,2.08-2.66,1.19-1.51,2.38-3.02,3.58-4.53.63-.7,1.14-1.72,1.92-1.98.46-.16,1.34.87,1.41.92-.92,2.66-1.65,4.76-2.27,6.57,1.52.6,2.61,1.03,3.7,1.46-1.6.06-3.21.13-4.81.19-.12-.29-.25-.58-.37-.86-.64.67-1.28,1.33-2.05,2.14.74.61,1.36,1.13,1.98,1.64-.62,1.3-1.23,2.6-1.85,3.91.31,1.39-1.05,3.81,2.16,3.41.49-.15.99-.31,1.48-.46.42.02.84.03,1.26.05-.34,2.04-.69,4.08-1.03,6.12.18.03.36.06.54.09.37-.52.73-1.05,1.1-1.57.51.8,1.01,1.6,1.79,2.82.57-1.21,1.08-2.29,1.59-3.36.59.6,1.19,1.2,1.78,1.8-.08.19-.06.36.07.52l-.87,7.07c.03.47.05.93.08,1.4.24-.49.49-.98.73-1.47.31-.65.63-1.3.94-1.95.24.06.48.12.72.18.05,1.1-.14,2.29.21,3.29.6,1.7,1.55,3.28,2.36,4.92.64-.36,1.27-.72,1.91-1.07,1.1,1.54,2.21,3.08,3.31,4.62.78.19,1.55.38,2.33.58.29-.03.59-.07.88-.1,1.48,1.83,2.96,3.66,4.44,5.49v-.09c.23.2.44.39.65.59h-.02c.19.19.38.4.57.6.42.37.84.73,1.26,1.1.42-.06.84-.13,1.26-.19,2.45,2.16,4.9,4.32,7.35,6.49-.21.28-.42.55-.62.83.35-.14.7-.27,1.05-.41.54.37,1.09.75,1.63,1.12.23.23.46.47.69.7.17-.31.33-.61.49-.92,2.2-3.7,4.4-7.4,6.6-11.1.35,0,.7-.02,1.05-.03.25.4.5.79.76,1.19.76-.62,1.53-1.24,2.29-1.85l1.08-.51c.43-.33.87-.65,1.3-.98,1.32-2.8,2.64-5.6,3.95-8.39h.64c.34,1.43.68,2.85,1.05,4.38,3.12-3.19,3.04-6.95,2.23-10.85.7.02,1.41.03,2.11.05.2.98.41,1.96.61,2.94-.04.29-.08.59-.13.88.25-.3.5-.61.74-.91.07-2.89.13-5.78.2-8.67.56.15,1.13.3,1.69.46.55,2.01,1.11,4.01,1.66,6.02,0,.28,0,.57,0,.85l.6-.98c.2-3.12.39-6.24.59-9.35.24-.22.49-.44.73-.66,1.26,1.55,2.52,3.1,3.78,4.65.23-.05.45-.11.68-.16-.32-2.65-.64-5.29-.96-7.94.18-.28.39-.55.53-.85.22-.49.39-.99.58-1.49.59.59,1.19,1.17,1.78,1.76.48-.25.95-.5,1.43-.75-.28-.34-.56-.68-.84-1.01,0-.39,0-.78,0-1.16.85-1.69,1.9-3.4-.58-4.68-.4-1.17-.8-2.35-1.2-3.52-.18-.19-.36-.38-.54-.57-.42-.39-.83-.78-1.25-1.17,0-.17,0-.33-.03-.5.04-.56.09-1.12.13-1.68,1.09.62,2.17,1.23,3.82,2.16-1.2-1.81-2.07-3.11-2.94-4.42.08-.15.16-.3.24-.45-.1.13-.2.26-.3.38-.47-.29-.94-.58-1.41-.86-.56-1.34-1.12-2.68-1.68-4.01.5,0,1,0,1.5,0,.35.52.7,1.03,1.05,1.55h.85c.5-3.77.99-7.54,1.49-11.31l-1.51-.49c-.4.74-.89,1.45-1.19,2.23-.49,1.28-.86,2.61-1.28,3.92-.76.19-1.52.39-2.28.58-.99-1.96-1.98-3.92-2.98-5.87-.37-.54-.73-1.07-1.1-1.61-.02.57-.04,1.13-.06,1.7.11,1.52.1,3.05.37,4.55.58,3.28.94,6.5-.79,9.58-.24.2-.48.39-.72.59-.42-3.17-.84-6.33-1.27-9.5-.16-.2-.33-.39-.49-.59-.21-1.08-.42-2.17-.63-3.25-.14-.98-.27-1.97-.42-3.04-1.93,1.66-2.88,1.45-3.16-.79-.28-2.23-1.41-1.73-3.01-1.34.57,1.07,1.01,1.89,1.42,2.64-.73.96-1.42,1.87-2.29,3.02,2.35.68,3.7-3.06,5.58-.32-.96.64-1.92,1.28-2.87,1.92-1.59-.3-3.33-1.12-4.21,1.15-.04.08-.09.16-.13.24.04-.08.09-.16.13-.23.6.4,1.2.81,1.79,1.21-3.46,1.47-6.98,2.47-10.77,1.37l.04-.82c-.27-1.98-1.58-1.44-2.8-1.13,0,0-.17-.11-.17-.11-.17-.38-.35-.75-.52-1.13-.36-.34-.71-.69-1.07-1.03-.24.55-.48,1.09-.73,1.64-.02.23-.03.46-.05.69-1.56-.73-3.12-1.45-4.68-2.18-.39-.5-1.07-.96-1.12-1.49-.16-1.6-.07-3.21-.08-4.82.41-.45.82-.89,1.22-1.34-.14-.1-.29-.2-.43-.3-.27.54-.54,1.09-.81,1.63-1.33.61-2.66,1.21-3.97,1.84-.46.22-.88.52-1.32.78v-1.62l-.81.05.23,2.09c-.46,1.16-.93,2.32-1.39,3.47-.51.41-1.02.82-1.53,1.23-1.64.38-3.27.77-4.91,1.15-.16-.18-.33-.37-.49-.55-.2-.22-.4-.44-.61-.66,0,0,0,0,0,0-.06-.63.04-1.33-.21-1.88-1.76-3.84-3.6-7.65-5.41-11.47.2-.27.39-.54.59-.81l-1.49-.47c-2.45.32-3.63,1.91-4.22,4.1-.15,0-.29,0-.44,0-.92-1.12-1.84-2.24-2.76-3.36.27-1.08.54-2.16.9-3.64-1.71.36-3.03.64-4.35.92l-.1-.12c-.35-.5-.7-1-1.05-1.51l-2.18-2.15c-.18-.23-.37-.45-.55-.68-.14-.43-.28-.85-.41-1.28.02-.63.04-1.25.06-1.88-.71.08-1.42.17-2.13.25-1.79-1.96-3.59-3.91-5.38-5.87.57-.18,1.21-.63,1.7-.51,12.1,3.04,24.25,1.96,36.29-.05,9.94-1.65,19.72-4.17,29.58-6.3.03.27.06.54.09.82-1.65.85-3.31,1.7-5.33,2.74,4.53.34,8.49.64,12.45.94,4.06,1.4,8.04,3.09,12.19,4.12,3.94.98,8.05,1.44,12.11,1.77,2.44.2,4.29-1.32,5.22-3.55.94-2.25-.32-3.95-1.9-5.41-.86-.79-1.83-1.46-2.74-2.19-8.86-6.14-18.6-8.58-29.03-5.27-14.97,4.74-29.84,9.7-45.57,11.41-6.96.76-13.91,1.61-20.85,0-5.69-1.33-6.64-2.37-7.66-7.81-.74,2.08-1.78,4.41-1.28,6.36.98,3.78,2.82,7.34,4.3,11-.03.99-1.2,2.88,1.43,1.76,1.29,1.39,2.58,2.78,3.87,4.17-.87.82-1.75,1.64-2.62,2.46-.98-1.01-1.96-2.02-2.95-3.03,1.58-2.52-.38-2.17-1.85-2.22l-.37-.54c.1-.5.2-1,.3-1.5-.33.18-.66.36-.99.55-3.83-5.37-6.49-11.08-4.54-17.83.87-3,2.32-5.77,5.88-6.54.18.25.36.51.55.76.22-.39.43-.79.65-1.18,1.22,1.14,2.82,2.07,3.6,3.45,3.61,6.38,8.82,8.7,16.1,7.29,2.07-.4,2.88-.72,3.66-2.93,3-8.61,6.28-17.15,9.92-25.51,2.46-5.65,7.07-6.94,12.62-4.04,2.34,1.23,4.23,1.59,6.7.13,6.82-4.01,12.59-1.24,17.94,3.25.53.36,1.06.71,1.6,1.07l9.71,8.22c-.13.69-.26,1.38-.39,2.07.52-.07,1.03-.13,1.55-.2.52,1.33,1.04,2.65,1.59,4.08,2.91.78,6.13,1.33,9.11,2.49,12.56,4.91,21.35,13.41,24.48,26.71,1.24,5.26.51,10.48-2.69,15.08-.38.54-1.33.69-2.02,1.02-.16-.07-.32-.15-.48-.22.13.1.26.21.39.31.2.27.4.55.6.82-2.02-.33-2.98.4-2.53,2.51-2.32,1.71-4.63,3.42-7.05,5.2.47.3,1.08.69,1.69,1.08-.12,1.7.82,1.96,2.22,1.6.75,1.6,1.49,3.2,2.36,5.04.7-.87,1.45-1.81,2.28-2.86,2.66,2.44,4.19,5.36,3.57,9.14l-.4,1.17c-.45,1.12-.9,2.25-1.28,3.2,3.48,1.92,6.96,4.21,10.74,5.81,3.8,1.61,4.82,4.35,4.72,7.97-.53.07-1.05.13-1.58.2l-5.39-5.8c-.22.17-.45.34-.67.5,2.45,7.87,4.9,15.73,7.34,23.6.24-.04.47-.08.71-.12-.86-4.34-1.71-8.68-2.57-13.01.33-.03.65-.06.98-.09,1.18,4.27,2.54,8.5,3.46,12.83.59,2.74.64,5.61.67,8.43,0,.74-.95,1.49-1.47,2.24l-2.52,1.32c-.36.15-.71.29-1.07.44-1.16-.62-2.09-.79-1.98,1.01-3.34,1.62-6.69,3.24-10.03,4.86-.41.19-.82.38-1.23.57-3.94,1.92-7.89,3.85-11.83,5.77-.34,0-.69,0-1.03-.01.12-6.51.15-13.02.39-19.52.09-2.33-.36-4.19-2.49-5.42-.24-.09-.48-.18-.72-.27-.3.19-.59.37-.89.56.01.28.02.56.04.84.38,7.81.8,15.62,1.08,23.43.03.89-.75,1.8-1.15,2.7-.39.19-.79.38-1.18.57-.12.17-.29.27-.5.29l-.76-.81c-.38-5.83-.77-11.66-1.15-17.48-.23-.33-.47-.65-.7-.98-.14.33-.27.65-.41.98-.44,1.73-.88,3.45-1.31,5.18-.43.17-.86.34-1.29.51.19-3.16.41-6.31.52-9.47.02-.47-.55-.95-.85-1.43-2.12-1.18-1.68.56-1.85,1.59-1.56,1.12-3.12,2.23-4.67,3.35.1-.11.19-.23.28-.34-.12.11-.24.23-.36.34-.37.65-.74,1.3-1.11,1.95-.97.05-1.93.11-2.9.16.99-1.89,1.98-3.77,2.97-5.66.34.05.68.1,1.02.15.02-.1.05-.19.07-.29-.28-.07-.55-.15-.83-.22.89-1.31,1.79-2.62,2.69-3.93.41.04.83.08,1.24.12,0-.16-.02-.33-.03-.49-.37.1-.74.2-1.11.29.82-1.07,1.65-2.15,2.47-3.22.16.07.32.14.48.21-.13-.1-.26-.21-.38-.31.84-1.64,1.79-3.24,2.51-4.94,1.35-3.13,2.57-6.32,3.93-9.69,4.89,1.3,7.28,7.2,12.58,9.34-3.28-3.74-6.56-7.48-9.84-11.22.29-.41.58-.81.87-1.22-.83-.2-1.65-.41-2.48-.61-1.48-1.64-2.96-3.28-4.8-5.31-1.64,11.8-5.94,22.19-11.32,32.23-2.99,5.58-3.48,11.4-.59,17.36,1.43,2.95,2.34,6.16,3.49,9.25-.02.48-.05.96-.07,1.43-.38.19-.76.38-1.14.57-.21-.01-.42-.02-.63-.03-1.17-3.25-2.34-6.5-3.5-9.76-.85-2.4-1.68-4.8-2.52-7.2.06-.19.07-.38.05-.57-.03-.76.12-1.57-.12-2.26-.42-1.23-1.13-1.57-1.85-.13-2.65-1.84-4.82-4.59-9.26-4.88,2.23,1.55,3.77,2.62,5.31,3.69.21.21.41.42.62.63.03.2.06.39.09.59-2.01-.84-4.03-1.67-5.37-2.23-1.17.87-1.87,1.39-2.57,1.91-.72-.03-1.44-.06-2.16-.09-.23,0-.47.02-.7.03.04.14.08.28.13.42.64.77,1.27,1.53,1.91,2.3l-.33.64c-1.13-.13-2.26-.26-3.36-.38.16.26.34.55.51.83-.01.97-.02,1.93-.03,2.9-.16-.11-.33-.22-.49-.32-.02.16-.04.32-.06.47.02-.15.04-.3.06-.46.32.28.64.55.96.83-.16.06-.31.12-.47.18.16-.06.32-.12.48-.18.86,1.38,1.72,2.75,2.58,4.13-.02.83-.04,1.65-.03,2.46-.11.07-.25.11-.25.16-.02.2,0,.4,0,.6.09-.24.17-.48.25-.76.36-.17.74-.37,1.13-.56,2.52,4.26,5.04,8.51,8.02,13.53-1.94.18-3.33.31-4.71.43.4-1.88.34-1.99-.91-1.68-2.79-4.82-5.57-9.65-8.36-14.47-.39-.63-.78-1.26-1.16-1.89-1.57-2.38-3.14-4.76-4.7-7.13-.57-.89-1.13-1.78-1.97-3.1-.21,1.05-.31,1.56-.41,2.07-1.48.6-1.46,1.35-.6,2.63,2.01,2.97,3.83,6.07,5.72,9.11.3.55.61,1.09.91,1.64,3.11,4.79,6.23,9.58,9.59,14.75-4.41,2.19-8.48,4.23-12.56,6.23-1.4.69-2.78,1.57-4.27,1.9-1.29.29-2.73-.07-4.11-.15-.28-.46-.57-.93-.85-1.39-.31.26-.62.51-.93.77-1.21-.47-2.42-.94-3.63-1.41-.61-.24-1.22-.48-1.83-.72-9.92-3.62-19.85-7.24-29.77-10.87-1.93-.71-3.84-1.46-5.76-2.19-.5-1.98-1-3.96-1.51-5.93.66-.72,1.34-1.41,1.96-2.15,3.52-4.17,5.35-8.91,4.84-14.39-.06-.59.48-2.42-1.42-1.32-.53-1.37-1.05-2.74-1.58-4.11,1.64-2.73,1.78-5.64,1.08-8.81h-5.06c-1.49-1.34-2.06-.34-2.51.96v.03c-.75.81-1.5,1.61-2.26,2.42-1.19,2.75-2.37,5.49-3.56,8.24-1.06-.22-2.12-.44-3.18-.67,1.03-1.78,2.07-3.57,3.27-5.64h-11.4c-1.76-.81-3.52-1.61-5.28-2.42.41-.41.83-.82,1.24-1.23,2.77.44,5.55.88,8.32,1.32,1.17-.2,2.33-.4,3.5-.6.2.03.39.06.59.08l.7,1.32c.17-.41.33-.82.5-1.23,2.59-1.08,4.43-2.84,5.25-5.56-.13-.58-.27-1.17-.4-1.75-1.04-.61-2.01-1.57-3.13-1.77-2.6-.46-5.26-.56-7.89-.81-1.11-.51-2.21-1.03-3.32-1.54,0-.78,0-1.56,0-2.34,2.81.19,5.62.53,8.43.49.76,0,1.51-1.12,2.26-1.72-.2-.56-.39-1.11-.59-1.67.18-1.57.36-3.14.53-4.7ZM185.46,133.48c.09.03.19.07.28.1-.07-.05-.15-.11-.22-.16-.1-.03-.2-.07-.3-.1.08.06.16.11.23.17ZM132.74,14.03c-.15-.08-.31-.11-.49-.11-3.65-2.76-7.25-5.57-10.96-8.25-3.18-2.29-6.66-2.42-9.91-.28-3.45,2.26-6.68,2-10.23.27-4.58-2.23-6.1-1.66-8.13,3.09-2.32,5.41-4.36,10.94-6.53,16.42-.06.44-.12.87-.19,1.31.21.02.43.05.64.07.05-.42.11-.84.16-1.26,3.16-.76,6.32-1.52,9.48-2.29-.09.12-.18.24-.26.37.1-.12.2-.23.3-.35,5.7-1.66,11.41-1.27,17.12-.02-.1.14-.21.29-.5.7.31-.4.42-.55.53-.69,1.95.32,3.89.64,6.4,1.05-.74-4.95-1.42-9.53-2.1-14.11,1.72-.34,3.45-.69,5.17-1.03,2.87,1.83,5.74,3.65,8.61,5.47.29.06.58.13.87.19.49.29.98.58,1.47.87.07-.44.15-.87.22-1.31-.56-.03-1.11-.07-1.67-.1ZM163.38,84.05l-.16-.14c.78-.71,1.56-1.43,2.52-2.3-.71-.08-1.25-.13-1.79-.19-.72-.36-1.43-.73-2.27-1.15.53-.49.87-.8.9-.83-2.35-1.66-4.58-3.24-6.82-4.82-.65-.86-1.29-1.73-1.94-2.59-.3.38-.59.76-.89,1.14.85,1.92,1.7,3.84,2.55,5.76-1.52.83-3.04,1.67-4.57,2.5-.69-1.26-1.38-2.53-2.19-3.99-.36.59-.58.78-.54.9.77,2.18,1.56,4.36,2.35,6.53.24.39.48.78.72,1.17,2.54,2.06,4.78,4.79,7.68,6.04,5.41,2.34,11.09-1.42,10.84-6.49h-3.89c.14-2.06-.22-3.34-2.5-1.52ZM118.52,51.53c.18.5.37.99.55,1.49l2.28-1.52c.32.21.65.42.97.63.52.41,1.04.82,1.56,1.22.9.96,1.8,1.91,3.17,3.37.8-3.86-1.17-3.89-3.05-4.02.02-.4.03-.79.05-1.19.5-.47,1-.94,1.51-1.4-.14-1.01-.27-2.01-.41-3.02-.46-.27-.92-.55-1.38-.82-3.31-.42-6.62-.84-9.92-1.26-.11-.15-.22-.43-.34-.44-9.68-.62-19.29-.47-28.48,3.11-.86.33-1.43,1.37-2.14,2.07-.72.66-1.44,1.32-2.15,1.98.12.24.23.47.35.71.63-.12,1.25-.23,1.88-.35,3.56.21,7.11.42,10.67.63l.8.81c.07-.41.15-.82.22-1.23.45-.04.9-.08,1.34-.12v1.05c.47,1.38.94,2.75,1.41,4.13.25-.08.5-.16.74-.24-.1-.7-.21-1.4-.31-2.1h.22s.22,0,.22,0c.66.14,1.31.28,1.97.42-.03-.37-.05-.73-.08-1.1-.01-.17-.02-.34-.02-.51.4-.2.79-.39,1.19-.59,0-.38,0-.75,0-1.13,2.81-.05,4.69.98,6.06,3.65,2.4,4.71,4.8,9.52,9.42,12.67l-2.43.89c.08.2.16.4.24.59,1.1-.41,2.19-.82,3.29-1.23-.08-.63,0-1.34-.25-1.89-1.82-3.82-3.74-7.59-5.56-11.41-.36-.76-.43-1.66-.63-2.5.32-.24.64-.49.96-.73,1.6-.24,3.21-.48,4.81-.72.43.03.86.06,1.29.09ZM76.69,117.54c.26.28.53.57.79.85.11-.15.21-.31.32-.46-.36-.15-.73-.3-1.09-.46-.03-2.35-2.06-5.82-3.88-6.41-.23,2.1-.45,4.15-.66,6.11,1.76.14,3.14.25,4.52.35ZM173.16,112.61c-.64-.61-1.34-1.18-1.92-1.84-1.96-2.25-3.76-4.66-5.89-6.73-.84-.81-2.41-.87-3.8-1.32,2.88,3.17,5.45,5.99,8.02,8.82-.21,1.07-.71,2.33,1.31,1.93.71.97,1.41,1.94,2.3,3.17v-3.86c.17-.04.34-.07.59-.12-.25-.02-.42-.03-.6-.04ZM85.63,128.86c.49-.38.97-.76,1.46-1.14-.12-.17-.24-.34-.36-.52-.62.13-1.24.26-1.86.39-.47-.86-.95-1.72-1.42-2.58l-.35-2.3c-.25.3-.5.59-.76.89-2.03-.15-3.14.73-3.61,2.74-.36,1.55-1.11,3-1.81,4.81,3.04-.45,5.86-.86,8.68-1.33.06-.01.02-.62.03-.96ZM84.12,157.46c-.73,3.07,1.67,2.03,3.08,2.3.81.43,1.63.86,2.49,1.32,1.55-2.65,2.99-5.14,4.62-7.93-4.53.57-8.71,1.1-13.26,1.68,1.22,1.05,2.15,1.84,3.07,2.63ZM82.94,142.23c-.3.62-.59,1.23-.89,1.85-2.18-.06-2.07,1.07-1.35,2.53-.23.67-.46,1.34-.79,2.29,4.58-.67,8.83-1.29,13.47-1.97-2.57-1.94-4.66-3.53-6.76-5.11.47-.28.94-.56,1.41-.84-.43-.5-.83-1.37-1.29-1.4-.64-.05-1.32.53-1.99.84-.22.01-.44.02-.66.04-.69.33-1.39.66-2.08.99.31.26.62.52.92.78ZM134.04,50.95c-.31.22-.63.44-.94.66.3.13.61.26.91.39.3.45.59.9.89,1.34-.33.74-.65,1.49-.98,2.23-.35.8-.83,1.57-.99,2.4-.1.53.29,1.15.69,2.53.76-1.68,1.1-2.43,1.44-3.18,2.52,3.36,5.34,4.56,8.65,3.44.8-.27,1.38-1.17,2.06-1.79-.19-.32-.38-.65-.58-.97.46-.29.93-.57,1.65-1.01-3.62-.57-7.09-.83-9.06-4.15.41-.23.81-.46,1.22-.69-.1-.13-.2-.26-.3-.38-.32.33-.64.67-.96,1-1.23-.61-2.46-1.23-3.69-1.84ZM68.55,118.34c-.03,1.24-.43,2.61-.05,3.7,3.82,10.88,4.73,21.86,1.48,33.04-.2.42-.4.85-.61,1.27.15.07.31.14.46.22.23-.45.45-.9.68-1.35.41-.51.92-.97,1.21-1.53,6.15-12.2,3.13-23.91-2-35.49-.11-.25-.63-.33-.96-.48-.29-.1-.58-.19-.87-.29.22.31.43.61.65.92ZM169.21,99.97l14.72,30.56c.4-1.17.28-2.18-.02-3.14-2.88-9.4-5.78-18.79-8.67-28.19.06-.16.12-.32.18-.48-.1.13-.2.26-.3.39-2.28-.89-4.55-1.77-6.83-2.66-.33-.37-.67-.75-1-1.12-.15.15-.31.3-.46.44.3.27.59.54.89.81.22.68.45,1.37.67,2.05.27.45.54.9.81,1.35ZM98.92,23.97c-1.43,1.66-2.56,2.98-3.73,4.34,1.11,1.26,2.11,2.39,3.2,3.62,1.56-1.53,2.87-2.81,4.23-4.13-1.25-1.3-2.38-2.47-3.69-3.83ZM86.86,34.14c.97-1.51,1.79-2.78,2.67-4.14-1.11-.93-2.1-1.75-3.19-2.66-.96,1.48-1.73,2.69-2.59,4.03.98.87,1.91,1.7,3.11,2.78ZM109.72,27.36c2.01,3.63,3.83.09,6.13.23-1.19-1.29-2.02-2.19-2.9-3.14-1.04.93-1.98,1.78-3.24,2.9ZM102.85,53.75l-1.05-.06.21,2.23c.32-.03.64-.05.96-.08-.04-.7-.08-1.39-.13-2.09ZM104.37,65.61c.21.09.43.18.64.27.3-.47.61-.94.91-1.42-.39-.18-.78-.36-1.16-.54-.13.56-.26,1.12-.39,1.68ZM126.13,58.38c.28.16.56.32.85.47.29-.48.58-.97.87-1.45-.3-.17-.61-.34-.91-.5-.27.5-.54.99-.8,1.49ZM166.85,37.4c-.17.11-.35.23-.52.34.07.26.06.67.21.73.3.13.68.06,1.03.08l-.72-1.15ZM150.15,98.16c.08-.24.16-.48.24-.72-.54-.16-1.08-.31-1.62-.47-.07.2-.13.41-.2.61.52.19,1.05.38,1.57.57ZM174.6,120.36c.18-.06.36-.12.55-.18-.16-.46-.33-.91-.49-1.37-.15.05-.3.1-.46.15.13.46.27.93.4,1.39ZM131.36,58.38c-.39-.25-.65-.48-.95-.56-.08-.02-.46.52-.41.59.18.25.48.45.78.58.07.03.3-.31.58-.61ZM187.88,128.42c-.51.75-.65.97-.8,1.19.16.08.36.27.48.23.23-.08.53-.26.58-.45.06-.21-.12-.49-.26-.96ZM115.35,162.95c-.27-.21-.48-.49-.68-.48-.2,0-.39.31-.58.48.23.2.44.45.71.58.06.03.32-.33.55-.58ZM119.09,136.72c-.15-.23-.29-.45-.43-.68-.18.16-.37.32-.55.48.19.2.37.4.56.6.12-.11.24-.23.42-.39ZM142.59,107.27c-.06-.16-.09-.41-.2-.46-.11-.05-.32.1-.48.16.06.16.09.41.2.46.11.05.32-.1.48-.16ZM148.3,75.28c.07-.16.23-.36.18-.47-.05-.11-.3-.15-.46-.22-.07.16-.23.36-.18.47.05.12.3.15.46.22ZM151.94,70.39c.16.07.36.23.47.18.12-.04.24-.33.2-.44-.04-.11-.33-.24-.45-.19-.12.05-.15.29-.22.45ZM135.54,49.51c.08.03.16.06.25.09.03-.07.09-.19.07-.21-.06-.05-.16-.07-.24-.09-.03.07-.05.14-.08.21ZM132.99,49.38c.05-.17.09-.28.12-.38-.07.02-.15.04-.22.06.02.08.05.16.1.32ZM56.15,28.18c-.02-.08-.03-.18-.08-.24-.02-.02-.14.03-.21.05.03.08.03.18.08.24.02.02.14-.03.21-.05ZM143.26,105.37c-.04-.08-.08-.15-.12-.23-.05.07-.15.13-.15.2,0,.07.07.15.11.22.05-.07.11-.13.16-.2Z" style="fill: #050505; stroke-width: 0px;"/>
    <path d="M68.74,80.65c-.03-.83-.05-1.65-.08-2.48,2.29-.61,4.41-1.41,4.8-3.9-2.72.93-5.4,1.85-8.09,2.76-.06-1.08-.12-2.17-.19-3.25,3.19-.92,5.92-2.47,7.67-5.39.29.83.95,1.73.81,2.49-.37,2.03.77,2.25,2.27,2.27-.03.87-.09,1.74-.08,2.62.05,4.64,1.26,5.48,5.45,3.97-.51-1.72-1.03-3.44-1.62-5.42,4.49,1.52,5.88,1.08,7.76-2.06-1.5-.28-3.05-.57-4.6-.86.27-.64.55-1.29.82-1.93,0-.39,0-.77.01-1.16h0c-.37-.85-.74-1.7-1.1-2.55.4-.11.8-.21,1.2-.32,1.11,1.01,2.22,2.01,3.33,3.02,0,0,0,0,0,0,.2.22.4.44.61.66.16.18.33.37.49.55,1.25.38,2.51.75,3.76,1.13.26.5.52,1.01.52,1,1.88.09,3.38.17,4.89.23.94.04,1.87.03,2.81.05,2.03.11,4.06.32,6.08.25.52-.02,1-.97,1.49-1.5.02-.55.04-1.1.05-1.65.02-.23.03-.46.05-.69.39,0,.78.02,1.17.03.38.17.76.33,1.14.5,0,0,.17.11.17.11.93.38,1.87.76,2.8,1.13l-.04.82c-.64-.04-1.28-.08-2.08-.12,5.63,5.56,10.43,6.77,15.3,3.65.4,1.12.78,2.16,1.15,3.2-.49,1.49-.98,2.98-1.47,4.46-.28.79-.75,1.56-.79,2.36-.04.94.3,1.9.36,2.21-2.55-.89-5.13-1.79-8.18-2.85.3,1.9.53,2.82.58,3.76.05.96-.07,1.93-.12,2.9-.71-1.22-1.21-2.64-2.18-3.6-.71-.71-2.04-.81-3.09-1.18-1.18.67-2.36,1.34-3.54,2.01-.05-.75-.09-1.5-.11-1.85h-12.34c.01-.61.03-1.22.04-1.84.97-.03,1.94-.06,2.9-.09,1.98-.16,3.97-.32,5.95-.49,1.79-.22,3.57-.44,5.36-.67-.01-.39-.02-.79-.03-1.18-1.97-.09-3.94-.17-5.92-.26-1.79.06-3.58.13-5.36.19-1.69-.16-3.37-.32-5.19-.49.22.87.35,1.39.48,1.9-.19,1-.38,1.99-.57,2.99v-.02c-.39-.62-.82-1.24-1.21-1.87-.83-1.35-1.65-2.7-2.48-4.05-.58-.19-1.2-.64-1.72-.54-4.93.89-9.84,1.87-14.76,2.82-.02.27-.04.55-.06.82.61.17,1.22.33,1.83.5l-.47,3.83c-.44.07-.87.15-1.31.22-1.09-.43-2.18-.86-3.7-1.46.63-1.81,1.35-3.91,2.27-6.57-.07-.05-.95-1.08-1.41-.92-.78.26-1.29,1.28-1.92,1.98-.19-.06-.38-.11-.57-.17ZM105.11,78.61c1.95.42,4.13.42,5.8,1.33,3.5,1.92,7.16.93,10.73,1.07,1.11.04,2.27-1.06,3.41-1.64q-6.11-.05-11.66-3.77c-.16-.11-.34-.2-.5-.31-4.32-2.76-7.87-2.32-11.64,1.1-.6.54-2.73.54-3.13.02-2.63-3.43-5.58-4.07-9.46-2.06-2.09,1.09-4.44,1.68-6.65,2.5.07-.17.13-.34.2-.5-.06.17-.11.34-.17.51,1.74.47,3.44,1.12,5.21,1.36,3.53.47,7.08.89,10.63,1,2.4.08,4.82-.39,7.23-.61,0,0,0,0,0,0Z" style="fill: #070707; stroke-width: 0px;"/>
    <path d="M48.23,162.14c-7.67-.18-14.36-2.66-19.71-8.25.55.03,1.11.07,1.66.1.11.11.21.23.32.34-.05-.17-.1-.34-.15-.5-.68-1.61-1.36-3.22-2.04-4.83,2.2,1.58,4.3,3.3,6.61,4.7,5.1,3.08,10.39,5.58,16.7,4.3,1.17-.24,2.91-.53,1.79,1.75-1.72.8-3.44,1.59-5.16,2.39Z" style="fill: #959595; stroke-width: 0px;"/>
    <path d="M75.94,73.16c-1.5-.02-2.64-.24-2.27-2.27.14-.76-.52-1.65-.81-2.49.43-1.06.86-2.11,1.35-3.32-1.54-.98-3.07-1.95-4.59-2.92,1.88.09,2.98-.61,2.74-2.66,1.17.46,2.34.91,3.51,1.37.25-.02.49-.04.74-.07h.24s.23.05.23.05c0,.78.02,1.55.03,2.33-1.35,2.16.46,1.67,1.54,1.79.48.4.96.8,1.44,1.19.2.56.4,1.13.59,1.69-.24.43-.47.87-.71,1.3-.66.08-1.65-.08-1.92.29-.85,1.13-1.43,2.47-2.11,3.72Z" style="fill: #050505; stroke-width: 0px;"/>
    <path d="M72.36,59.5c.24,2.05-.86,2.74-2.74,2.66-3.14-2.35-6.27-4.71-9.41-7.06.87-.82,1.75-1.64,2.62-2.46,3.18,2.29,6.36,4.58,9.54,6.87Z" style="fill: #070707; stroke-width: 0px;"/>
    <path d="M118.98,139.58c.7-.52,1.4-1.04,2.57-1.91,1.34.55,3.35,1.39,5.37,2.23.81.93,1.61,1.86,2.42,2.8-3.45-1.04-6.91-2.08-10.36-3.11ZM121.25,138.92c-.06-.03-.12-.06-.18-.09,0,.12,0,.23,0,.35.06-.03.14-.04.17-.09.03-.04,0-.11,0-.17Z" style="fill: #959595; stroke-width: 0px;"/>
    <path d="M129.34,142.69c-.81-.93-1.61-1.86-2.42-2.8-.03-.2-.06-.39-.09-.59-.21-.21-.41-.42-.62-.63-1.54-1.07-3.08-2.14-5.31-3.69,4.44.28,6.61,3.03,9.26,4.88.66.8,1.31,1.59,1.97,2.39.02.19,0,.38-.05.57-.92-.04-1.83-.09-2.75-.13Z" style="fill: #dedede; stroke-width: 0px;"/>
    <path d="M137,135.97c.97-.05,1.93-.11,2.9-.16-1.14,1.29-2.29,2.57-3.43,3.86-.22-.16-.44-.32-.66-.49.4-1.07.79-2.14,1.19-3.21Z" style="fill: #070707; stroke-width: 0px;"/>
    <path d="M114.94,146.23c.01-.97.02-1.93.03-2.9.97.66,1.95,1.32,3.06,2.07-1.25.34-2.17.58-3.1.83Z" style="fill: #070707; stroke-width: 0px;"/>
    <path d="M104.88,140.52c.1-.51.2-1.02.41-2.07.84,1.32,1.41,2.21,1.97,3.1-.8-.34-1.59-.69-2.39-1.03Z" style="fill: #070707; stroke-width: 0px;"/>
    <path d="M168.34,69.16c-.45-2.11.51-2.84,2.53-2.51-.84.84-1.69,1.67-2.53,2.51Z" style="fill: #070707; stroke-width: 0px;"/>
    <path d="M147.96,139.83c.43-.17.86-.34,1.29-.51-.24,1.01-.47,2.01-.71,3.02-.32-.06-.64-.12-.96-.17.13-.78.25-1.56.38-2.33Z" style="fill: #070707; stroke-width: 0px;"/>
    <path d="M153.16,104.28c.83.2,1.65.41,2.48.61-.29.41-.58.81-.87,1.22-.54-.61-1.07-1.22-1.61-1.83Z" style="fill: #070707; stroke-width: 0px;"/>
    <path d="M55.42,49.83c1.47.05,3.43-.3,1.85,2.22-.62-.74-1.23-1.48-1.85-2.22Z" style="fill: #070707; stroke-width: 0px;"/>
    <path d="M139.89,16.35c-.52.07-1.03.13-1.55.2.13-.69.26-1.38.39-2.07.39.62.78,1.25,1.16,1.87Z" style="fill: #070707; stroke-width: 0px;"/>
    <path d="M119.09,152.77c-.39.19-.78.39-1.16.58.02-.83.04-1.65.06-2.48.37.63.73,1.26,1.1,1.89Z" style="fill: #070707; stroke-width: 0px;"/>
    <path d="M185.62,106.72c.53-.07,1.05-.13,1.58-.2v3.2c-.67-1.27-1.13-2.14-1.58-3Z" style="fill: #070707; stroke-width: 0px;"/>
    <path d="M165.21,77.05c-1.4.36-2.34.1-2.22-1.6l2.22,1.6Z" style="fill: #070707; stroke-width: 0px;"/>
    <path d="M145.77,130.51c.18-1.03-.27-2.77,1.85-1.59l-1.85,1.59Z" style="fill: #070707; stroke-width: 0px;"/>
    <path d="M186.16,136.61c.84-.44,1.68-.88,2.52-1.32-.84.44-1.68.88-2.52,1.32Z" style="fill: #070707; stroke-width: 0px;"/>
    <path d="M183.11,138.06c-.11-1.8.82-1.63,1.98-1.01-.66.34-1.32.67-1.98,1.01Z" style="fill: #070707; stroke-width: 0px;"/>
    <path d="M97.78,176.02c.31-.26.62-.51.93-.77.28.46.57.93.85,1.39-.59-.21-1.19-.41-1.78-.62Z" style="fill: #070707; stroke-width: 0px;"/>
    <path d="M186.02,111.79c-.33.03-.65.06-.98.09-.19-.58-.39-1.15-.58-1.73.2-.1.4-.19.6-.29.32.64.64,1.28.96,1.92Z" style="fill: #070707; stroke-width: 0px;"/>
    <path d="M121.49,165.05c1.25-.31,1.31-.2.91,1.68-.3-.56-.61-1.12-.91-1.68Z" style="fill: #070707; stroke-width: 0px;"/>
    <path d="M156.18,124.05c.24.09.48.18.72.27-.53.38-1.05.76-1.58,1.14-.01-.28-.02-.56-.04-.84.3-.19.59-.37.89-.56Z" style="fill: #070707; stroke-width: 0px;"/>
    <path d="M92.32,173.9c.61.24,1.22.48,1.83.72-.61-.24-1.22-.48-1.83-.72Z" style="fill: #070707; stroke-width: 0px;"/>
    <path d="M56.89,23.55c-.22.39-.43.79-.65,1.18-.18-.25-.36-.51-.55-.76.4-.14.79-.28,1.19-.42Z" style="fill: #070707; stroke-width: 0px;"/>
    <path d="M56.26,80.78c-.52,0-1.05,0-1.57,0,.15-.42.29-.84.55-1.58.46.72.74,1.16,1.02,1.59Z" style="fill: #070707; stroke-width: 0px;"/>
    <path d="M111.96,148.68c.39.63.78,1.26,1.16,1.89-.39-.63-.78-1.26-1.16-1.89Z" style="fill: #070707; stroke-width: 0px;"/>
    <path d="M54.36,48.34c.33-.18.66-.36.99-.55-.1.5-.2,1-.3,1.5l-.69-.95Z" style="fill: #070707; stroke-width: 0px;"/>
    <path d="M61.55,80.79c.34.21.68.41,1.01.62-.28.17-.57.35-.85.52-.05-.38-.11-.76-.16-1.14Z" style="fill: #070707; stroke-width: 0px;"/>
    <path d="M44.45,163.31c0,.21,0,.42.01.63-.4.14-.8.28-1.2.41.39-.35.79-.7,1.18-1.05,0,0,0,0,0,0Z" style="fill: #070707; stroke-width: 0px;"/>
    <path d="M29.03,160.4c.4.17.8.35,1.2.52-.4-.17-.8-.35-1.2-.52Z" style="fill: #070707; stroke-width: 0px;"/>
    <path d="M110.91,153.9c-.3-.55-.61-1.09-.91-1.64.3.55.61,1.09.91,1.64Z" style="fill: #070707; stroke-width: 0px;"/>
    <path d="M154.07,152.15c.39-.19.79-.38,1.18-.57-.39.19-.79.38-1.18.57Z" style="fill: #070707; stroke-width: 0px;"/>
    <path d="M173.02,89.54c.13-.39.27-.78.4-1.17-.13.39-.27.78-.4,1.17Z" style="fill: #070707; stroke-width: 0px;"/>
    <path d="M171.85,143.49l1.23-.57-1.23.57Z" style="fill: #070707; stroke-width: 0px;"/>
    <path d="M129.02,6.26c-.53-.36-1.06-.71-1.6-1.07.53.36,1.06.71,1.6,1.07Z" style="fill: #070707; stroke-width: 0px;"/>
    <path d="M150.56,134.13c.14-.33.27-.65.41-.98.23.33.47.65.7.98-.37,0-.74,0-1.11,0Z" style="fill: #070707; stroke-width: 0px;"/>
    <path d="M143.02,125.95c.37-.1.74-.2,1.11-.29,0,.16.02.33.03.49-.41-.04-.83-.08-1.24-.12,0,0,.1-.08.1-.08Z" style="fill: #070707; stroke-width: 0px;"/>
    <path d="M159,149.25c.34,0,.69,0,1.03.01-.34,0-.69,0-1.03-.01Z" style="fill: #070707; stroke-width: 0px;"/>
    <path d="M152.82,151.62c.25.27.51.54.76.81-.23.07-.47.14-.7.2-.02-.34-.04-.68-.06-1.02Z" style="fill: #070707; stroke-width: 0px;"/>
    <path d="M139.86,159.24c.02-.48.05-.96.07-1.43-.02.48-.05.96-.07,1.43Z" style="fill: #070707; stroke-width: 0px;"/>
    <path d="M57.64,88.96c.2.14.4.27.59.41-.27.05-.53.11-.8.16.07-.19.14-.38.21-.57Z" style="fill: #070707; stroke-width: 0px;"/>
    <path d="M140.23,129.95c.28.07.55.15.83.22-.02.1-.05.19-.07.29-.34-.05-.68-.1-1.02-.15-.03-.2.06-.32.26-.36Z" style="fill: #070707; stroke-width: 0px;"/>
    <path d="M141.01,133.86c.12-.11.24-.23.36-.34-.09.11-.18.23-.28.34,0,0-.09,0-.09,0Z" style="fill: #070707; stroke-width: 0px;"/>
    <path d="M114.45,145.93c-.02.15-.04.3-.06.46.02-.16.04-.32.06-.47,0,0,0,.02,0,.02Z" style="fill: #070707; stroke-width: 0px;"/>
    <path d="M115.41,146.75c-.16.06-.32.12-.48.18.16-.06.31-.12.47-.18,0,0,0,0,0,0Z" style="fill: #070707; stroke-width: 0px;"/>
    <path d="M138.1,159.78c.21.01.42.02.63.03-.15.13-.31.25-.46.38-.05-.14-.11-.27-.16-.41Z" style="fill: #070707; stroke-width: 0px;"/>
    <path d="M120.05,168.08c.08.08.15.14.22.2-.13.06-.25.15-.38.18-.05.01-.12-.12-.19-.18.12-.07.25-.14.35-.2Z" style="fill: #070707; stroke-width: 0px;"/>
    <path d="M116.24,139.94c-.04-.14-.08-.28-.13-.42.23,0,.47-.02.7-.03-.19.15-.38.3-.57.45Z" style="fill: #959595; stroke-width: 0px;"/>
    <path d="M30.2,127.06c1.76.81,3.52,1.61,5.28,2.42-2.36,4.35-3.33,4.77-7.98,3.78-.71-.15-1.53.2-2.3.31-2.98-2.28-5.49-4.66-5.15-8.99.16-2.11-.66-4.39-1.44-6.45-1.16-3.08-.95-5.67.95-8.52.98-1.46,1.17-3.87.82-5.68-1-5.19-.44-7.34,3.77-10.34,2.3,3.24,5.69,3.08,9.3,3.02,4.84-.07,8.91,2.2,12.23,5.62.49.51.33,1.64.48,2.48-1.68-1.39-3.74-3.09-5.5-.87-2.02,2.55-4.35,3.88-8.07,3.96,1.18,1.87,2.07,3.29,2.96,4.7-3.51-1.23-7.03-2.46-10.44-3.66.32,1.02.75,2.38,1.17,3.72,3.12.91,6.2,1.82,9.29,2.72,1.11.51,2.21,1.03,3.32,1.54-2.66,5.02-6.78,5.88-12.29,3.27,1.56,2.2,2.58,3.65,3.6,5.09-.17.07-.35.07-.52,0-1.73-1.14-3.46-2.28-5.59-3.69.66,3.03,2.55,4.17,4.81,4.97.44.2.88.39,1.33.59Z" style="fill: #f5f6f6; stroke-width: 0px;"/>
    <path d="M46.6,89.42c2.44,1.05,4.88,2.1,7.32,3.15v.67c-1.86.56-3.71,1.12-5.33,1.61-.87-1.4-1.79-2.9-2.9-4.69-.51,1.73-.82,2.8-1.14,3.87-.19.45-.38.9-.57,1.35-1.58-.16-3.16-.33-4.61-.48.55-2.3.95-3.98,1.36-5.67-.01-.25-.03-.5-.04-.75-.21.08-.42.16-.63.25-1.31,1.06-2.61,2.12-3.92,3.18-1.06-1.16-1.9-2.76-3.22-3.39-2.04-.98-4.41-1.29-6.64-1.89.38-1.65,1.25-3.41-.84-4.31-1.62,1.54-3.17,3.01-4.72,4.48-.26-.56-.55-1.6-.78-1.59-3.1.18-6.19.51-9.28.8-2.08-1-4.16-2-6.24-3-.24-.38-.48-.76-.72-1.14-.48-4.37,1.02-6.31,5.4-6.99,4.33-.68,8.54.03,12.37,1.87,8.45,4.06,16.75,8.42,25.12,12.66Z" style="fill: #f4f4f4; stroke-width: 0px;"/>
    <path d="M53.92,93.24v-.67c1.74.18,3.48.32,5.21.56,4.81.67,6.37,2.77,6.99,9.28-.34.02-.69.04-1.03.07-.45,1.12-.89,2.24-1.34,3.37-.95,1.67-1.91,3.34-2.86,5.01l-2.76,1.47.49-1.19.97-2.81c2.35-1.92,3.45-4.34,3.27-6.71-2.09-.78-3.76-1.4-5.33-1.99-.25.75-.48,1.48-.72,2.22-.85.28-1.7.57-2.55.85.09.3.18.61.26.91h3.1c.55,1.16,1.11,2.32,1.66,3.47-.61.96-1.23,1.92-2.04,3.2-1.91-1.11-3.79-2.21-5.66-3.3.4-1.07.8-2.14,1.2-3.21-.29-.1-.57-.19-.86-.29-.31,1.16-.63,2.31-.94,3.47.48.97.97,1.94,1.45,2.9-1.2.02-2.39.05-3.59.07-.17-1.52-.33-3.05-.5-4.57,1.09-4.27,1.85-8.72,6.12-11.32-.17-.26-.35-.52-.52-.78Z" style="fill: #efefef; stroke-width: 0px;"/>
    <path d="M30.18,153.99c-.55-.03-1.11-.07-1.66-.1-1.79-1.76-3.57-3.51-5.36-5.27-.17-.12-.34-.24-.52-.37l.09.71c.04.51.08,1.01.19,2.35-2.96-3.19-4.26-6.3-5.19-9.61-1-2.28-2-4.56-2.97-6.76-.21,1.92-.44,4.09-.68,6.26-.56-3.07-1.11-6.14-1.67-9.21-.16-.86-.35-1.71-.52-2.57,0,0,0-.06,0-.06.7-1.26,1.36-2.54,2.1-3.77.72-1.2,1.53-2.35,2.37-3.63,1.15,10.48,6.49,18.78,11.94,27.03.68,1.61,1.36,3.22,2.04,4.83,0,0-.16.16-.16.16Z" style="fill: #f2f2f2; stroke-width: 0px;"/>
    <path d="M60.66,137.04c1.9-1.1,1.37.73,1.42,1.32.51,5.47-1.32,10.22-4.84,14.39-.63.74-1.31,1.43-1.96,2.15-1.86.21-3.72.42-5.59.63-.05-.29-.1-.59-.15-.88.88-.54,1.75-1.08,2.63-1.62-.03-.2-.07-.41-.1-.61-1.35.07-2.7.14-4.24.22,1.62-2.05,3.06-3.86,4.5-5.67,0,0,.09-.06.09-.06.28.08.56.15.84.23.03-.29.05-.58.08-.86-.41-1.01-.82-2.02-1.24-3.03,2.86-2.07,5.71-4.13,8.57-6.2Z" style="fill: #959595; stroke-width: 0px;"/>
    <path d="M25.2,133.57c.77-.12,1.59-.46,2.3-.31,4.65.99,5.62.56,7.98-3.78h11.4c-1.2,2.07-2.24,3.86-3.27,5.64-4.32,2.29-8.84,3.11-13.6,1.67-1.2-.36-2.28-1.13-3.42-1.71-.22-.32-.44-.63-.67-.95,0,0,.06.04.06.04-.21-.21-.42-.42-.63-.63,0,0-.15.04-.15.04Z" style="fill: #949494; stroke-width: 0px;"/>
    <path d="M35.54,112.5c-.89-1.41-1.78-2.82-2.96-4.7,3.72-.08,6.05-1.41,8.07-3.96,1.76-2.22,3.82-.52,5.5.87.01.21.03.42.04.63-.18,1.57-.36,3.14-.53,4.7.2.56.39,1.11.59,1.67-.75.6-1.5,1.71-2.26,1.72-2.81.03-5.62-.3-8.43-.49-.1-.14-.11-.29-.02-.44Z" style="fill: #929292; stroke-width: 0px;"/>
    <path d="M11.89,129.36s0,.06,0,.06c-1.9-.89-1.79.76-1.69,1.58.47,3.83,1.1,7.65,1.73,11.46.15.88.56,1.72.95,2.87-8.02-4.77-10.44-15.21-.84-21.38-.5,1.43-1.01,2.52-1.23,3.67-.14.71-.94,2.19,1.08,1.74Z" style="fill: #eee; stroke-width: 0px;"/>
    <path d="M55.11,124.12h5.06c.69,3.17.56,6.07-1.08,8.81-2.95,3.2-6.43,5.13-10.98,4.49,2.54-1.9,5.08-3.81,7.62-5.71.08-.12.16-.25.24-.37-.12.08-.25.17-.37.25-1.21.25-2.42.5-3.27.68.9-2.15,1.8-4.29,2.7-6.43.03-.57.06-1.14.09-1.71Z" style="fill: #f4f4f4; stroke-width: 0px;"/>
    <path d="M55.02,125.84c-.9,2.14-1.8,4.28-2.7,6.43.85-.18,2.06-.43,3.27-.68,0,0,.13.12.13.12-2.54,1.9-5.08,3.81-7.62,5.71-1.21.06-2.63.28-1.32-1.64,1.19-2.75,2.37-5.49,3.56-8.24,2.41.83,2.43.81,2.27-2.42,0,0,0-.03,0-.03.81.25,1.61.5,2.42.75Z" style="fill: #959595; stroke-width: 0px;"/>
    <path d="M26.28,86.63c2.23.6,4.6.91,6.64,1.89,1.32.63,2.16,2.23,3.22,3.39-2.7-.11-5.42-.06-8.1-.39-1.39-.18-2.7-1.03-4.3-1.69.92-1.16,1.73-2.18,2.54-3.2Z" style="fill: #929292; stroke-width: 0px;"/>
    <path d="M52.41,146.91s-.09.06-.09.06c-3.58,1.52-7.24,2.23-11.34.95,1.11-.54,2.02-1.06,2.99-1.44,1.08-.42,2.22-.71,3.34-1.06.04.31.07.61.11.92-.04.08-.09.16-.13.24.04-.08.09-.16.13-.24.77,0,1.56.09,2.31-.03.59-.09,1.14-.45,1.71-.68-.34-.53-.69-1.06-1.03-1.59.57-.26,1.14-.52,1.7-.78.41,1.01.82,2.02,1.24,3.03-.31.21-.61.42-.92.63Z" style="fill: #9d9d9d; stroke-width: 0px;"/>
    <path d="M14.08,141.21c.24-2.17.47-4.35.68-6.26.97,2.2,1.97,4.48,2.97,6.76,0,2.04,0,4.08,0,6.12-.14.07-.28.15-.42.22-.98-1.77-1.97-3.55-2.95-5.32-.09-.54-.18-1.08-.27-1.63,0,0-.02.12-.02.12Z" style="fill: #9d9d9d; stroke-width: 0px;"/>
    <path d="M10.67,86.01c3.09-.29,6.18-.62,9.28-.8.23-.01.52,1.04.78,1.59-3.35-.26-6.7-.53-10.06-.79Z" style="fill: #919191; stroke-width: 0px;"/>
    <path d="M50.39,144.03c.34.53.69,1.06,1.03,1.59-.57.24-1.12.59-1.71.68-.75.12-1.54.03-2.31.03h0c-.04-.3-.07-.61-.11-.92,1.03-.46,2.06-.92,3.09-1.38Z" style="fill: #949494; stroke-width: 0px;"/>
    <path d="M45.37,153.2c-.07.16-.14.32-.21.48-.16-.07-.41-.1-.45-.22-.05-.11.11-.31.18-.47.16.07.32.14.48.21Z" style="fill: #070707; stroke-width: 0px;"/>
    <path d="M43.99,95.38c.19-.45.38-.9.57-1.35-.19.45-.38.9-.57,1.35Z" style="fill: #070707; stroke-width: 0px;"/>
    <path d="M3.71,81.87c.24.38.48.76.72,1.14-.24-.38-.48-.76-.72-1.14Z" style="fill: #070707; stroke-width: 0px;"/>
    <path d="M14.1,141.09c.09.54.18,1.08.27,1.63-.09-.54-.18-1.08-.27-1.63Z" style="fill: #f2f2f2; stroke-width: 0px;"/>
    <path d="M25.92,134.12c.22.32.44.63.67.95-.22-.32-.44-.63-.67-.95Z" style="fill: #f5f6f6; stroke-width: 0px;"/>
    <path d="M25.35,133.53c.21.21.42.42.63.63-.21-.21-.42-.42-.63-.63Z" style="fill: #f5f6f6; stroke-width: 0px;"/>
    <path d="M44.44,163.3c.04-.08.09-.16.13-.23-.04.08-.09.16-.13.24,0,0,0,0,0,0Z" style="fill: #070707; stroke-width: 0px;"/>
    <path d="M109.04,87.85c1.18-.67,2.36-1.34,3.54-2.01.01,1.05.02,2.09.03,3.14-2.31,3.47-6.22,3.56-10.61,4.48,3.28,1.03,5.75,1.81,8.22,2.59,3.38,3.25,6.76,6.5,10.87,10.45-1.61-3.77-2.92-6.83-4.28-9.99,1.49.67,2.98,1.34,4.47,2.01.19.03.38.06.57.1-.11-.11-.21-.22-.32-.34-1.23-2.55-2.46-5.1-3.69-7.65.05-.97.17-1.94.12-2.9-.05-.93-.27-1.86-.58-3.76,3.05,1.06,5.63,1.97,8.18,2.85-.06-.31-.4-1.27-.36-2.21.03-.8.51-1.57.79-2.36,2.86.66,5.06-.31,6.74-2.62.23-.39.45-.78.68-1.17v.1c.23-.2.47-.39.71-.59,1.06.2,2.17.69,3.18.55,1.51-.22,2.95-.88,4.41-1.35.47.29.94.58,1.41.86l.06.07c.87,1.31,1.74,2.61,2.94,4.42-1.65-.93-2.73-1.55-3.82-2.16-.63.16-1.26.31-1.89.47.6.57,1.19,1.14,1.79,1.7.42.39.83.78,1.25,1.17.18.19.36.38.54.57.4,1.17.8,2.35,1.2,3.52-1.19-.77-2.37-1.54-3.56-2.31-1.55-.89-3.09-1.78-4.64-2.67-.2.32-.39.64-.59.96,1.94,1.33,3.89,2.67,5.83,4,.88,1.58,1.76,3.17,2.64,4.75-.29-.02-.59-.04-.88-.06-1.43-.92-2.85-1.84-4.28-2.76-.09.19-.19.38-.28.56.73,1.71,1.47,3.42,2.2,5.13-1.45-.77-2.9-1.54-4.27-2.26.39,1.9.76,3.66,1.12,5.42-.31-.11-.62-.22-.93-.33-.16-.15-.33-.3-.49-.45.05.26.09.52.14.79l.86,1.52c-.2,3.12-.39,6.24-.59,9.35-.2.04-.4.09-.61.13-.55-2.01-1.11-4.01-1.66-6.02l-1.74-3.76c-.29.13-.57.25-.86.38.3.97.61,1.95.91,2.92-.07,2.89-.13,5.78-.2,8.67l-.62.03c-.2-.98-.41-1.96-.61-2.94-.16-1.1-.32-2.21-.5-3.48-1.1.18-2.01.34-2.93.49-.31,2.31-.62,4.62-.86,6.43-1.41-1.96-3.09-4.29-4.76-6.62-.24.15-.48.3-.72.44.32,1.55.64,3.1,1.01,4.89-.78-.35-1.2-.55-1.8-.82-.1.98-.19,1.86-.34,3.21-.88-1.61-1.52-2.78-2.38-4.35-.25,1.14-.37,1.69-.48,2.22-1.16-1.53-2.21-2.91-3.26-4.29-.18-.09-.37-.18-.55-.27.05.21.11.42.16.63.62,2.62,1.24,5.23,1.86,7.85-2.95-5.64-4-7.21-6.29-8.22,3.8,10.35,4.01,16.34.93,19.26-.74-3.1-1.52-6.37-2.31-9.63l-.5.1v3.91c-1.16-1.86-2.28-3.64-3.39-5.43-.14-.12-.28-.23-.42-.35.02.23.04.47.06.7,1.69,5.7,3.31,11.42,3.1,17.7-3.11-2.74-6.16-5.05-8.72-7.8-2.52-2.69-4.55-5.83-6.79-8.77.27,2.49,1.02,4.9,1.72,7.31.31,1.04.53,2.11.79,3.17-1.48-1.83-2.96-3.66-4.44-5.49-.3-.92-.59-1.83-.89-2.75-.5-2.33-1-4.67-1.5-7-.5,2.39-.47,4.83-.51,7.28-.01.67-.2,1.33-.31,2-1.1-1.54-2.21-3.08-3.31-4.62-.33-1.68-.66-3.36-.99-5.04-.31.01-.61.02-.92.03v6.08c-.8-1.63-1.75-3.21-2.36-4.92-.35-1-.16-2.19-.21-3.29-.24-.06-.48-.12-.72-.18-.31.65-.63,1.3-.94,1.95-.27.02-.54.05-.81.07l.87-7.07c.18-.8.36-1.6.54-2.39,0,0-.03.04-.03.04.21-.4.41-.81.62-1.21l-.03.04c.4-.59.81-1.18,1.21-1.78h-.01c1.27-.56,2.55-1.14,4.01-1.8-.18,1.4-.31,2.48-.45,3.57-.1.09-.21.18-.31.27.07,0,.16.01.19-.02.06-.07.08-.16.11-.25,1.98-1.35,3.95-2.71,5.93-4.06.22.28.68.71.61.83-.85,1.42-1.78,2.79-2.69,4.18.12.05.23.09.35.14,3.01-2.7,6.01-5.4,8.89-7.98-7.48-1.42-8.74-2.63-8.86-8.66l-.05.05c.22-.09.45-.17.67-.26.18,0,.36,0,.53-.05l.26-.07.25.09c.06.39.12.77.17,1.16l2.09,2.54c1.58.48,3.13,1.14,4.75,1.35.9.11,1.89-.54,2.85-.85,0,0-.08-.14-.08-.14.35.37.71,1.08,1.04,1.07,1.35-.06,2.69-.34,4.03-.54,1.6-.55,3.19-1.1,4.79-1.65,0,0-.04.05-.04.05ZM139.03,79.43c-.16-.07-.36-.23-.48-.19-.12.05-.15.3-.23.46.16.07.36.23.48.19.12-.05.16-.3.23-.46ZM79.33,107.86c-.13-.01-.25-.03-.38-.04-.04.34-.09.67-.13,1.01.14-.03.4-.03.41-.09.07-.28.07-.58.09-.87ZM118.1,108.62l.18.12v-.21s-.18.09-.18.09Z" style="fill: #f4f5f5; stroke-width: 0px;"/>
    <path d="M72.36,59.5c-3.18-2.29-6.36-4.58-9.54-6.87-1.29-1.39-2.58-2.78-3.87-4.17-.48-.59-.95-1.18-1.43-1.76-1.48-3.65-3.32-7.22-4.3-11-.5-1.95.53-4.28,1.28-6.36,1.02,5.44,1.97,6.48,7.66,7.81,6.95,1.62,13.89.77,20.85,0,15.73-1.71,30.61-6.67,45.57-11.41,10.43-3.3,20.17-.87,29.03,5.27-3.92,2.95-8.65,3.41-13.28,4.07-3.84.54-7.73.8-11.6,1.18-3.96-.3-7.92-.6-12.45-.94,2.02-1.04,3.68-1.89,5.33-2.74.38-.24.77-.48,1.15-.72-.07-.11-.14-.22-.21-.32-.35.08-.69.16-1.04.23-9.85,2.13-19.64,4.64-29.58,6.3-12.03,2-24.18,3.09-36.29.05-.49-.12-1.13.33-1.7.51.2,1.08.14,2.3.63,3.23,3.89,7.33,9.71,12.78,17.02,16.73.09.76.17,1.52.26,2.28-1.17-.46-2.34-.91-3.51-1.37Z" style="fill: #f3f3f3; stroke-width: 0px;"/>
    <path d="M86.5,25.16c2.16-5.48,4.21-11,6.53-16.42,2.03-4.75,3.55-5.32,8.13-3.09,3.55,1.73,6.78,1.99,10.23-.27,3.25-2.13,6.73-2.01,9.91.28,3.71,2.67,7.31,5.49,10.96,8.25-.14.15-.27.31-.41.46-2.87-1.83-5.74-3.65-8.61-5.48-2.01-1.31-4.01-2.62-6.58-4.29.59,2.24,1,3.78,1.42,5.32.68,4.58,1.36,9.15,2.1,14.11-2.51-.41-4.46-.73-6.4-1.05,0,0-.03,0-.03,0-5.71-1.24-11.41-1.63-17.12.02,0,0-.03-.02-.03-.02-3.16.76-6.32,1.52-9.48,2.29-.21-.04-.41-.08-.62-.12Z" style="fill: #f5f6f6; stroke-width: 0px;"/>
    <path d="M94.73,127.15c-.26-1.06-.49-2.12-.79-3.17-.71-2.41-1.45-4.82-1.72-7.31,2.24,2.94,4.28,6.08,6.79,8.77,2.57,2.75,5.61,5.06,8.72,7.8.21-6.29-1.41-12-3.1-17.7.12-.11.24-.23.36-.35,1.12,1.79,2.23,3.57,3.39,5.43v-3.91l.5-.1c.78,3.27,1.57,6.54,2.31,9.63,3.07-2.92,2.86-8.91-.93-19.26,2.3,1.01,3.34,2.58,6.29,8.22-.62-2.62-1.24-5.23-1.86-7.85.14-.12.26-.24.39-.37,1.05,1.38,2.1,2.76,3.26,4.29.12-.53.24-1.08.48-2.22.86,1.57,1.5,2.74,2.38,4.35.14-1.36.23-2.23.34-3.21.59.27,1.02.46,1.8.82-.37-1.79-.69-3.34-1.01-4.89.24-.15.48-.3.72-.44,1.68,2.33,3.36,4.66,4.76,6.62.24-1.8.55-4.12.86-6.43.44.98.88,1.96,1.32,2.94.82,3.91.89,7.66-2.23,10.85-.37-1.53-.71-2.95-1.05-4.36-.14-.14-.29-.29-.43-.43-.07.14-.14.28-.2.42-1.32,2.8-2.64,5.6-3.95,8.39-.43.33-.87.65-1.3.98-.36.17-.72.34-1.08.51,0-.46,0-.92,0-2.23-1.03,1.83-1.66,2.96-2.29,4.08-.25-.4-.5-.79-.76-1.19-.11-.38-.22-.75-.33-1.13-.24.38-.48.77-.72,1.15-2.2,3.7-4.4,7.4-6.6,11.1-.4.07-.79.15-1.19.22-.54-.37-1.09-.75-1.63-1.12-.14-.14-.28-.28-.42-.42-2.45-2.16-4.9-4.32-7.35-6.49-.42.06-.84.13-1.26.19-.42-.37-.84-.73-1.26-1.1.05-.2.1-.4.15-.6-.24,0-.48,0-.73-.01,0,0,.02.01.02.01-.21-.2-.42-.39-.64-.59v.09Z" style="fill: #959596; stroke-width: 0px;"/>
    <path d="M96,52.18c-.45.04-.9.08-1.34.12-.34.14-.69.28-1.03.42-3.56-.21-7.11-.42-10.67-.63-.03-.78-.05-1.56-.08-2.34.71-.71,1.28-1.74,2.14-2.07,9.2-3.58,18.8-3.73,28.48-3.11.12,0,.22.29.34.44-2.04.51-4.08,1.02-6.18,1.54.13.62.27,1.29.27,1.27,3.57.29,6.74.48,9.89.86.49.06.87,1.03,1.3,1.57-.57.49-2.61-1.29-1.89,1.19-1.6.24-3.21.48-4.81.72-.32.24-.64.49-.96.73.2.84.27,1.74.63,2.5,1.82,3.82,3.74,7.59,5.56,11.41.26.55.18,1.25.25,1.89-.36-.08-.73-.17-1.09-.25-4.62-3.15-7.01-7.96-9.42-12.67-1.37-2.68-3.25-3.71-6.06-3.65-1.78.02-3.56.04-5.34.05ZM111.19,52.59c.08-.07.14-.13.21-.19-.13-.06-.25-.15-.39-.18-.05-.01-.13.11-.19.17.12.07.25.14.37.2Z" style="fill: #f2f2f2; stroke-width: 0px;"/>
    <path d="M132.74,36.27c3.87-.38,7.75-.64,11.6-1.18,4.63-.65,9.36-1.11,13.28-4.07.92.72,1.89,1.39,2.74,2.19,1.58,1.46,2.84,3.16,1.9,5.41-.93,2.23-2.78,3.75-5.22,3.55-4.06-.33-8.17-.8-12.11-1.77-4.15-1.03-8.14-2.72-12.19-4.12Z" style="fill: #949495; stroke-width: 0px;"/>
    <path d="M74.07,87.79c.44-.07.87-.15,1.31-.22,1.58-.35,3.16-.77,4.76-1.02.41-.06.91.42,1.38.65-.08,1.14-.15,2.29-.23,3.43.66,1.16,1.32,2.32,1.86,3.27-1.07,1.71-2.1,3.37-3.14,5.03,0,0,.01-.01.01-.01-.4.59-.81,1.18-1.21,1.78,0,0,.03-.04.03-.04-.21.4-.41.81-.62,1.21,0,0,.03-.04.03-.04-.2.62-.41,1.25-.61,1.87-.59-.6-1.19-1.2-1.78-1.8-1.53-2.28-2.49-1.09-3.37.54-.37.52-.73,1.05-1.1,1.57-.18-.03-.36-.06-.54-.09.34-2.04.69-4.08,1.03-6.12.14-.34.29-.69.43-1.03-.12-.07-.23-.15-.35-.22-.44.4-.89.8-1.33,1.2-.49.15-.99.31-1.48.46.28-1.29.56-2.59.85-3.95-1.24.22-2.13.38-3.01.54.62-1.3,1.23-2.6,1.85-3.91.15-.97.29-1.94.44-2.92,1.6-.06,3.21-.13,4.81-.19Z" style="fill: #f3f3f3; stroke-width: 0px;"/>
    <path d="M30.18,125.19c-1.02-1.44-2.04-2.89-3.6-5.09,5.51,2.61,9.64,1.75,12.29-3.27,2.64.25,5.3.35,7.89.81,1.11.2,2.09,1.15,3.13,1.77.13.58.27,1.17.4,1.75-.82,2.71-2.66,4.48-5.25,5.56-.4-.03-.8-.06-1.2-.09-.2-.03-.39-.06-.59-.08-1.17.2-2.33.4-3.5.6-2.77-.44-5.55-.88-8.32-1.32-.42-.21-.84-.42-1.26-.64Z" style="fill: #939393; stroke-width: 0px;"/>
    <path d="M175.24,99.21c2.9,9.4,5.8,18.79,8.68,28.19.29.96.41,1.97.02,3.14l-14.72-30.56c-.27-.45-.54-.9-.81-1.35l-.67-2.05c.19-.03.38-.08.57-.13,2.28.89,4.55,1.77,6.83,2.66l.11.1Z" style="fill: #ececec; stroke-width: 0px;"/>
    <path d="M150.53,84.86c-.79-2.17-1.58-4.35-2.35-6.53-.04-.11.18-.31.54-.9.8,1.47,1.5,2.73,2.19,3.99,2.32,2.8,4.3,6,7.06,8.29,2.89,2.4,6.29,1.74,9.02-.83-5.39.44-8.59-2.38-10.74-6.86.56.3,1.11.6,1.67.9.27,0,.54.01.82.02-.17-.15-.33-.29-.5-.44-.92-1.19-1.84-2.39-2.76-3.58-.85-1.92-1.7-3.84-2.55-5.76.94.48,1.89.97,2.83,1.45,2.24,1.58,4.48,3.16,6.82,4.82-.03.03-.37.34-.9.83.83.42,1.55.79,2.27,1.15-.66.3-1.31.61-2.07.96.49.57.91,1.05,1.33,1.54,0,0,.16.14.16.14.83.51,1.67,1.01,2.5,1.52h3.89c.25,5.07-5.43,8.83-10.84,6.49-2.9-1.25-5.14-3.98-7.68-6.04-.24-.39-.48-.78-.72-1.17ZM160.69,80.18c.27.16.54.32.81.48-.04-.31-.09-.63-.13-.94-.23.15-.46.31-.68.46Z" style="fill: #eaeaea; stroke-width: 0px;"/>
    <path d="M69.98,155.09c3.24-11.18,2.34-22.16-1.48-33.04-.39-1.1.01-2.46.05-3.7.07-.21.15-.42.22-.63.33.16.85.23.96.48,5.13,11.58,8.16,23.29,2,35.49-.29.57-.8,1.03-1.21,1.53-.17-.08-.35-.12-.53-.14Z" style="fill: #eaeaea; stroke-width: 0px;"/>
    <path d="M127.47,77.79c-.37-1.04-.75-2.08-1.15-3.2-4.87,3.12-9.67,1.91-15.3-3.65.8.05,1.44.09,2.08.12,3.79,1.1,7.31.09,10.77-1.37.75-.44,1.5-.88,2.25-1.32,4.1.33,6.04,3.06,4.28,6.32-.65,1.21-1.94,2.08-2.93,3.1Z" style="fill: #f1f2f3; stroke-width: 0px;"/>
    <path d="M77.08,60.85l-.23-.06s-.24.01-.24.01c-.08-.96-.16-1.91-.24-2.87.59-2.19,1.77-3.78,4.22-4.1l.9,1.27c1.81,3.82,3.65,7.63,5.41,11.47.25.55.15,1.25.21,1.88-1.11-1.01-2.22-2.01-3.33-3.02-.26-.4-.51-.79-.77-1.19-.27-.54-.54-1.08-.81-1.63-.27-.45-.55-.91-.82-1.36-.21-.38-.42-.77-.63-1.15-.27-.38-.53-.75-.8-1.13-.16.1-.31.21-.47.31.24.48.49.96.73,1.45.16.31.31.63.47.94.18.31.36.62.54.93.45,1.04.9,2.09,1.35,3.13,0,0,0,0,0,0,.37.85.74,1.7,1.1,2.55-.8.25-1.59.5-2.39.75-.04-.38-.09-.75-.13-1.13-.36-.59-.72-1.18-1.09-1.77-.48-.4-.96-.8-1.44-1.19.04-.35.07-.7.11-1.05-.56-1.02-1.12-2.04-1.68-3.07Z" style="fill: #efefef; stroke-width: 0px;"/>
    <path d="M127.47,77.79c1-1.02,2.28-1.89,2.93-3.1,1.76-3.26-.18-5.99-4.28-6.32.05-.35.11-.7.16-1.05.96-.64,1.92-1.28,2.87-1.92.62-.06,1.25-.12,1.87-.18.21,1.08.42,2.17.63,3.25.16.2.33.39.49.59.42,3.17.84,6.33,1.27,9.5,0,0,0-.1,0-.1-.23.39-.45.78-.68,1.17-1.68,2.31-3.88,3.28-6.74,2.62.49-1.49.98-2.98,1.47-4.46Z" style="fill: #919191; stroke-width: 0px;"/>
    <path d="M119.12,50.25c-.43-.55-.81-1.51-1.3-1.57-3.14-.39-6.31-.58-9.89-.86,0,.02-.14-.65-.27-1.27,2.1-.52,4.14-1.03,6.18-1.54,3.31.42,6.62.84,9.92,1.26.46.27.92.55,1.38.82.14,1.01.27,2.01.41,3.02-.5.47-1,.93-1.51,1.4-.02.4-.03.79-.05,1.19-.04.22-.08.44-.12.66-.52-.41-1.04-.82-1.56-1.22-.29-.33-.58-.66-.87-.99-.78-.07-1.57-.15-2.35-.22,0-.22.01-.44.02-.66Z" style="fill: #919191; stroke-width: 0px;"/>
    <path d="M75.61,58.59c-7.32-3.95-13.13-9.4-17.02-16.73-.49-.93-.43-2.15-.63-3.23,1.79,1.96,3.59,3.91,5.38,5.87.69.54,1.38,1.09,2.07,1.63.14.43.28.85.41,1.28.18.23.37.45.55.68.73.72,1.46,1.44,2.18,2.15.35.5.7,1,1.05,1.51,0,0,.1.12.1.12,1.15.9,2.3,1.81,3.45,2.71.92,1.12,1.84,2.24,2.76,3.36-.11.22-.21.44-.32.66Z" style="fill: #989898; stroke-width: 0px;"/>
    <path d="M101.93,60.67c0,1.61-.08,3.23.08,4.82.05.53.73,1,1.12,1.49,0,0,.02,0,.02,0-.2.29-.41.57-.61.86.03.28.05.56.08.84-.82.76-1.64,1.51-2.46,2.27-3.29.91-4.54-1.17-5.51-3.67.46-1.16.93-2.32,1.39-3.47.2-.17.39-.34.59-.51.44-.26.86-.56,1.32-.78,1.32-.63,2.65-1.23,3.97-1.84,0,0,.02,0,.02,0Z" style="fill: #f2f2f2; stroke-width: 0px;"/>
    <path d="M134.91,53.35c-.3-.45-.59-.9-.89-1.34,0-.35.02-.7.02-1.06,1.23.61,2.46,1.23,3.69,1.84,0,0,.05.07.05.07,1.97,3.32,5.44,3.57,9.06,4.15-.72.44-1.18.73-1.65,1.01-.82.19-1.64.39-2.46.58.04.13.08.26.13.39h2.91c-.68.61-1.26,1.52-2.06,1.79-3.31,1.12-6.13-.08-8.65-3.44.91-1.37,1.61-2.72-.15-3.99Z" style="fill: #ececec; stroke-width: 0px;"/>
    <path d="M155.47,78.92c.92,1.19,1.84,2.39,2.76,3.58-.13.13-.23.27-.32.42-.56-.3-1.11-.6-1.67-.9,2.15,4.48,5.34,7.31,10.74,6.86-2.73,2.57-6.13,3.23-9.02.83-2.76-2.29-4.74-5.49-7.06-8.29,1.52-.83,3.04-1.67,4.57-2.5Z" style="fill: #070707; stroke-width: 0px;"/>
    <path d="M86.62,141.82c2.09,1.58,4.19,3.17,6.76,5.11-4.64.68-8.89,1.3-13.47,1.97.33-.96.56-1.62.79-2.29.45-.84.9-1.69,1.35-2.53.3-.62.59-1.23.89-1.85.39-.59.77-1.18,1.16-1.77.22-.01.44-.02.66-.04l1.87,1.4Z" style="fill: #efefef; stroke-width: 0px;"/>
    <path d="M141.72,77.17c-1.47.47-2.91,1.14-4.41,1.35-1.01.15-2.12-.34-3.18-.55,1.72-3.08,1.36-6.3.79-9.58-.26-1.49-.25-3.03-.37-4.55.38-.03.77-.06,1.15-.09.99,1.96,1.98,3.92,2.98,5.87.45,1.17.91,2.35,1.36,3.52.56,1.34,1.12,2.68,1.68,4.01Z" style="fill: #959595; stroke-width: 0px;"/>
    <path d="M84.12,157.46c-.92-.79-1.85-1.58-3.07-2.63,4.56-.58,8.73-1.11,13.26-1.68-1.63,2.79-3.07,5.27-4.62,7.93-.86-.46-1.68-.89-2.49-1.32-1.03-.77-2.05-1.53-3.08-2.3Z" style="fill: #efefef; stroke-width: 0px;"/>
    <path d="M83.45,125.01c.47.86.95,1.72,1.42,2.58.25.42.5.84.76,1.26,0,.33.03.95-.03.96-2.81.46-5.64.88-8.68,1.33.7-1.81,1.45-3.26,1.81-4.81.47-2.01,1.58-2.89,3.61-2.74.37.47.74.95,1.11,1.42Z" style="fill: #f1f1f1; stroke-width: 0px;"/>
    <path d="M65.08,102.48c.34-.02.69-.04,1.03-.07.32,4.68,1.85,9.39-.36,14.01-.59.78-1.18,1.56-1.78,2.34-1.38.72-2.76,1.44-4.15,2.16.42-.6.81-1.23,1.28-1.79,2.14-2.54,3.35-5.35,2.61-8.73.35-1.47.69-2.95,1.04-4.42.1-1.17.21-2.34.31-3.51Z" style="fill: #e8e8e8; stroke-width: 0px;"/>
    <path d="M169.57,111.54c-2.57-2.82-5.14-5.65-8.02-8.82,1.39.45,2.96.51,3.8,1.32,2.14,2.07,3.93,4.48,5.89,6.73.58.66,1.28,1.23,1.92,1.84,0,0,0,.17,0,.17v3.86c-.89-1.22-1.59-2.2-2.3-3.17-.44-.64-.87-1.29-1.31-1.93Z" style="fill: #e6e6e6; stroke-width: 0px;"/>
    <path d="M63.72,110.41c.73,3.38-.47,6.18-2.61,8.73-.47.56-.85,1.19-1.28,1.79h-3.49c1.92-2.99,3.65-5.68,5.37-8.37.67-.72,1.34-1.43,2.01-2.15Z" style="fill: #919191; stroke-width: 0px;"/>
    <path d="M98.92,23.97c1.31,1.36,2.44,2.53,3.69,3.83-1.36,1.33-2.67,2.61-4.23,4.13-1.09-1.23-2.09-2.36-3.2-3.62,1.17-1.36,2.3-2.68,3.73-4.34Z" style="fill: #d00029; stroke-width: 0px;"/>
    <path d="M138.5,98.57c-.36-1.76-.73-3.52-1.12-5.42,1.36.72,2.81,1.49,4.27,2.26l.65.59c.32,2.65.64,5.29.96,7.94-.23.05-.45.11-.68.16-1.26-1.55-2.52-3.1-3.78-4.65-.05-.17-.1-.35-.13-.53.12-.13.23-.26.35-.38-.16-.04-.31-.09-.47-.13l-.05.17Z" style="fill: #959596; stroke-width: 0px;"/>
    <path d="M140.96,69.05c.42-1.31.79-2.64,1.28-3.92.3-.78.78-1.49,1.19-2.23l1.51.49c-.5,3.77-.99,7.54-1.49,11.31h-.85c-.35-.52-.7-1.03-1.05-1.55,0-.67,0-1.35,0-2.02.13-.29.25-.58.38-.87-.26-.05-.52-.1-.78-.15-.06-.35-.12-.7-.18-1.06Z" style="fill: #959595; stroke-width: 0px;"/>
    <path d="M35.54,112.5c-.09.15-.09.3.02.44,0,.78,0,1.56,0,2.34-3.08-.9-6.16-1.8-9.29-2.72-.42-1.34-.85-2.69-1.17-3.72,3.41,1.2,6.93,2.43,10.44,3.66Z" style="fill: #070707; stroke-width: 0px;"/>
    <path d="M76.69,117.54c-1.38-.11-2.76-.22-4.52-.35.21-1.96.44-4.02.66-6.11,1.82.59,3.85,4.05,3.88,6.41,0,0-.02.06-.02.06Z" style="fill: #e8e8e8; stroke-width: 0px;"/>
    <path d="M58.6,111.14l-.49,1.19c-.26.34-.51.69-.77,1.03l-.1.09c-.32.08-.63.16-.95.24-.34.25-.69.5-1.03.75-2.92-.44-5.55-1.28-6.44-4.53,1.2-.02,2.39-.05,3.59-.07.31.21.62.43.93.64.29.24.58.49.86.73,1.46-.03,2.93-.05,4.39-.08Z" style="fill: #919191; stroke-width: 0px;"/>
    <path d="M86.86,34.14c-1.2-1.07-2.14-1.91-3.11-2.78.86-1.33,1.64-2.54,2.59-4.03,1.09.9,2.08,1.73,3.19,2.66-.88,1.36-1.7,2.64-2.67,4.14Z" style="fill: #0006e7; stroke-width: 0px;"/>
    <path d="M131.03,65.23c-.62.06-1.25.12-1.87.18-1.87-2.74-3.23,1-5.58.32.87-1.15,1.56-2.06,2.29-3.02-.41-.76-.84-1.57-1.42-2.64,1.6-.4,2.73-.89,3.01,1.34.28,2.24,1.23,2.45,3.16.79.15,1.07.29,2.05.42,3.04Z" style="fill: #070707; stroke-width: 0px;"/>
    <path d="M68.74,80.65c.19.06.38.11.57.17-1.19,1.51-2.38,3.02-3.58,4.53-1.76.27-3.53.53-5.29.8.08-.23.14-.66.25-.67,3.23-.45,5.11-1.82,3.87-5.39.8.21,1.6.42,2.4.63.59-.02,1.18-.05,1.78-.07Z" style="fill: #eee; stroke-width: 0px;"/>
    <path d="M94.64,67.27c.96,2.5,2.22,4.58,5.51,3.67,0,.38.02.75.03,1.13-.94-.02-1.87-.01-2.81-.05-1.5-.06-3.01-.14-4.89-.23,0,.01-.25-.49-.51-1,.38-.76.76-1.52,1.15-2.29.51-.41,1.02-.82,1.53-1.23Z" style="fill: #949494; stroke-width: 0px;"/>
    <path d="M109.72,27.36c1.26-1.13,2.19-1.97,3.24-2.9.87.95,1.71,1.85,2.9,3.14-2.3-.14-4.12,3.39-6.13-.23Z" style="fill: #0006e7; stroke-width: 0px;"/>
    <path d="M144.88,92.53c-.88-1.58-1.76-3.17-2.64-4.75-.2-.76-.4-1.53-.6-2.29,1.19.77,2.37,1.54,3.56,2.31,2.49,1.28,1.44,2.99.58,4.68-.3.02-.6.04-.9.05Z" style="fill: #070707; stroke-width: 0px;"/>
    <path d="M87.08,121.19c.11-.67.3-1.33.31-2,.04-2.44.01-4.89.51-7.28.5,2.33,1,4.67,1.5,7,0,.95,0,1.9,0,2.85-.78-.19-1.55-.38-2.33-.58Z" style="fill: #959596; stroke-width: 0px;"/>
    <path d="M65.37,77.04c2.69-.92,5.38-1.84,8.09-2.76-.39,2.49-2.51,3.29-4.8,3.9-1.1-.38-2.19-.75-3.29-1.13Z" style="fill: #e8e8e8; stroke-width: 0px;"/>
    <path d="M118.07,9.93c-.41-1.54-.82-3.09-1.42-5.32,2.57,1.68,4.58,2.98,6.58,4.29-1.72.34-3.45.69-5.17,1.03Z" style="fill: #070707; stroke-width: 0px;"/>
    <path d="M102.61,68.68c-.03-.28-.05-.56-.08-.84.2-.29.41-.57.61-.86,0,0-.02,0-.02,0,1.56.73,3.12,1.45,4.68,2.18-.02.55-.04,1.1-.05,1.65-1.01-.18-2.08-.2-3.01-.57-.79-.32-1.42-1.03-2.13-1.56Z" style="fill: #f4f4f4; stroke-width: 0px;"/>
    <path d="M142.3,95.98l-.65-.59c-.73-1.71-1.47-3.42-2.2-5.13.09-.19.19-.38.28-.56,1.43.92,2.85,1.84,4.28,2.76-.2.39-.4.78-.59,1.17-.19.5-.36,1.01-.58,1.49-.14.3-.35.57-.53.85Z" style="fill: #070707; stroke-width: 0px;"/>
    <path d="M63.72,110.41c-.67.72-1.34,1.43-2.01,2.15-.28-.57-.56-1.13-.84-1.7.95-1.67,1.91-3.34,2.86-5.01.34.05.68.1,1.02.15-.35,1.47-.69,2.95-1.04,4.42Z" style="fill: #070707; stroke-width: 0px;"/>
    <path d="M96,52.18c1.78-.02,3.56-.04,5.34-.05,0,.38,0,.75,0,1.13-.4.2-.79.39-1.19.59,0,.17,0,.34.02.51-.63.23-1.26.45-1.89.68h-.22s-.22,0-.22,0c-.62-.6-1.23-1.2-1.84-1.79v-1.05Z" style="fill: #0a0a0a; stroke-width: 0px;"/>
    <path d="M134.91,53.35c1.77,1.26,1.06,2.62.15,3.99-.34.75-.68,1.5-1.44,3.18-.4-1.38-.79-2-.69-2.53.16-.83.64-1.6.99-2.4.33-.75.65-1.49.98-2.23Z" style="fill: #070707; stroke-width: 0px;"/>
    <path d="M60.44,86.14c1.76-.27,3.53-.53,5.29-.8-.68.9-1.22,1.99-2.08,2.66-1.48,1.14-2.85.28-3.21-1.86ZM62.07,87.22c-.04-.07-.08-.15-.12-.22-.05.06-.15.12-.15.19,0,.07.07.15.11.22.05-.06.11-.13.16-.19Z" style="fill: #070707; stroke-width: 0px;"/>
    <path d="M72.47,102.43c.89-1.63,1.85-2.82,3.37-.54-.51,1.07-1.01,2.15-1.59,3.36-.77-1.22-1.28-2.02-1.79-2.82Z" style="fill: #070707; stroke-width: 0px;"/>
    <path d="M73.17,54.58c-1.15-.91-2.3-1.81-3.45-2.71,1.32-.28,2.64-.56,4.35-.92-.36,1.47-.63,2.55-.9,3.64Z" style="fill: #070707; stroke-width: 0px;"/>
    <path d="M81.86,117.64v-6.08c.31-.01.61-.02.92-.03.33,1.68.66,3.36.99,5.04-.64.36-1.27.72-1.91,1.07Z" style="fill: #070707; stroke-width: 0px;"/>
    <path d="M123.88,53.35c.04-.22.08-.44.12-.66,1.88.13,3.85.17,3.05,4.02-1.37-1.45-2.27-2.41-3.17-3.37Z" style="fill: #070707; stroke-width: 0px;"/>
    <path d="M129.99,108.81c-.44-.98-.88-1.96-1.32-2.94.92-.15,1.83-.31,2.93-.49.18,1.27.34,2.38.5,3.48-.7-.02-1.41-.03-2.11-.05Z" style="fill: #070707; stroke-width: 0px;"/>
    <path d="M66.97,94.8c.88-.16,1.77-.32,3.01-.54-.29,1.36-.57,2.66-.85,3.95-3.2.4-1.85-2.02-2.16-3.41Z" style="fill: #070707; stroke-width: 0px;"/>
    <path d="M93.12,68.51c-.38.76-.76,1.52-1.15,2.29-1.25-.38-2.51-.76-3.76-1.13,1.63-.38,3.27-.77,4.91-1.15Z" style="fill: #151515; stroke-width: 0px;"/>
    <path d="M126.28,67.32c-.05.35-.11.7-.16,1.05-.75.44-1.5.88-2.25,1.32-.6-.4-1.2-.81-1.79-1.21h0c.88-2.27,2.62-1.45,4.21-1.15Z" style="fill: #070707; stroke-width: 0px;"/>
    <path d="M141.55,71.13c0,.67,0,1.35,0,2.02-.5,0-1,0-1.5,0-.45-1.17-.91-2.35-1.36-3.52.76-.19,1.52-.39,2.28-.58.06.35.12.7.18,1.06l-.17.18c-.41.02-.82.04-1.22.07,0,.12,0,.23,0,.35.42.03.85.06,1.27.09.18.11.35.22.53.34Z" style="fill: #070707; stroke-width: 0px;"/>
    <path d="M86.62,141.82l-1.87-1.4c.67-.31,1.35-.89,1.99-.84.47.04.87.91,1.29,1.4-.47.28-.94.56-1.41.84Z" style="fill: #070707; stroke-width: 0px;"/>
    <path d="M69.26,87.98c-.15.97-.29,1.94-.44,2.92-.62-.51-1.24-1.03-1.98-1.64.77-.81,1.41-1.47,2.05-2.14.12.29.25.58.37.86Z" style="fill: #070707; stroke-width: 0px;"/>
    <path d="M143.41,93.64c.2-.39.4-.78.59-1.17.29.02.59.04.88.06.3-.02.6-.04.9-.05,0,.39,0,.78,0,1.16-.2.59-.4,1.17-.6,1.76-.59-.59-1.19-1.17-1.78-1.76Z" style="fill: #070707; stroke-width: 0px;"/>
    <path d="M52.61,125.12c.16,3.23.14,3.25-2.27,2.42.76-.81,1.51-1.61,2.27-2.42Z" style="fill: #929292; stroke-width: 0px;"/>
    <path d="M55.02,125.84c-.81-.25-1.61-.5-2.42-.75.45-1.31,1.02-2.3,2.51-.97-.03.57-.06,1.14-.09,1.71Z" style="fill: #929292; stroke-width: 0px;"/>
    <path d="M133.52,103.11c-.3-.97-.61-1.95-.91-2.92.29-.13.57-.25.86-.38l1.74,3.76c-.56-.15-1.13-.3-1.69-.46Z" style="fill: #070707; stroke-width: 0px;"/>
    <path d="M119.1,50.92c.78.07,1.57.15,2.35.22-.02.13-.06.25-.1.37l-2.28,1.52c-.18-.5-.37-.99-.55-1.49.19-.21.39-.41.58-.62Z" style="fill: #070707; stroke-width: 0px;"/>
    <path d="M95.99,53.23c.61.6,1.23,1.2,1.84,1.79.11.7.21,1.4.31,2.1-.25.08-.5.16-.74.24-.47-1.38-.94-2.75-1.42-4.13Z" style="fill: #151515; stroke-width: 0px;"/>
    <path d="M155.76,74.62c-.94-.48-1.89-.97-2.83-1.45.3-.38.59-.76.89-1.14.65.86,1.29,1.73,1.94,2.59Z" style="fill: #070707; stroke-width: 0px;"/>
    <path d="M132.14,142.26c-.66-.8-1.31-1.59-1.97-2.39.72-1.44,1.43-1.1,1.85.13.24.69.09,1.5.12,2.26Z" style="fill: #070707; stroke-width: 0px;"/>
    <path d="M163.22,83.92c-.42-.49-.84-.97-1.33-1.54.75-.35,1.41-.65,2.07-.96.54.06,1.08.12,1.79.19-.96.88-1.74,1.59-2.52,2.3Z" style="fill: #070707; stroke-width: 0px;"/>
    <path d="M66.96,80.72c-.8-.21-1.6-.42-2.4-.63.59-.38,1.19-.76,1.78-1.14.21.59.41,1.18.62,1.77Z" style="fill: #070707; stroke-width: 0px;"/>
    <path d="M84.12,157.46c1.03.77,2.05,1.53,3.08,2.3-1.41-.27-3.81.77-3.08-2.3Z" style="fill: #070707; stroke-width: 0px;"/>
    <path d="M39.76,127.14c1.17-.2,2.33-.4,3.5-.6-1.17.2-2.33.4-3.5.6Z" style="fill: #070707; stroke-width: 0px;"/>
    <path d="M82.88,49.74c.03.78.05,1.56.08,2.34-.63.12-1.25.23-1.88.35-.12-.24-.23-.47-.35-.71.72-.66,1.44-1.32,2.15-1.98Z" style="fill: #070707; stroke-width: 0px;"/>
    <path d="M117.45,127.03c.63-1.13,1.26-2.25,2.29-4.08,0,1.31,0,1.77,0,2.23-.76.62-1.53,1.24-2.29,1.85Z" style="fill: #070707; stroke-width: 0px;"/>
    <path d="M63.98,118.76c.59-.78,1.18-1.56,1.78-2.34.74,1.76.55,2.85-1.78,2.34Z" style="fill: #070707; stroke-width: 0px;"/>
    <path d="M165.88,85.57c-.83-.51-1.67-1.01-2.5-1.52,2.28-1.82,2.64-.54,2.5,1.52Z" style="fill: #070707; stroke-width: 0px;"/>
    <path d="M102.85,53.75c.04.7.08,1.39.13,2.09-.32.03-.64.05-.96.08l-.21-2.23,1.05.06Z" style="fill: #151515; stroke-width: 0px;"/>
    <path d="M132.74,14.03c.56.03,1.11.07,1.67.1-.07.44-.15.87-.22,1.31-.49-.29-.98-.58-1.47-.87,0-.18.01-.36.02-.54Z" style="fill: #070707; stroke-width: 0px;"/>
    <path d="M104.37,65.61c.13-.56.26-1.12.39-1.68.39.18.78.36,1.16.54-.3.47-.61.94-.91,1.42-.21-.09-.43-.18-.64-.27Z" style="fill: #151515; stroke-width: 0px;"/>
    <path d="M126.13,58.38c.27-.5.54-.99.8-1.49.3.17.61.34.91.5-.29.48-.58.97-.87,1.45-.28-.16-.56-.32-.85-.47Z" style="fill: #070707; stroke-width: 0px;"/>
    <path d="M116.81,68.44c.36.08.73.17,1.09.25-1.1.41-2.19.82-3.29,1.23-.08-.2-.16-.4-.24-.59l2.43-.89Z" style="fill: #0a0a0a; stroke-width: 0px;"/>
    <path d="M85.63,128.86c-.25-.42-.5-.84-.76-1.26.62-.13,1.24-.26,1.86-.39.12.17.24.34.36.52-.49.38-.97.76-1.46,1.14Z" style="fill: #070707; stroke-width: 0px;"/>
    <path d="M113.14,70.24c-.93-.38-1.87-.76-2.8-1.13,1.22-.31,2.53-.85,2.8,1.13Z" style="fill: #0a0a0a; stroke-width: 0px;"/>
    <path d="M65.42,46.13c-.69-.54-1.38-1.09-2.07-1.63.71-.08,1.42-.17,2.13-.25-.02.63-.04,1.25-.06,1.88Z" style="fill: #070707; stroke-width: 0px;"/>
    <path d="M96.62,63.29c-.2.17-.39.34-.59.51l-.23-2.09.81-.05v1.62Z" style="fill: #0a0a0a; stroke-width: 0px;"/>
    <path d="M98.28,55.03c.63-.22,1.26-.45,1.89-.68.03.36.05.73.08,1.09-.66-.14-1.31-.28-1.97-.42Z" style="fill: #151515; stroke-width: 0px;"/>
    <path d="M82.05,144.08c-.45.84-.9,1.69-1.35,2.53-.72-1.45-.83-2.59,1.35-2.53Z" style="fill: #070707; stroke-width: 0px;"/>
    <path d="M84.1,140.46c-.39.59-.77,1.18-1.16,1.77-.31-.26-.62-.52-.92-.78.69-.33,1.39-.66,2.08-.99Z" style="fill: #070707; stroke-width: 0px;"/>
    <path d="M135.7,63.76c-.38.03-.77.06-1.15.09.02-.57.04-1.13.06-1.7.37.54.73,1.07,1.1,1.61Z" style="fill: #070707; stroke-width: 0px;"/>
    <path d="M145.77,59h-2.91c-.04-.13-.08-.26-.13-.39.82-.19,1.64-.39,2.46-.58.19.32.38.65.58.97Z" style="fill: #070707; stroke-width: 0px;"/>
    <path d="M109.03,68.5c-.39,0-.78-.02-1.17-.03.24-.55.48-1.09.73-1.64.36.34.71.69,1.07,1.03,0,0-.06.05-.06.05-.15.15-.3.29-.45.44l-.12.15Z" style="fill: #0a0a0a; stroke-width: 0px;"/>
    <path d="M89.41,121.76c0-.95,0-1.9,0-2.85.3.92.59,1.83.89,2.75-.29.03-.59.07-.88.1Z" style="fill: #070707; stroke-width: 0px;"/>
    <path d="M83.45,125.01c-.37-.47-.74-.95-1.11-1.42.25-.3.5-.59.76-.89l.35,2.3Z" style="fill: #070707; stroke-width: 0px;"/>
    <path d="M57.53,46.7c.48.59.95,1.18,1.43,1.76-2.63,1.11-1.46-.78-1.43-1.76Z" style="fill: #070707; stroke-width: 0px;"/>
    <path d="M166.85,37.4l.72,1.15c-.35-.01-.73.05-1.03-.08-.15-.06-.15-.48-.21-.73.17-.11.35-.23.52-.34Z" style="fill: #070707; stroke-width: 0px;"/>
    <path d="M145.19,95.4c.2-.59.4-1.17.6-1.76.28.34.56.68.84,1.01-.48.25-.95.5-1.43.75Z" style="fill: #070707; stroke-width: 0px;"/>
    <path d="M150.15,98.16c-.52-.19-1.05-.38-1.57-.57.07-.2.13-.41.2-.61.54.16,1.08.31,1.62.47-.08.24-.16.48-.24.72Z" style="fill: #070707; stroke-width: 0px;"/>
    <path d="M142.22,82.52c-.6-.57-1.19-1.14-1.79-1.7.59.4,1.17.8,1.76,1.21.02.17.03.33.03.5Z" style="fill: #ececec; stroke-width: 0px;"/>
    <path d="M142.19,82.02c-.59-.4-1.17-.8-1.76-1.21.63-.16,1.26-.31,1.89-.47-.04.56-.09,1.12-.13,1.68Z" style="fill: #070707; stroke-width: 0px;"/>
    <path d="M76.82,111.28c.27-.02.54-.05.81-.07-.24.49-.49.98-.73,1.47-.03-.47-.05-.93-.08-1.4Z" style="fill: #070707; stroke-width: 0px;"/>
    <path d="M169.57,111.54c.44.64.87,1.29,1.31,1.93-2.02.4-1.52-.86-1.31-1.93Z" style="fill: #070707; stroke-width: 0px;"/>
    <path d="M174.6,120.36c-.13-.46-.27-.93-.4-1.39.15-.05.3-.1.46-.15.16.46.33.91.49,1.37-.18.06-.36.12-.55.18Z" style="fill: #070707; stroke-width: 0px;"/>
    <path d="M50.3,121.15c-.13-.58-.27-1.17-.4-1.75.13.58.27,1.17.4,1.75Z" style="fill: #070707; stroke-width: 0px;"/>
    <path d="M43.85,126.62c.4.03.8.06,1.2.09-.17.41-.33.82-.5,1.23l-.7-1.32Z" style="fill: #070707; stroke-width: 0px;"/>
    <path d="M30.18,125.19c.42.21.84.42,1.26.64-.41.41-.83.82-1.24,1.23-.44-.2-.88-.39-1.33-.59.26-.43.52-.86.78-1.28.17.08.35.08.52,0Z" style="fill: #070707; stroke-width: 0px;"/>
    <path d="M119.1,50.92c-.19.21-.39.41-.58.62-.43-.03-.86-.06-1.29-.08-.72-2.48,1.32-.71,1.89-1.19,0,.22-.01.44-.02.66Z" style="fill: #151515; stroke-width: 0px;"/>
    <path d="M131.36,58.38c-.28.3-.51.64-.58.61-.3-.13-.59-.33-.78-.58-.05-.07.32-.62.41-.59.3.08.55.31.95.56Z" style="fill: #070707; stroke-width: 0px;"/>
    <path d="M187.88,128.42c.14.47.32.75.26.96-.06.2-.36.37-.58.45-.12.04-.32-.14-.48-.23.15-.22.3-.44.8-1.19Z" style="fill: #070707; stroke-width: 0px;"/>
    <path d="M70.61,97.74c.44-.4.89-.8,1.33-1.2.12.07.23.15.35.22-.14.34-.29.69-.43,1.03-.42-.02-.84-.03-1.26-.05Z" style="fill: #070707; stroke-width: 0px;"/>
    <path d="M138.67,98.91c.04.18.08.35.13.53-.24.22-.49.44-.73.66l-.86-1.52c.12-.11.24-.22.35-.34.31.11.62.22.93.33,0,0,.05-.17.05-.17-.03.07-.11.15-.09.2.05.11.13.21.21.32Z" style="fill: #070707; stroke-width: 0px;"/>
    <path d="M46.25,111.72c-.2-.56-.39-1.11-.59-1.67.2.56.39,1.11.59,1.67Z" style="fill: #070707; stroke-width: 0px;"/>
    <path d="M81.5,55.11c-.3-.42-.6-.85-.9-1.27l1.49.47c-.2.27-.39.54-.59.81Z" style="fill: #070707; stroke-width: 0px;"/>
    <path d="M69.98,155.09c.19.01.37.06.53.14-.23.45-.45.9-.68,1.35-.15-.07-.31-.14-.46-.22.2-.42.4-.85.61-1.27Z" style="fill: #070707; stroke-width: 0px;"/>
    <path d="M75.61,58.59c.11-.22.21-.44.32-.66.15,0,.29,0,.44,0,.08.96.16,1.91.24,2.87-.25.02-.49.04-.74.07-.09-.76-.17-1.52-.26-2.28Z" style="fill: #070707; stroke-width: 0px;"/>
    <path d="M115.35,162.95c-.22.24-.48.61-.55.58-.27-.13-.48-.38-.71-.58.19-.17.38-.47.58-.48.2,0,.41.28.68.48Z" style="fill: #070707; stroke-width: 0px;"/>
    <path d="M86.5,25.16c.21.04.41.08.62.12-.05.42-.11.84-.16,1.26-.21-.02-.43-.05-.64-.07.06-.44.12-.87.19-1.31Z" style="fill: #1a00e7; stroke-width: 0px;"/>
    <path d="M69.62,51.74c-.35-.5-.7-1-1.05-1.51.35.5.7,1,1.05,1.51Z" style="fill: #070707; stroke-width: 0px;"/>
    <path d="M119.09,136.72c-.18.17-.3.28-.42.39-.19-.2-.37-.4-.56-.6.18-.16.37-.32.55-.48.14.22.28.45.43.68Z" style="fill: #070707; stroke-width: 0px;"/>
    <path d="M168.3,96.45c-.19.05-.38.1-.57.13-.3-.27-.59-.54-.89-.81.15-.15.31-.3.46-.44.33.37.67.75,1,1.12Z" style="fill: #070707; stroke-width: 0px;"/>
    <path d="M124.05,51.5c.5-.47,1-.93,1.51-1.4-.5.47-1,.93-1.51,1.4Z" style="fill: #070707; stroke-width: 0px;"/>
    <path d="M93.63,52.71c.34-.14.69-.28,1.03-.42-.07.41-.15.82-.22,1.23l-.8-.81Z" style="fill: #151515; stroke-width: 0px;"/>
    <path d="M77.62,103.69c.2-.62.41-1.25.61-1.87-.18.8-.36,1.6-.54,2.39-.13-.16-.15-.33-.07-.52Z" style="fill: #949494; stroke-width: 0px;"/>
    <path d="M115.64,125.87c.24-.38.48-.77.72-1.15.11.38.22.75.33,1.13-.35,0-.7.02-1.05.03Z" style="fill: #070707; stroke-width: 0px;"/>
    <path d="M101.93,60.67s-.02-.01-.02,0c.27-.54.54-1.09.81-1.63.14.1.29.2.43.3-.41.45-.82.89-1.22,1.34Z" style="fill: #0a0a0a; stroke-width: 0px;"/>
    <path d="M142.59,107.27c-.16.06-.37.21-.48.16-.11-.05-.14-.3-.2-.46.16-.06.37-.21.48-.16.11.05.14.3.2.46Z" style="fill: #070707; stroke-width: 0px;"/>
    <path d="M150.53,84.86c.24.39.48.78.72,1.17-.24-.39-.48-.78-.72-1.17Z" style="fill: #070707; stroke-width: 0px;"/>
    <path d="M148.3,75.28c-.16-.07-.41-.1-.46-.22-.05-.11.11-.31.18-.47.16.07.41.1.46.22.05.12-.11.31-.18.47Z" style="fill: #070707; stroke-width: 0px;"/>
    <path d="M151.94,70.38c.07-.16.11-.41.22-.45.11-.05.4.08.45.19.04.12-.08.4-.2.44-.12.04-.31-.11-.47-.18Z" style="fill: #070707; stroke-width: 0px;"/>
    <path d="M132.71,111.8l.62-.03c-.25.3-.5.61-.74.91.04-.29.08-.59.13-.88Z" style="fill: #070707; stroke-width: 0px;"/>
    <path d="M55.26,114.44c.34-.25.69-.5,1.03-.75-.34.25-.69.5-1.03.75Z" style="fill: #070707; stroke-width: 0px;"/>
    <path d="M125.14,47.08c-.46-.27-.92-.55-1.38-.82.46.27.92.55,1.38.82Z" style="fill: #070707; stroke-width: 0px;"/>
    <path d="M68.77,117.71c-.07.21-.15.42-.22.63-.22-.31-.43-.61-.65-.92.29.1.58.19.87.29Z" style="fill: #070707; stroke-width: 0px;"/>
    <path d="M121.34,51.5c.05-.12.08-.24.1-.37.29.33.58.66.87.99-.33-.21-.65-.42-.98-.62Z" style="fill: #151515; stroke-width: 0px;"/>
    <path d="M107.85,137.19c.4-.07.79-.15,1.19-.22-.16.31-.33.61-.49.92-.23-.23-.46-.47-.69-.7Z" style="fill: #070707; stroke-width: 0px;"/>
    <path d="M134.04,50.95c0,.35-.02.7-.02,1.06-.3-.13-.61-.26-.91-.39.31-.22.63-.44.94-.66Z" style="fill: #070707; stroke-width: 0px;"/>
    <path d="M97.19,129.36c.42-.06.84-.13,1.26-.19-.42.06-.84.13-1.26.19Z" style="fill: #070707; stroke-width: 0px;"/>
    <path d="M105.79,135.65c.14.14.28.28.42.42-.35.14-.7.27-1.05.41.21-.28.42-.55.62-.83Z" style="fill: #070707; stroke-width: 0px;"/>
    <path d="M137.78,52.87s-.05-.07-.05-.07c.32-.33.64-.67.96-1,.1.13.2.26.3.38-.41.23-.81.46-1.22.69Z" style="fill: #070707; stroke-width: 0px;"/>
    <path d="M120.82,124.67c.43-.33.87-.65,1.3-.98-.43.33-.87.65-1.3.98Z" style="fill: #070707; stroke-width: 0px;"/>
    <path d="M168.4,98.63c.27.45.54.9.81,1.35-.27-.45-.54-.9-.81-1.35Z" style="fill: #070707; stroke-width: 0px;"/>
    <path d="M136.88,109.58c.2-.04.4-.09.61-.13l-.6.98c0-.28,0-.57,0-.85Z" style="fill: #070707; stroke-width: 0px;"/>
    <path d="M110.17,69c-.38-.17-.76-.33-1.14-.5,0,0,.12-.15.12-.15.15-.15.3-.29.45-.44,0,0,.06-.05.06-.05.17.38.35.75.52,1.13Z" style="fill: #0a0a0a; stroke-width: 0px;"/>
    <path d="M125.53,31.77c.35-.08.69-.16,1.04-.23.07.11.14.22.21.32-.38.24-.77.48-1.15.72-.03-.27-.06-.54-.09-.82Z" style="fill: #070707; stroke-width: 0px;"/>
    <path d="M76.69,117.54s.02-.06.02-.06c.36.15.73.3,1.09.45-.11.15-.21.31-.32.46-.26-.28-.53-.57-.79-.85Z" style="fill: #070707; stroke-width: 0px;"/>
    <path d="M135.54,49.51c.03-.07.05-.14.08-.21.08.03.18.04.24.09.02.02-.04.13-.07.21-.08-.03-.16-.06-.25-.09Z" style="fill: #070707; stroke-width: 0px;"/>
    <path d="M132.99,49.38c-.05-.16-.07-.24-.1-.32.07-.02.15-.04.22-.06-.03.11-.07.21-.12.38Z" style="fill: #070707; stroke-width: 0px;"/>
    <path d="M56.15,28.18c-.07.02-.19.08-.21.05-.05-.06-.06-.16-.08-.24.07-.02.19-.08.21-.05.05.06.06.16.08.24Z" style="fill: #070707; stroke-width: 0px;"/>
    <path d="M117.99,153.31c-.11.3-.19.54-.28.78,0-.2-.03-.4,0-.6,0-.05.14-.09.28-.18Z" style="fill: #070707; stroke-width: 0px;"/>
    <path d="M143.26,105.37c-.05.07-.11.13-.16.2-.04-.08-.12-.15-.11-.22,0-.07.1-.13.15-.2.04.08.08.15.12.23Z" style="fill: #070707; stroke-width: 0px;"/>
    <path d="M100.15,53.84c.4-.2.79-.39,1.19-.59-.4.2-.79.39-1.19.59Z" style="fill: #151515; stroke-width: 0px;"/>
    <path d="M95.36,127.64c.24,0,.48,0,.73.01-.05.2-.1.4-.15.6-.19-.21-.38-.41-.57-.62Z" style="fill: #f4f5f5; stroke-width: 0px;"/>
    <path d="M175.13,99.11c.1-.13.2-.26.3-.39-.06.16-.12.32-.18.49,0,0-.11-.1-.11-.1Z" style="fill: #070707; stroke-width: 0px;"/>
    <path d="M144,84.27c-.18-.19-.36-.38-.54-.57.18.19.36.38.54.57Z" style="fill: #070707; stroke-width: 0px;"/>
    <path d="M170.27,65.83c-.13-.1-.26-.21-.39-.31.16.07.32.14.48.22,0,0-.09.09-.09.09Z" style="fill: #070707; stroke-width: 0px;"/>
    <path d="M185.46,133.48l-.23-.17c.1.03.2.07.3.1l-.06.06Z" style="fill: #070707; stroke-width: 0px;"/>
    <path d="M185.52,133.42c.07.05.15.11.22.16-.09-.03-.19-.07-.28-.1,0,0,.06-.06.06-.06Z" style="fill: #070707; stroke-width: 0px;"/>
    <path d="M145.59,122.62c.13.1.26.21.38.31-.16-.07-.32-.14-.48-.21,0,0,.1-.1.1-.1Z" style="fill: #070707; stroke-width: 0px;"/>
    <path d="M111.46,52.9c.32-.24.64-.49.96-.73-.32.24-.64.49-.96.73Z" style="fill: #070707; stroke-width: 0px;"/>
    <path d="M66.38,48.08c-.18-.23-.37-.45-.55-.68.18.23.37.45.55.68Z" style="fill: #070707; stroke-width: 0px;"/>
    <path d="M126.22,138.68c.21.21.41.42.62.63-.21-.21-.41-.42-.62-.63Z" style="fill: #070707; stroke-width: 0px;"/>
    <path d="M87.72,69.11c-.2-.22-.4-.44-.61-.66.2.22.4.44.61.66Z" style="fill: #efefef; stroke-width: 0px;"/>
    <path d="M126.08,115.29c.07-.14.14-.28.2-.42.14.14.29.29.43.43-.21,0-.42,0-.64-.01Z" style="fill: #070707; stroke-width: 0px;"/>
    <path d="M57.35,113.36c.1.11.2.22.37.41-.21-.15-.34-.23-.46-.32,0,0,.1-.09.1-.09Z" style="fill: #070707; stroke-width: 0px;"/>
    <path d="M113.74,22.98s.02,0,.03,0c-.11.14-.22.29-.52.69.29-.41.39-.55.5-.7Z" style="fill: #17d4ff; stroke-width: 0px;"/>
    <path d="M96.59,22.99s.03.02.03.02c-.1.12-.2.23-.3.35.09-.12.18-.24.26-.37Z" style="fill: #070707; stroke-width: 0px;"/>
    <path d="M156.18,124.05c-.3.19-.59.37-.89.56.3-.19.59-.37.89-.56Z" style="fill: #f8f9f8; stroke-width: 0px;"/>
    <path d="M173.17,112.77s0-.17,0-.17c.17.01.35.03.6.05-.25.05-.42.09-.59.12Z" style="fill: #070707; stroke-width: 0px;"/>
    <path d="M94.74,127.07c.21.2.42.39.64.59-.21-.2-.42-.39-.64-.59Z" style="fill: #f4f5f5; stroke-width: 0px;"/>
    <path d="M132.74,14.03c0,.18-.01.36-.02.54-.29-.06-.58-.13-.87-.19.13-.15.27-.31.41-.46.17,0,.33.04.49.11Z" style="fill: #f5f6f6; stroke-width: 0px;"/>
    <path d="M122.08,68.47c-.04.08-.09.16-.13.23.04-.08.09-.16.13-.24,0,0,0,0,0,0Z" style="fill: #070707; stroke-width: 0px;"/>
    <path d="M132.14,69.07c-.16-.2-.33-.39-.49-.59.16.2.33.39.49.59Z" style="fill: #070707; stroke-width: 0px;"/>
    <path d="M143.13,78.03c.1-.13.2-.26.3-.38-.08.15-.16.3-.24.45,0,0-.07-.06-.07-.06Z" style="fill: #070707; stroke-width: 0px;"/>
    <path d="M105.11,78.61c-2.41.22-4.83.69-7.23.61-3.55-.12-7.11-.53-10.63-1-1.77-.24-3.48-.89-5.21-1.36h-.06c2.23-.81,4.59-1.41,6.68-2.5,3.88-2.01,6.83-1.37,9.46,2.06.4.52,2.53.52,3.13-.02,3.78-3.41,7.33-3.85,11.64-1.1.17.11.34.2.5.31q5.55,3.72,11.66,3.77c-1.14.58-2.3,1.69-3.41,1.64-3.57-.14-7.22.84-10.73-1.07-1.67-.91-3.85-.92-5.8-1.33.12-.15.24-.3,0,0,.19-.34.1-.18,0,0Z" style="fill: #eee; stroke-width: 0px;"/>
    <path d="M121.28,98.52c-1.49-.67-2.98-1.34-4.47-2.01,1.35,3.17,2.66,6.22,4.28,9.99-4.1-3.95-7.48-7.2-10.87-10.45,1.76-2.04,2.32-4.47,2.39-7.07-.01-1.05-.02-2.09-.03-3.14,1.05.37,2.38.48,3.09,1.18.97.96,1.48,2.38,2.18,3.6,1.23,2.55,2.46,5.1,3.69,7.65-.09.08-.17.16-.25.24Z" style="fill: #949495; stroke-width: 0px;"/>
    <path d="M81.51,87.2c-.46-.23-.96-.71-1.38-.65-1.6.25-3.17.66-4.76,1.02l.47-3.83c4.9-1.2,9.81-2.4,14.71-3.6.82,1.35,1.64,2.71,2.48,4.05.39.63.81,1.25,1.22,1.87-.43,1.47-.06,2.36,1.65,2.49,1.13.09,2.26.33,3.38.51-.95.31-1.95.97-2.85.85-1.61-.21-3.17-.87-4.75-1.35,1.24-1.73.83-2.23-2.09-2.54-.06-.39-.12-.77-.17-1.16.22-.13.43-.26.65-.4-.45-.04-.91-.08-1.36-.12-.11.18-.22.35-.34.53-.22.09-.45.17-.67.26-2.79-.47-4.55.57-5.1,3.38-.37-.45-.74-.89-1.11-1.34Z" style="fill: #050505; stroke-width: 0px;"/>
    <path d="M75.94,73.16c.68-1.25,1.26-2.59,2.11-3.72.27-.36,1.26-.21,1.92-.29.21.24.41.48.62.72.75.51,1.51,1.02,2.26,1.53,1.55.29,3.1.58,4.6.86-1.88,3.14-3.27,3.59-7.76,2.06.59,1.98,1.1,3.7,1.62,5.42-4.19,1.51-5.4.67-5.45-3.97,0-.87.05-1.74.08-2.62Z" style="fill: #efefef; stroke-width: 0px;"/>
    <path d="M99.3,89.07c-1.13-.18-2.25-.42-3.38-.51-1.71-.13-2.08-1.03-1.65-2.49v.02c.77-.03,1.55-.05,2.33-.08h12.34c.02.35.07,1.1.11,1.85,0,0,.04-.05.04-.05-1.65.24-3.31.48-4.96.73-1.63.13-3.27.26-4.9.39l.08.14Z" style="fill: #e6e6e6; stroke-width: 0px;"/>
    <path d="M90.57,80.14c-4.9,1.2-9.81,2.4-14.71,3.6-.61-.17-1.22-.33-1.83-.5.02-.27.04-.55.06-.82,4.92-.95,9.83-1.93,14.76-2.82.52-.09,1.15.35,1.72.54Z" style="fill: #8b6500; stroke-width: 0px;"/>
    <path d="M105.49,83.58c-1.98.16-3.97.32-5.95.49,0-.8,0-1.6,0-2.4,1.79-.06,3.58-.13,5.36-.19.2.7.39,1.4.59,2.1Z" style="fill: #dedede; stroke-width: 0px;"/>
    <path d="M102.61,68.68c.7.54,1.33,1.25,2.13,1.56.93.37,2,.4,3.01.57-.5.53-.98,1.48-1.49,1.5-2.02.08-4.05-.14-6.08-.25,0-.38-.02-.75-.03-1.13.82-.76,1.64-1.51,2.46-2.27Z" style="fill: #919191; stroke-width: 0px;"/>
    <path d="M99.53,81.68c0,.8,0,1.6,0,2.4-.97.03-1.94.06-2.9.09-.6-.36-1.21-.72-1.81-1.07-.13-.52-.26-1.03-.48-1.9,1.81.17,3.5.33,5.19.49Z" style="fill: #f5f6f6; stroke-width: 0px;"/>
    <path d="M105.49,83.58c-.2-.7-.39-1.4-.59-2.1,1.97.09,3.94.17,5.92.26.01.39.02.79.03,1.18-1.79.22-3.57.44-5.36.67Z" style="fill: #e8e8e8; stroke-width: 0px;"/>
    <path d="M94.82,83.09l1.81,1.07c-.01.61-.03,1.22-.04,1.84-.78.03-1.56.05-2.34.08.19-1,.38-1.99.57-2.99Z" style="fill: #050505; stroke-width: 0px;"/>
    <path d="M82.85,71.4c-.75-.51-1.51-1.02-2.26-1.53.24-.27.47-.55.71-.82.8-.25,1.59-.5,2.39-.75,0,0,0,0,0,0,0,.39,0,.77-.01,1.16-.27.64-.55,1.29-.82,1.93Z" style="fill: #eaeaea; stroke-width: 0px;"/>
    <path d="M83.02,64.26c.26.4.51.79.77,1.19-.4.11-.8.21-1.2.32,0,0,0,0,0,0,.14-.5.29-1,.43-1.5Z" style="fill: #151515; stroke-width: 0px;"/>
    <path d="M83.67,69.47c0-.39,0-.77.01-1.16,0,.39,0,.77-.01,1.16Z" style="fill: #efefef; stroke-width: 0px;"/>
    <path d="M82.03,76.85c.06-.17.11-.34.17-.51-.07.17-.13.34-.22.51-.01,0,.05,0,.05,0Z" style="fill: #eee; stroke-width: 0px;"/>
    <path d="M30.34,153.82c.05.17.1.34.15.5-.11-.11-.21-.23-.32-.34,0,0,.16-.16.16-.16Z" style="fill: #f2f2f2; stroke-width: 0px;"/>
    <path d="M77.08,60.85c.56,1.02,1.12,2.04,1.68,3.07-.55-.25-1.1-.49-1.65-.74,0-.78-.02-1.55-.03-2.33Z" style="fill: #eaeaea; stroke-width: 0px;"/>
    <path d="M77.11,63.17c.55.25,1.1.49,1.65.74-.04.35-.07.7-.11,1.05-1.08-.12-2.89.38-1.54-1.79Z" style="fill: #070707; stroke-width: 0px;"/>
    <path d="M80.08,66.15c.36.59.72,1.18,1.09,1.77-.16-.07-.32-.09-.49-.08-.2-.56-.4-1.13-.59-1.69Z" style="fill: #eaeaea; stroke-width: 0px;"/>
    <path d="M80.68,67.85c.17-.02.33,0,.49.08.04.38.09.75.13,1.13-.24.27-.47.55-.71.82-.21-.24-.41-.48-.62-.72.24-.43.47-.87.71-1.3Z" style="fill: #070707; stroke-width: 0px;"/>
    <path d="M121.25,138.92c0,.06.02.13,0,.17-.04.05-.11.06-.17.09,0-.12,0-.23,0-.35.06.03.12.06.18.09Z" style="fill: #050505; stroke-width: 0px;"/>
    <path d="M29.65,125.18c-.26.43-.52.86-.78,1.28-2.26-.8-4.15-1.94-4.81-4.97,2.13,1.41,3.86,2.55,5.59,3.69Z" style="fill: #070707; stroke-width: 0px;"/>
    <path d="M40.07,88.73c.21-.08.42-.16.63-.25.01.25.03.5.04.75-.22-.17-.45-.33-.67-.5Z" style="fill: #070707; stroke-width: 0px;"/>
    <path d="M56.78,101.84c.24-.73.48-1.46.72-2.22,1.58.59,3.25,1.21,5.33,1.99.18,2.37-.92,4.8-3.27,6.71-.1-.42-.21-.84-.31-1.26-.55-1.16-1.11-2.32-1.66-3.47-.27-.59-.54-1.17-.81-1.76Z" style="fill: #919191; stroke-width: 0px;"/>
    <path d="M59.26,107.07c.1.42.21.84.31,1.26-.32.94-.65,1.87-.97,2.81-1.46.03-2.93.05-4.39.08-.29-.24-.58-.49-.86-.73-.31-.21-.62-.43-.93-.64-.48-.97-.97-1.94-1.45-2.9.2,0,.4.02.6.03,1.87,1.09,3.75,2.19,5.66,3.3.82-1.28,1.43-2.24,2.04-3.2Z" style="fill: #151515; stroke-width: 0px;"/>
    <path d="M56.78,101.84c.27.59.54,1.17.81,1.76-1.03,0-2.07,0-3.1,0-.09-.3-.18-.61-.26-.91.85-.28,1.7-.57,2.55-.85Z" style="fill: #eee; stroke-width: 0px;"/>
    <path d="M51.56,106.97c-.2,0-.4-.02-.6-.03.31-1.16.63-2.31.94-3.47.29.1.57.19.86.29-.4,1.07-.8,2.14-1.2,3.21Z" style="fill: #eee; stroke-width: 0px;"/>
    <path d="M64.77,105.99c-.34-.05-.68-.1-1.02-.15.45-1.12.89-2.24,1.34-3.37-.1,1.17-.21,2.34-.31,3.51Z" style="fill: #070707; stroke-width: 0px;"/>
    <path d="M22.73,148.97l-.09-.71c.17.12.34.24.52.37-.13.13-.27.25-.42.34Z" style="fill: #070707; stroke-width: 0px;"/>
    <path d="M52.41,146.91c.31-.21.61-.42.92-.63-.03.29-.05.58-.08.86-.28-.08-.56-.15-.84-.23Z" style="fill: #070707; stroke-width: 0px;"/>
    <path d="M55.59,131.59c.12-.08.25-.17.37-.25-.08.12-.16.25-.24.37,0,0-.13-.12-.13-.12Z" style="fill: #959595; stroke-width: 0px;"/>
    <path d="M47.41,146.33c-.04.08-.09.16-.13.24.04-.08.09-.16.13-.24,0,0,0,0,0,0Z" style="fill: #949494; stroke-width: 0px;"/>
    <path d="M80,98.92c1.04-1.66,2.07-3.32,3.14-5.03-.54-.95-1.2-2.11-1.86-3.27l1.12.09c2.26,2.58,2.6,2.58,4.74-.02,1.34,1.4,2.67,2.79,3.98,4.16-.48.52-1.06,1.14-1.63,1.75-1.98,1.35-3.95,2.71-5.93,4.06h0c.14-1.08.27-2.16.45-3.56-1.46.66-2.74,1.24-4.01,1.82Z" style="fill: #949494; stroke-width: 0px;"/>
    <path d="M89.48,96.61c.57-.62,1.15-1.23,1.63-1.75-1.31-1.37-2.64-2.76-3.98-4.16.22-1.86.43-3.73.65-5.59.11,6.03,1.37,7.23,8.86,8.66-2.88,2.59-5.89,5.28-8.89,7.98-.12-.05-.23-.09-.35-.14.91-1.39,1.84-2.76,2.69-4.18.07-.12-.39-.54-.61-.83Z" style="fill: #151515; stroke-width: 0px;"/>
    <path d="M87.78,85.11c-.22,1.86-.43,3.73-.65,5.59-2.13,2.6-2.48,2.6-4.74.02.08-.73.15-1.46.23-2.19.56-2.81,2.32-3.85,5.1-3.38l.05-.05Z" style="fill: #e8e8e8; stroke-width: 0px;"/>
    <path d="M112.61,88.99c-.07,2.6-.63,5.03-2.39,7.07-2.47-.78-4.94-1.56-8.22-2.59,4.39-.92,8.3-1.01,10.61-4.48Z" style="fill: #0a0a0a; stroke-width: 0px;"/>
    <path d="M141.63,85.48c.2.76.4,1.53.6,2.29-1.94-1.33-3.89-2.67-5.83-4,.2-.32.39-.64.59-.96,1.55.89,3.09,1.78,4.64,2.67Z" style="fill: #939393; stroke-width: 0px;"/>
    <path d="M89.61,86.03c2.92.31,3.34.8,2.09,2.54-.7-.85-1.4-1.69-2.09-2.54Z" style="fill: #070707; stroke-width: 0px;"/>
    <path d="M104.12,88.53c1.65-.24,3.31-.48,4.96-.73-1.6.55-3.19,1.1-4.79,1.65-.06-.31-.12-.62-.17-.92Z" style="fill: #070707; stroke-width: 0px;"/>
    <path d="M104.12,88.53c.06.31.12.62.17.92-1.34.2-2.68.48-4.03.54-.33.01-.69-.69-1.04-1.07,1.63-.13,3.27-.26,4.9-.39Z" style="fill: #050505; stroke-width: 0px;"/>
    <path d="M78.8,100.68c.4-.59.81-1.18,1.21-1.78-.4.59-.81,1.18-1.21,1.78Z" style="fill: #949494; stroke-width: 0px;"/>
    <path d="M139.03,79.43c-.07.16-.11.41-.23.46-.12.05-.32-.12-.48-.19.07-.16.11-.41.23-.46.12-.05.32.12.48.19Z" style="fill: #ececec; stroke-width: 0px;"/>
    <path d="M88.73,84.36c.45.04.91.08,1.36.12-.22.13-.43.26-.65.4l-.25-.09s-.26.07-.26.07c-.03-.18-.09-.34-.2-.49Z" style="fill: #070707; stroke-width: 0px;"/>
    <path d="M78.21,101.86c.21-.4.41-.81.62-1.21-.21.4-.41.81-.62,1.21Z" style="fill: #949494; stroke-width: 0px;"/>
    <path d="M132.74,79.64c.23-.39.45-.78.68-1.17-.23.39-.45.78-.68,1.17Z" style="fill: #070707; stroke-width: 0px;"/>
    <path d="M79.33,107.86c-.02.29-.03.59-.09.87-.01.06-.27.06-.41.09.04-.34.09-.67.13-1.01.13.01.25.03.38.04Z" style="fill: #050505; stroke-width: 0px;"/>
    <path d="M121.54,98.28c.11.11.21.22.32.34-.19-.03-.38-.07-.57-.1.08-.08.17-.16.25-.24Z" style="fill: #949495; stroke-width: 0px;"/>
    <path d="M88.73,84.36c.11.15.17.31.2.49-.18.04-.35.05-.53.05.11-.18.22-.35.34-.53Z" style="fill: #e8e8e8; stroke-width: 0px;"/>
    <path d="M83.55,100.67c-.03.09-.05.18-.11.25-.03.04-.13.02-.19.02.1-.09.21-.18.31-.27,0,0,0,0,0,0Z" style="fill: #949494; stroke-width: 0px;"/>
    <path d="M104.64,115.54c-.02-.23-.04-.47-.06-.7.14.12.28.23.42.35-.11.12-.23.24-.36.35Z" style="fill: #959596; stroke-width: 0px;"/>
    <path d="M137.21,98.58c-.05-.26-.09-.52-.14-.79.16.15.33.3.49.45-.11.12-.23.23-.35.34Z" style="fill: #070707; stroke-width: 0px;"/>
    <polygon points="118.1 108.62 118.3 108.53 118.28 108.74 118.1 108.62" style="fill: #959596; stroke-width: 0px;"/>
    <path d="M114.69,107.35c-.05-.21-.11-.42-.16-.63.18.09.37.18.55.27-.12.13-.25.25-.39.37Z" style="fill: #959596; stroke-width: 0px;"/>
    <path d="M111.19,52.59c-.12-.07-.24-.13-.37-.2.06-.06.14-.18.19-.17.14.03.26.11.39.18-.07.06-.13.12-.21.19Z" style="fill: #050505; stroke-width: 0px;"/>
    <path d="M82.62,88.53c-.08.73-.15,1.46-.23,2.19l-1.12-.09c.08-1.14.15-2.29.23-3.43.37.45.74.89,1.11,1.34Z" style="fill: #070707; stroke-width: 0px;"/>
    <path d="M158.24,82.51c.17.15.33.29.5.44-.27,0-.54-.01-.82-.02.09-.15.19-.29.32-.42Z" style="fill: #070707; stroke-width: 0px;"/>
    <path d="M161.38,79.72c.04.31.09.63.13.94-.27-.16-.54-.32-.81-.48.23-.15.46-.31.68-.46Z" style="fill: #050505; stroke-width: 0px;"/>
    <path d="M161.38,79.72c-.23.15-.46.31-.68.46.23-.15.46-.31.68-.46Z" style="fill: #070707; stroke-width: 0px;"/>
    <path d="M83.02,64.26c-.14.5-.28,1-.43,1.5-.45-1.04-.9-2.09-1.36-3.13.33,0,.65,0,.98,0,.27.54.54,1.08.81,1.63Z" style="fill: #070707; stroke-width: 0px;"/>
    <path d="M82.21,62.63c-.33,0-.65,0-.98,0-.18-.31-.36-.62-.54-.93.23-.14.47-.28.7-.41.27.45.55.91.82,1.36Z" style="fill: #151515; stroke-width: 0px;"/>
    <path d="M80.22,60.75c-.24-.48-.49-.96-.73-1.45.16-.1.31-.21.47-.31.27.38.53.75.8,1.13-.18.21-.36.42-.53.63Z" style="fill: #151515; stroke-width: 0px;"/>
    <path d="M80.69,61.69c-.16-.31-.31-.63-.47-.94.18-.21.36-.42.53-.63.21.38.42.77.63,1.15-.23.14-.47.28-.7.41Z" style="fill: #151515; stroke-width: 0px;"/>
    <path d="M103.15,66.98c-.2.29-.41.57-.61.86.2-.29.41-.57.61-.86Z" style="fill: #050505; stroke-width: 0px;"/>
    <path d="M138.67,98.91c-.07-.1-.16-.2-.21-.32-.02-.05.05-.13.09-.2.16.04.31.09.47.13-.12.13-.23.26-.35.38Z" style="fill: #f4f5f5; stroke-width: 0px;"/>
    <path d="M141.14,70.11c.26.05.52.1.78.15-.13.29-.25.58-.38.87-.17-.11-.35-.22-.52-.34,0-.17-.02-.34-.05-.51l.17-.18Z" style="fill: #070707; stroke-width: 0px;"/>
    <path d="M53.34,110.48c.29.24.58.49.86.73-.29-.24-.58-.49-.86-.73Z" style="fill: #efefef; stroke-width: 0px;"/>
    <path d="M62.07,87.22c-.05.06-.11.13-.16.19-.04-.07-.12-.15-.11-.22,0-.07.1-.13.15-.19.04.07.08.15.12.22Z" style="fill: #050505; stroke-width: 0px;"/>
    <path d="M140.97,70.29c.03.17.05.34.05.51-.42-.03-.85-.06-1.27-.09,0-.12,0-.23,0-.35.41-.02.82-.04,1.22-.07Z" style="fill: #050505; stroke-width: 0px;"/>
    <path d="M109.6,67.92c-.15.15-.3.29-.45.44.15-.15.3-.29.45-.44Z" style="fill: #050505; stroke-width: 0px;"/>
    <path d="M105.11,78.61c.09-.17.18-.33,0,0,.25-.3.13-.15,0,0,0,0,0,0,0,0Z" style="fill: #070707; stroke-width: 0px;"/>
  </g>
  <line x1="160.76" y1="148.63" x2="118.8" y2="170.17" style="fill: none; stroke-width: 0px;"/>
</svg>